<?xml version="1.0" encoding="UTF-8"?>
<svg width="239px" height="71px" viewBox="0 0 239 71" version="1.1" xmlns="http://www.w3.org/2000/svg" xmlns:xlink="http://www.w3.org/1999/xlink">
    <!-- Generator: Sketch 52.4 (67378) - http://www.bohemiancoding.com/sketch -->
    <title>Group 6</title>
    <desc>Created with Sketch.</desc>
    <defs>
        <linearGradient x1="95.8687125%" y1="4.16752645%" x2="22.0424107%" y2="78.6414195%" id="linearGradient-1">
            <stop stop-color="#FF22B2" offset="0%"></stop>
            <stop stop-color="#AC55C7" offset="51.3806669%"></stop>
            <stop stop-color="#4594E1" offset="100%"></stop>
        </linearGradient>
    </defs>
    <g id="Page-1" stroke="none" stroke-width="1" fill="none" fill-rule="evenodd">
        <g id="Desktop-HD-Copy-5" transform="translate(-721.000000, -113.000000)">
            <g id="Group-6" transform="translate(721.000000, 113.000000)">
                <g id="logo">
                    <path d="M62.1993417,0 L52.2125439,10.1970681 C49.8368794,9.19546769 47.2346262,8.64509042 44.5071157,8.64509042 C41.837308,8.64509042 39.2083145,9.19259365 36.755244,10.2258084 C35.205714,10.8810879 33.736405,11.7332386 32.3839088,12.7607053 C31.0314127,11.7332386 29.5564741,10.8810879 27.9999073,10.2258084 C25.5609106,9.19546769 22.931917,8.64509042 20.2607019,8.64509042 C14.6691648,8.64509042 9.60117454,10.9629978 5.93493888,14.7078624 C2.2701106,18.448416 0,23.6231119 0,29.3323779 C0,32.061272 0.536213354,34.7456186 1.54671516,37.2503381 C2.55721697,39.7392504 4.04341461,42.0284175 5.93493888,43.9583305 L19.1713866,57.4749063 L10.3639767,66.4691917 L14.7676817,70.9656159 L23.576499,61.9713305 L28.9104848,67.4176225 L32.3839088,70.9656159 L34.5850576,68.7166853 L36.7876138,66.4691917 L58.8328788,43.9612045 C60.7244031,42.0284175 62.2106007,39.7392504 63.2211025,37.238842 C64.230197,34.7456186 64.7692251,32.061272 64.7692251,29.333815 C64.7692251,25.3432205 63.6573916,21.6156001 61.7419418,18.4527271 L57.1580917,23.1330894 C58.0419289,25.0069587 58.5373281,27.1121877 58.5373281,29.3323779 C58.5373281,31.2464837 58.1700009,33.111731 57.4747531,34.8174694 C56.7766906,36.5318299 55.7422633,38.12117 54.4291739,39.4633433 L32.3839088,61.9713305 L10.3386438,39.4647803 C9.02555443,38.12117 7.98971971,36.5318299 7.28884241,34.8189064 C6.59922419,33.111731 6.23048955,31.2464837 6.23048955,29.333815 C6.23048955,25.3762719 7.80535239,21.7909161 10.3386438,19.2028496 C12.87475,16.6147832 16.384766,15.0081989 20.2607019,15.0081989 C22.1325228,15.0081989 23.9593074,15.3832601 25.6298724,16.0917092 C27.3088817,16.8044693 28.8654485,17.8563653 30.1813527,19.1999756 L32.3839088,21.4503432 L34.5850576,19.1999756 C35.9023692,17.8563653 37.458936,16.8044693 39.1351305,16.0873981 C40.8071029,15.3832601 42.6352949,15.0081989 44.5071157,15.0081989 C45.4402114,15.0081989 46.3521963,15.1001679 47.2346262,15.279795 L30.523347,32.3414902 L30.2024634,32.6691299 L24.2914501,38.7045986 L33.1804883,38.6226887 L37.6362664,38.6226887 L27.9773891,48.484932 L32.3810941,52.9813562 L49.3668131,35.6394427 L52.5953523,32.3414902 L49.4822186,32.3414902 L43.7865351,32.3414902 L39.3321643,32.3414902 L53.2526007,18.1279614 L57.6746017,13.612856 L64.1724942,6.97958846 L66.6030466,4.49642419 L62.1993417,0 Z" id="Path" fill="url(#linearGradient-1)"></path>
                    <path d="M92.7581272,19.1605622 L82.9130405,19.1605622 L82.9130405,61.1234671 L93.1733362,61.1234671 C99.6980362,61.1234671 103.077702,57.6458524 103.077702,51.1723841 L103.077702,47.7551195 C103.077702,43.3193512 101.714203,40.1418415 98.2146086,38.7637488 C101.120729,37.3843573 102.426405,34.6266134 102.426405,30.3111122 L102.426405,28.8114537 C102.426405,22.3379854 99.5200283,19.1605622 92.7581272,19.1605622 Z M92.3426613,42.2396317 C95.3082315,42.2396317 96.5544581,43.4393585 96.5544581,47.3351805 L96.5544581,50.9924598 C96.5544581,54.1100524 95.3675104,55.1281232 93.1733362,55.1281232 L89.4377405,55.1281232 L89.4377405,42.2396317 L92.3426613,42.2396317 Z M92.5798624,25.1556463 C94.8927656,25.1556463 95.9017054,26.4736488 95.9017054,29.4711476 L95.9017054,31.8089524 C95.9017054,35.1663866 94.4195627,36.2460195 91.9881018,36.2460195 L89.4377405,36.2460195 L89.4377405,25.1556463 L92.5798624,25.1556463 Z M106.992762,61.1234671 L113.517462,61.1234671 L113.517462,19.1605622 L106.992762,19.1605622 L106.992762,61.1234671 Z M128.047291,43.7392902 L131.012947,43.7392902 L131.012947,51.4723159 C131.012947,54.4699012 129.708984,55.5480622 127.632082,55.5480622 C125.55638,55.5480622 124.252416,54.4699012 124.252416,51.4723159 L124.252416,28.8114537 C124.252416,25.8153402 125.55638,24.6757902 127.632082,24.6757902 C129.708984,24.6757902 131.012947,25.8153402 131.012947,28.8114537 L131.012947,33.308611 L137.181631,33.308611 L137.181631,29.2313927 C137.181631,22.5179098 133.860045,18.6804463 127.45553,18.6804463 C121.049388,18.6804463 117.727716,22.5179098 117.727716,29.2313927 L117.727716,51.0526366 C117.727716,57.7658598 121.049388,61.6033232 127.45553,61.6033232 C133.860045,61.6033232 137.181631,57.7658598 137.181631,51.0526366 L137.181631,37.7442061 L128.047291,37.7442061 L128.047291,43.7392902 Z M160.962902,61.1234671 L167.664154,61.1234671 L167.664154,19.1605622 L161.851657,19.1605622 L161.851657,44.2775049 L155.150405,19.1605622 L146.965811,19.1605622 L146.965811,61.1234671 L152.837502,61.1234671 L152.837502,30.7307915 L160.962902,61.1234671 Z M178.873853,25.1556463 L190.141633,25.1556463 L190.141633,19.1605622 L172.349153,19.1605622 L172.349153,61.1234671 L190.141633,61.1234671 L190.141633,55.1281232 L178.873853,55.1281232 L178.873853,42.8394951 L187.828729,42.8394951 L187.828729,36.844411 L178.873853,36.844411 L178.873853,25.1556463 Z M200.165927,28.8114537 C200.165927,25.8153402 201.46989,24.6757902 203.545592,24.6757902 C205.622494,24.6757902 206.926457,25.8153402 206.926457,28.8114537 L206.926457,51.4723159 C206.926457,54.4699012 205.622494,55.608239 203.545592,55.608239 C201.46989,55.608239 200.165927,54.4699012 200.165927,51.4723159 L200.165927,28.8114537 Z M193.641227,51.0526366 C193.641227,57.7658598 197.141077,61.6033232 203.545592,61.6033232 C209.951563,61.6033232 213.451071,57.7658598 213.451071,51.0526366 L213.451071,29.2313927 C213.451071,22.5179098 209.951563,18.6804463 203.545592,18.6804463 C197.141077,18.6804463 193.641227,22.5179098 193.641227,29.2313927 L193.641227,51.0526366 Z M231.599566,61.1234671 L238.300818,61.1234671 L238.300818,19.1605622 L232.488064,19.1605622 L232.488064,44.2775049 L225.787069,19.1605622 L217.602219,19.1605622 L217.602219,61.1234671 L223.474166,61.1234671 L223.474166,30.7307915 L231.599566,61.1234671 Z" id="Fill-174" fill="#000000"></path>
                </g>
            </g>
        </g>
    </g>
</svg>