<?xml version="1.0" encoding="UTF-8"?>
<svg width="125px" height="132px" viewBox="0 0 125 132" version="1.1" xmlns="http://www.w3.org/2000/svg" xmlns:xlink="http://www.w3.org/1999/xlink">
    <!-- Generator: Sketch 52.5 (67469) - http://www.bohemiancoding.com/sketch -->
    <title>Path</title>
    <desc>Created with Sketch.</desc>
    <g id="Event-Discovery/Purchase-Funnel" stroke="none" stroke-width="1" fill="none" fill-rule="evenodd">
        <g id="Search-Loading" transform="translate(-313.000000, -466.000000)" fill="#9E9E9E">
            <path d="M429.735166,466 L410.992034,484.967115 C406.533408,483.104082 401.649522,482.08035 396.530555,482.08035 C391.519884,482.08035 386.585813,483.098736 381.981912,485.020573 C379.073768,486.23943 376.316182,487.824478 373.777829,489.735623 C371.239477,487.824478 368.471325,486.23943 365.549975,485.020573 C360.972488,483.104082 356.038416,482.08035 351.025104,482.08035 C340.530957,482.08035 331.019398,486.391787 324.13864,493.357444 C317.260523,500.315082 313,509.940305 313,520.559857 C313,525.635752 314.00636,530.628787 315.902861,535.287705 C317.799362,539.91722 320.588644,544.175198 324.13864,547.764944 L348.980686,572.906528 L332.451019,589.6364 L340.715852,598 L357.248162,581.270128 L367.258938,591.400535 L373.777829,598 L377.908926,593.816864 L382.042663,589.6364 L423.417019,547.77029 C426.967015,544.175198 429.756297,539.91722 431.652798,535.266321 C433.546657,530.628787 434.5583,525.635752 434.5583,520.56253 C434.5583,513.139802 432.471621,506.206221 428.876722,500.323101 L420.273793,509.028835 C421.932571,512.514337 422.862332,516.43018 422.862332,520.559857 C422.862332,524.120201 422.172936,527.589665 420.868101,530.762433 C419.557983,533.951239 417.616579,536.9075 415.152185,539.404017 L373.777829,581.270128 L332.403474,539.40669 C329.93908,536.9075 327.995034,533.951239 326.679634,530.765106 C325.385365,527.589665 324.693327,524.120201 324.693327,520.56253 C324.693327,513.20128 327.649015,506.532318 332.403474,501.71837 C337.163215,496.904422 343.750782,493.916086 351.025104,493.916086 C354.53812,493.916086 357.966613,494.613721 361.101914,495.931476 C364.253064,497.257249 367.174415,499.213834 369.644092,501.713024 L373.777829,505.898834 L377.908926,501.713024 C380.381244,499.213834 383.302595,497.257249 386.448462,495.923457 C389.586404,494.613721 393.017539,493.916086 396.530555,493.916086 C398.281781,493.916086 399.993386,494.087154 401.649522,494.42127 L370.285944,526.156974 L369.683712,526.766402 L358.589975,537.99271 L375.272843,537.840353 L383.635407,537.840353 L365.507713,556.184675 L373.772547,564.548275 L405.651192,532.291349 L411.710485,526.156974 L405.867784,526.156974 L395.178176,526.156974 L386.818253,526.156974 L412.944003,499.719018 L421.243175,491.320671 L433.438361,478.982423 L438,474.3636 L429.735166,466 Z" id="Path"></path>
        </g>
    </g>
</svg>