<?xml version="1.0" encoding="UTF-8"?>
<svg width="42px" height="41px" viewBox="0 0 42 41" version="1.1" xmlns="http://www.w3.org/2000/svg" xmlns:xlink="http://www.w3.org/1999/xlink">
    <!-- Generator: Sketch 52.2 (67145) - http://www.bohemiancoding.com/sketch -->
    <title>007-controls copy</title>
    <desc>Created with Sketch.</desc>
    <defs>
        <linearGradient x1="94.6430556%" y1="-3.46543296%" x2="-2.71388889%" y2="82.3178538%" id="linearGradient-1">
            <stop stop-color="#E53D96" offset="0%"></stop>
            <stop stop-color="#5491CC" offset="100%"></stop>
        </linearGradient>
    </defs>
    <g id="FAN_My-account" stroke="none" stroke-width="1" fill="none" fill-rule="evenodd">
        <g id="FAN-My-account-03-Fan-hub-organisation" transform="translate(-451.000000, -147.000000)" fill="url(#linearGradient-1)" fill-rule="nonzero">
            <g id="page-title" transform="translate(451.000000, 147.000000)">
                <g id="007-controls-copy">
                    <path d="M6,29.817971 L6,0.743961353 C6,0.332550725 5.664,0 5.25,0 C4.836,0 4.5,0.332550725 4.5,0.743961353 L4.5,29.817971 C1.95975,30.1810242 0,32.3481836 0,34.9661836 C0,37.8371304 2.355,40.173913 5.25,40.173913 C8.145,40.173913 10.5,37.8371304 10.5,34.9661836 C10.5,32.3481836 8.54025,30.1810242 6,29.817971 Z M5.25,38.6859903 C3.18225,38.6859903 1.5,37.017285 1.5,34.9661836 C1.5,32.9150821 3.18225,31.2463768 5.25,31.2463768 C7.31775,31.2463768 9,32.9150821 9,34.9661836 C9,37.017285 7.31775,38.6859903 5.25,38.6859903 Z" id="Shape"></path>
                    <path d="M21.75,14.6523188 L21.75,0.743961353 C21.75,0.332550725 21.414,0 21,0 C20.586,0 20.25,0.332550725 20.25,0.743961353 L20.25,14.6054493 C17.5485,14.900058 15.4395,17.1765797 15.4395,19.9329565 C15.4395,22.6893333 17.5485,24.9658551 20.25,25.2604638 L20.25,39.4299517 C20.25,39.8413623 20.586,40.173913 21,40.173913 C21.414,40.173913 21.75,39.8413623 21.75,39.4299517 L21.75,25.2135942 C24.3,24.7843285 26.25,22.5829469 26.25,19.9329565 C26.25,17.2829662 24.3,15.0815845 21.75,14.6523188 Z M20.84475,23.8067633 C18.6915,23.8067633 16.9395,22.0688696 16.9395,19.9329565 C16.9395,17.7970435 18.69075,16.0591498 20.84475,16.0591498 C22.99875,16.0591498 24.75,17.7970435 24.75,19.9329565 C24.75,22.0688696 22.998,23.8067633 20.84475,23.8067633 Z" id="Shape"></path>
                    <path d="M42,5.20772947 C42,2.33678261 39.645,0 36.75,0 C33.855,0 31.5,2.33678261 31.5,5.20772947 C31.5,7.82572947 33.45975,9.99288889 36,10.355942 L36,39.4299517 C36,39.8413623 36.336,40.173913 36.75,40.173913 C37.164,40.173913 37.5,39.8413623 37.5,39.4299517 L37.5,10.355942 C40.04025,9.99288889 42,7.82572947 42,5.20772947 Z M36.75,8.92753623 C34.68225,8.92753623 33,7.25883092 33,5.20772947 C33,3.15662802 34.68225,1.48792271 36.75,1.48792271 C38.81775,1.48792271 40.5,3.15662802 40.5,5.20772947 C40.5,7.25883092 38.81775,8.92753623 36.75,8.92753623 Z" id="Shape"></path>
                </g>
            </g>
        </g>
    </g>
</svg>