<?xml version="1.0" encoding="UTF-8"?>
<svg width="23px" height="22px" viewBox="0 0 23 22" version="1.1" xmlns="http://www.w3.org/2000/svg" xmlns:xlink="http://www.w3.org/1999/xlink">
    <!-- Generator: Sketch 52.2 (67145) - http://www.bohemiancoding.com/sketch -->
    <title>007-controls</title>
    <desc>Created with Sketch.</desc>
    <g id="FAN_My-account" stroke="none" stroke-width="1" fill="none" fill-rule="evenodd">
        <g id="FAN-My-account-02-Fan-hub-personal" transform="translate(-30.000000, -405.000000)" fill="#9DA3B4" fill-rule="nonzero">
            <g id="side-menu" transform="translate(-1.000000, 81.000000)">
                <g id="007-controls">
                    <g transform="translate(31.000000, 324.000000)">
                        <path d="M3.28571429,16.3288889 L3.28571429,0.407407407 C3.28571429,0.182111111 3.10171429,0 2.875,0 C2.64828571,0 2.46428571,0.182111111 2.46428571,0.407407407 L2.46428571,16.3288889 C1.07319643,16.5277037 0,17.7144815 0,19.1481481 C0,20.7203333 1.28964286,22 2.875,22 C4.46035714,22 5.75,20.7203333 5.75,19.1481481 C5.75,17.7144815 4.67680357,16.5277037 3.28571429,16.3288889 Z M2.875,21.1851852 C1.74266071,21.1851852 0.821428571,20.2713704 0.821428571,19.1481481 C0.821428571,18.0249259 1.74266071,17.1111111 2.875,17.1111111 C4.00733929,17.1111111 4.92857143,18.0249259 4.92857143,19.1481481 C4.92857143,20.2713704 4.00733929,21.1851852 2.875,21.1851852 Z" id="Shape"></path>
                        <path d="M11.9107143,8.02388889 L11.9107143,0.407407407 C11.9107143,0.182111111 11.7267143,0 11.5,0 C11.2732857,0 11.0892857,0.182111111 11.0892857,0.407407407 L11.0892857,7.99822222 C9.60989286,8.15955556 8.45496429,9.40622222 8.45496429,10.9156667 C8.45496429,12.4251111 9.60989286,13.6717778 11.0892857,13.8331111 L11.0892857,21.5925926 C11.0892857,21.8178889 11.2732857,22 11.5,22 C11.7267143,22 11.9107143,21.8178889 11.9107143,21.5925926 L11.9107143,13.8074444 C13.3071429,13.5723704 14.375,12.3668519 14.375,10.9156667 C14.375,9.46448148 13.3071429,8.25896296 11.9107143,8.02388889 Z M11.4149821,13.037037 C10.2358214,13.037037 9.27639286,12.0853333 9.27639286,10.9156667 C9.27639286,9.746 10.2354107,8.7942963 11.4149821,8.7942963 C12.5945536,8.7942963 13.5535714,9.746 13.5535714,10.9156667 C13.5535714,12.0853333 12.5941429,13.037037 11.4149821,13.037037 Z" id="Shape"></path>
                        <path d="M23,2.85185185 C23,1.27966667 21.7103571,0 20.125,0 C18.5396429,0 17.25,1.27966667 17.25,2.85185185 C17.25,4.28551852 18.3231964,5.4722963 19.7142857,5.67111111 L19.7142857,21.5925926 C19.7142857,21.8178889 19.8982857,22 20.125,22 C20.3517143,22 20.5357143,21.8178889 20.5357143,21.5925926 L20.5357143,5.67111111 C21.9268036,5.4722963 23,4.28551852 23,2.85185185 Z M20.125,4.88888889 C18.9926607,4.88888889 18.0714286,3.97507407 18.0714286,2.85185185 C18.0714286,1.72862963 18.9926607,0.814814815 20.125,0.814814815 C21.2573393,0.814814815 22.1785714,1.72862963 22.1785714,2.85185185 C22.1785714,3.97507407 21.2573393,4.88888889 20.125,4.88888889 Z" id="Shape"></path>
                    </g>
                </g>
            </g>
        </g>
    </g>
</svg>