<?xml version="1.0" encoding="UTF-8"?>
<svg width="29px" height="28px" viewBox="0 0 29 28" version="1.1" xmlns="http://www.w3.org/2000/svg" xmlns:xlink="http://www.w3.org/1999/xlink">
    <!-- Generator: Sketch 52.2 (67145) - http://www.bohemiancoding.com/sketch -->
    <title>icon</title>
    <desc>Created with Sketch.</desc>
    <g id="PROMOTER_Events" stroke="none" stroke-width="1" fill="none" fill-rule="evenodd">
        <g id="PROMOTER-Events-04-Events-ticket-options" transform="translate(-619.000000, -2235.000000)">
            <g id="form-content" transform="translate(355.000000, 131.000000)">
                <g id="add-new-ticket" transform="translate(95.000000, 2081.000000)">
                    <g id="icon" transform="translate(169.000000, 22.000000)">
                        <path d="M18.9017939,21.1032511 L18.9017939,19.3484005 C18.9017939,19.1061078 19.0988686,18.9096907 19.3419726,18.9096907 L19.7821512,18.9096907 C20.0252552,18.9096907 20.2223299,19.1061078 20.2223299,19.3484005 L20.2223299,21.1032511 L25.5044748,21.1032511 L25.504474,18.1989284 C24.3148368,17.7021635 23.7437591,16.5240851 23.7437591,14.9613029 C23.7437591,13.3985212 24.3148368,12.220443 25.5044721,11.7236781 L25.5044748,8.81935509 L20.2223299,8.81935509 L20.2223299,10.5742053 C20.2223299,10.816498 20.0252552,11.0129151 19.7821512,11.0129151 L19.3419726,11.0129151 C19.0988686,11.0129151 18.9017939,10.816498 18.9017939,10.5742053 L18.9017939,8.81935509 L10.0982209,8.81935509 L10.0982209,10.5742053 C10.0982209,10.816498 9.90114619,11.0129151 9.65804224,11.0129151 L9.21786359,11.0129151 C8.97475963,11.0129151 8.77768493,10.816498 8.77768493,10.5742053 L8.77768493,8.81935509 L3.49553648,8.81935509 L3.49554,11.723677 C4.6851777,12.2204418 5.25625572,13.3985203 5.25625572,14.9613029 C5.25625572,16.5240852 4.6851775,17.7021637 3.49554135,18.1989283 L3.49553648,21.1032511 L8.77768493,21.1032511 L8.77768493,19.3484005 C8.77768493,19.1061078 8.97475963,18.9096907 9.21786359,18.9096907 L9.65804224,18.9096907 C9.90114619,18.9096907 10.0982209,19.1061078 10.0982209,19.3484005 L10.0982209,21.1032511 L18.9017939,21.1032511 Z M2.17500442,12.0330783 L2.175,8.38064617 C2.17499953,7.89606076 2.56914853,7.50322628 3.05535645,7.50322581 L25.9446536,7.50322645 C26.4308615,7.50322645 26.8250109,7.89606055 26.8250109,8.38064597 L26.8250078,12.0330769 C26.8250077,12.4224351 26.5675564,12.7652224 26.1927254,12.8749385 C25.4404385,13.0951392 25.064295,13.790594 25.064295,14.9613029 C25.064295,16.1320088 25.4404365,16.827463 26.1927195,17.0476655 C26.5675566,17.157375 26.8250097,17.5001661 26.8250098,17.8895282 L26.8250109,21.54196 C26.825011,22.0265454 26.4308617,22.4193796 25.9446538,22.4193797 L3.0553573,22.4193804 C2.56914939,22.4193804 2.175,22.0265463 2.175,21.5419608 L2.1750059,17.889529 C2.17500628,17.5001707 2.4324578,17.1573835 2.80728896,17.0476674 C3.55957617,16.8274669 3.93571977,16.1320121 3.93571977,14.9613029 C3.93571977,13.790597 3.55957828,13.0951428 2.80729529,12.8749403 C2.43245802,12.7652313 2.1750048,12.4224404 2.17500442,12.0330783 Z M9.65804224,16.7161419 L9.21786359,16.7161419 C8.97475963,16.7161419 8.77768493,16.5197249 8.77768493,16.2774322 L8.77768493,13.6451736 C8.77768493,13.4028809 8.97475963,13.2064639 9.21786359,13.2064639 L9.65804224,13.2064639 C9.90114619,13.2064639 10.0982209,13.4028809 10.0982209,13.6451736 L10.0982209,16.2774322 C10.0982209,16.5197249 9.90114619,16.7161419 9.65804224,16.7161419 Z M19.7821512,16.7161419 L19.3419726,16.7161419 C19.0988686,16.7161419 18.9017939,16.5197249 18.9017939,16.2774322 L18.9017939,13.6451736 C18.9017939,13.4028809 19.0988686,13.2064639 19.3419726,13.2064639 L19.7821512,13.2064639 C20.0252552,13.2064639 20.2223299,13.4028809 20.2223299,13.6451736 L20.2223299,16.2774322 C20.2223299,16.5197249 20.0252552,16.7161419 19.7821512,16.7161419 Z" id="Combined-Shape" fill="#000000" fill-rule="nonzero" transform="translate(14.500005, 14.961303) rotate(-45.000000) translate(-14.500005, -14.961303) "></path>
                        <ellipse id="Oval-3" fill="#FFFFFF" fill-rule="nonzero" cx="15.5875" cy="23.0387097" rx="3.9875" ry="3.97419355"></ellipse>
                        <path d="M18.66875,22.4967742 L16.85625,22.4967742 L16.85625,20.6903226 C16.85625,20.1910871 16.450907,19.7870968 15.95,19.7870968 C15.449093,19.7870968 15.04375,20.1910871 15.04375,20.6903226 L15.04375,22.4967742 L13.23125,22.4967742 C12.730343,22.4967742 12.325,22.9007645 12.325,23.4 C12.325,23.8992355 12.730343,24.3032258 13.23125,24.3032258 L15.04375,24.3032258 L15.04375,26.1096774 C15.04375,26.6089129 15.449093,27.0129032 15.95,27.0129032 C16.450907,27.0129032 16.85625,26.6089129 16.85625,26.1096774 L16.85625,24.3032258 L18.66875,24.3032258 C19.169657,24.3032258 19.575,23.8992355 19.575,23.4 C19.575,22.9007645 19.169657,22.4967742 18.66875,22.4967742 Z" id="Fill-3" fill="#FF22B2"></path>
                    </g>
                </g>
            </g>
        </g>
    </g>
</svg>