<?xml version="1.0" encoding="UTF-8"?>
<svg width="21px" height="25px" viewBox="0 0 21 25" version="1.1" xmlns="http://www.w3.org/2000/svg" xmlns:xlink="http://www.w3.org/1999/xlink">
    <!-- Generator: Sketch 52.3 (67297) - http://www.bohemiancoding.com/sketch -->
    <title>002-android-logo</title>
    <desc>Created with Sketch.</desc>
    <g id="FAN_Checkout" stroke="none" stroke-width="1" fill="none" fill-rule="evenodd">
        <g id="Checkout_confirmation" transform="translate(-386.000000, -791.000000)" fill="#FFFFFF" fill-rule="nonzero">
            <g id="android-cta" transform="translate(355.000000, 774.000000)">
                <g id="002-android-logo" transform="translate(31.000000, 17.000000)">
                    <path d="M1.53324306,7.94343171 L1.47034028,7.94343171 C0.663979167,7.94343171 0.00651388889,8.5977527 0.00651388889,9.39564043 L0.00651388889,15.718316 C0.00651388889,16.5193383 0.663979167,17.1715374 1.47034028,17.1715374 L1.5343125,17.1715374 C2.34067361,17.1715374 2.99813889,16.5172164 2.99813889,15.718316 L2.99813889,9.39559221 C2.99706944,8.5977527 2.33858333,7.94343171 1.53324306,7.94343171 Z" id="Shape"></path>
                    <path d="M3.69857639,18.1587577 C3.69857639,18.8931809 4.30359028,19.4913194 5.04388889,19.4913194 L6.48151389,19.4913194 L6.48151389,22.9064911 C6.48151389,23.7085262 7.14106944,24.3607735 7.94534028,24.3607735 L8.00824306,24.3607735 C8.81567361,24.3607735 9.47415972,23.7075135 9.47415972,22.9064911 L9.47415972,19.4913194 L11.4832569,19.4913194 L11.4832569,22.9064911 C11.4832569,23.7085262 12.1449028,24.3607735 12.9491736,24.3607735 L13.0110556,24.3607735 C13.8184375,24.3607735 14.4759028,23.7075135 14.4759028,22.9064911 L14.4759028,19.4913194 L15.9145486,19.4913194 C16.6537778,19.4913194 17.2588403,18.8931809 17.2588403,18.1587577 L17.2588403,8.17539545 L3.69857639,8.17539545 L3.69857639,18.1587577 Z" id="Shape"></path>
                    <path d="M13.8561597,2.12109375 L14.9980833,0.372444059 C15.0714861,0.262152778 15.0389653,0.111352238 14.9267708,0.0395447531 C14.8156458,-0.033275463 14.6635903,-0.00308641975 14.5912083,0.110291281 L13.4073819,1.91931906 C12.5192569,1.55835262 11.5272986,1.35551698 10.4797292,1.35551698 C9.43113889,1.35551698 8.44127083,1.55835262 7.55105556,1.91931906 L6.36931944,0.110291281 C6.29698611,-0.00308641975 6.14386111,-0.033275463 6.03166667,0.0395447531 C5.91947222,0.111304012 5.88695139,0.262152778 5.96035417,0.372444059 L7.10329861,2.12109375 C5.04281944,3.12287809 3.65346528,5.01094715 3.65346528,7.17674576 C3.65346528,7.30989583 3.661875,7.44097222 3.67339583,7.57098765 L17.2870833,7.57098765 C17.2986042,7.44097222 17.3059444,7.30989583 17.3059444,7.17674576 C17.3059931,5.01094715 15.9155694,3.12287809 13.8561597,2.12109375 Z M7.32350694,5.25226659 C6.96174306,5.25226659 6.66813194,4.96305941 6.66813194,4.60315394 C6.66813194,4.24324846 6.96174306,3.95505401 7.32350694,3.95505401 C7.68736111,3.95505401 7.97888194,4.24320023 7.97888194,4.60315394 C7.97888194,4.96310764 7.68527083,5.25226659 7.32350694,5.25226659 Z M13.6349306,5.25226659 C13.2731667,5.25226659 12.9795556,4.96305941 12.9795556,4.60315394 C12.9795556,4.24324846 13.2731667,3.95505401 13.6349306,3.95505401 C13.9977153,3.95505401 14.2892361,4.24320023 14.2892361,4.60315394 C14.2892361,4.96305941 13.9977153,5.25226659 13.6349306,5.25226659 Z" id="Shape"></path>
                    <path d="M19.4870278,7.94343171 L19.4262153,7.94343171 C18.6198542,7.94343171 17.9602986,8.5977527 17.9602986,9.39564043 L17.9602986,15.718316 C17.9602986,16.5193383 18.6209236,17.1715374 19.4262153,17.1715374 L19.4880972,17.1715374 C20.2954792,17.1715374 20.9519236,16.5172164 20.9519236,15.718316 L20.9519236,9.39559221 C20.9519236,8.5977527 20.2933889,7.94343171 19.4870278,7.94343171 Z" id="Shape"></path>
                </g>
            </g>
        </g>
    </g>
</svg>