<?xml version="1.0" encoding="UTF-8"?>
<svg width="29px" height="29px" viewBox="0 0 29 29" version="1.1" xmlns="http://www.w3.org/2000/svg" xmlns:xlink="http://www.w3.org/1999/xlink">
    <!-- Generator: Sketch 52.2 (67145) - http://www.bohemiancoding.com/sketch -->
    <title>003-guitar</title>
    <desc>Created with Sketch.</desc>
    <g id="PROMOTER_Events" stroke="none" stroke-width="1" fill="none" fill-rule="evenodd">
        <g id="PROMOTER-Events-09-Events-List-Hold" transform="translate(-32.000000, -329.000000)" fill="#FF22B2" fill-rule="nonzero">
            <g id="side-menu" transform="translate(0.000000, 80.000000)">
                <g id="4" transform="translate(29.000000, 249.000000)">
                    <g id="003-guitar" transform="translate(3.000000, 0.000000)">
                        <path d="M0.79982759,10.0141067 C1.01997373,10.1200867 1.269104,10.1736298 1.53571318,10.1736298 C1.68837739,10.1736298 1.84679414,10.1561508 2.00897217,10.1207504 C2.98270415,9.9083481 3.53185274,9.16007231 3.34467314,8.30094912 C3.34467314,8.30072783 3.34467314,8.30072783 3.34467314,8.30072783 L2.27359009,3.39025117 L6.77696231,2.40789033 L7.57081601,6.04705049 C7.31726074,5.99903867 7.03184512,6.00567627 6.72408296,6.07271577 C5.72866821,6.2897644 5.18438721,7.00772856 5.37001802,7.85888672 C5.52644345,8.57618711 6.11762998,9.00939941 6.87519834,9.00939941 C7.02498628,9.00939941 7.18163301,8.99236299 7.34248349,8.95740508 C8.31621553,8.74500273 8.86558536,7.99650577 8.67818452,7.13738252 C8.67818452,7.13738252 8.67818452,7.13738252 8.67818452,7.13716123 L7.25088501,0.59339902 C7.16238403,0.187179594 6.75948335,-0.0712432578 6.35282134,0.017478957 L1.66337588,1.04032901 C1.46668242,1.08325195 1.29853056,1.20007324 1.18967436,1.36933135 C1.08059692,1.53881074 1.04431152,1.74059297 1.08723447,1.93728638 L2.23730469,7.21061709 C1.98374942,7.16260527 1.6981125,7.16902158 1.39057158,7.23606108 C0.945632906,7.33319092 0.580566406,7.53165434 0.335197463,7.80976865 C0.04402925,8.13987735 -0.0621719219,8.57043457 0.0365066387,9.02223203 C0.134521484,9.47159575 0.405555711,9.82382964 0.79982759,10.0141067 Z M7.16127779,8.12726592 C6.96812442,8.16930391 6.32737735,8.2617874 6.20015718,7.67790225 C6.08753964,7.1619415 6.59354399,6.97077939 6.90528867,6.90285493 C7.00994112,6.88006592 7.12233736,6.86413574 7.23185733,6.86413574 C7.51041411,6.86413574 7.77127075,6.96657564 7.84804536,7.31814575 L7.84804536,7.31836699 C7.97548677,7.90203096 7.35465239,8.08500674 7.16127779,8.12726592 Z M6.44110107,0.867752047 L6.59597778,1.57775117 L2.09260556,2.56011201 L1.93772891,1.85033418 L6.44110107,0.867752047 Z M0.972404494,8.37197114 C1.09564209,8.23236084 1.30848691,8.12372588 1.57177734,8.06620024 C1.67642973,8.04341123 1.78882597,8.02748105 1.89834595,8.02748105 C2.17690279,8.02748105 2.43775937,8.13014218 2.51453398,8.48149112 L2.51453398,8.48171236 C2.64175415,9.06559756 2.02114107,9.24857329 1.8277664,9.29061128 C1.57398984,9.34592436 1.33990479,9.33110049 1.16865537,9.24857329 C1.00824736,9.1713562 0.909347563,9.03794096 0.866645799,8.84124756 C0.824829102,8.65008545 0.858459473,8.50096133 0.972404494,8.37197114 Z" id="Shape"></path>
                        <path d="M28.9356155,21.2539521 C28.8544159,21.0694275 28.7061768,20.9278259 28.5185547,20.8548126 L24.0441666,19.1162109 C23.656311,18.965538 23.2186737,19.1584702 23.0680008,19.5461044 L21.1123505,24.5802612 C20.9247284,24.3955154 20.682457,24.2419663 20.3939438,24.1297913 C19.9693604,23.9649582 19.5556183,23.9286728 19.1971894,24.0249176 C18.7721634,24.1390839 18.4460373,24.4395447 18.2785492,24.8705444 C18.1119461,25.2993316 18.143364,25.7427216 18.3668289,26.1188507 C18.5630798,26.4491806 18.8911972,26.7111435 19.3157807,26.8759766 C19.5713272,26.9753189 19.8222275,27.0228882 20.0587463,27.0228882 C20.6822357,27.0228882 21.2037277,26.6912308 21.4347153,26.0969467 L23.2547378,21.4121475 L27.5510178,23.0814972 L26.2007141,26.5571518 C26.013092,26.3726272 25.7710419,26.2190781 25.4823074,26.1069031 C24.5326919,25.737854 23.6824189,26.0356598 23.3669128,26.8476563 C23.2003098,27.2764435 23.2317276,27.7196121 23.4554138,28.0959625 C23.6516647,28.4262924 23.9797821,28.6880341 24.4041443,28.8530884 C24.6596909,28.9522095 24.9108124,29 25.1473313,29 C25.7708206,29 26.2923126,28.6681213 26.5230789,28.0738373 L28.9484482,21.8309784 C29.0212402,21.6431351 29.0168152,21.4382553 28.9356155,21.2539521 Z M19.6233215,26.0838928 C19.3810501,25.9898605 19.1940918,25.848259 19.0971832,25.6849747 C19.0062485,25.5316467 18.9973984,25.3659287 19.0704117,25.1783066 C19.1412124,24.9957733 19.2516174,24.8902359 19.417778,24.8455429 C19.4759674,24.829834 19.5403519,24.8220901 19.6091614,24.8220901 C19.7527542,24.8220901 19.916481,24.8557205 20.0861816,24.921875 C20.3342056,25.0181198 20.5231552,25.1555176 20.618515,25.3088455 C20.707016,25.4511108 20.7145386,25.603775 20.6426315,25.7891846 C20.4262466,26.346077 19.8078461,26.1555786 19.6233215,26.0838928 Z M23.5622788,20.6200638 L23.8253479,19.9428101 L28.1218491,21.6121597 L27.8587799,22.2894135 L23.5622788,20.6200638 Z M24.7116852,28.0610046 C24.4694138,27.9669724 24.2826767,27.8251495 24.1857681,27.6618652 C24.0946121,27.5087585 24.0859833,27.3430405 24.1587753,27.1554184 C24.2658615,26.8799591 24.4780426,26.7963257 24.6964187,26.7963257 C24.8681106,26.7963257 25.0437851,26.8480987 25.1745453,26.8989868 C25.4225693,26.9952316 25.6115188,27.1326294 25.7068787,27.2859573 C25.7953796,27.4282227 25.8029022,27.5808868 25.7309952,27.7660751 C25.5146103,28.3231888 24.8962097,28.1326904 24.7116852,28.0610046 Z" id="Shape"></path>
                        <path d="M12.4762039,27.0571823 C9.86409761,28.9555283 5.88885498,28.3344727 3.2291794,25.6126251 C1.67797852,24.0251389 0.810890184,21.9418259 0.850936918,19.8970108 C0.88279727,18.2630615 1.50318906,16.7928391 2.5977249,15.7569351 C3.37719727,15.0201645 4.37128447,14.5232315 5.47267915,14.3196792 C6.96923067,14.043335 8.29431152,13.3207245 9.3045502,12.2301712 C9.4640732,12.0580368 9.45389555,11.7892151 9.28176118,11.6299133 C9.10962676,11.470169 8.84102632,11.4805679 8.68150332,11.6527023 C7.79627226,12.6080704 6.63359073,13.2412949 5.31846621,13.48423 C4.05555722,13.7174301 2.91300967,14.2898102 2.01383975,15.1396408 C0.752479539,16.333519 0.0378341816,18.0170288 0.00154876992,19.8804169 C-0.0429229453,22.1515732 0.91222383,24.4572449 2.62162016,26.2064667 C4.40933989,28.0360031 6.74598691,29 8.96691895,29 C10.4136887,29 11.8117828,28.5904617 12.9755707,27.7446137 C13.1654053,27.6067734 13.2074433,27.3410492 13.069603,27.1512146 C12.9315415,26.96138 12.6658173,26.919342 12.4762039,27.0571823 Z" id="Shape"></path>
                        <path d="M19.8122711,18.5150681 C20.7001572,17.6269607 21.1245193,16.4828644 21.0388946,15.2062378 C20.9711914,14.1931228 20.5866547,13.1167297 19.9244461,12.0744095 L22.6354522,9.36340332 C22.8013916,9.19746396 22.8013916,8.92842099 22.6356735,8.76270293 C22.4697342,8.59676362 22.2006912,8.59676362 22.0349731,8.76270293 L14.5181427,16.2793121 C14.3564072,15.8784027 14.1145782,15.5102387 13.799736,15.1953964 C13.4848938,14.8805542 13.116951,14.638504 12.7160416,14.4769897 L21.5639267,5.62844087 L23.3664703,7.43098447 L23.316246,7.48120879 C23.1503067,7.64692685 23.1503067,7.91596982 23.316246,8.08190918 C23.3992157,8.16487886 23.5078506,8.20625302 23.6167068,8.20625302 C23.7253418,8.20625302 23.834198,8.16487886 23.9169464,8.08190918 L24.0244751,7.97460176 C24.0919571,7.99584199 24.1625366,8.00712588 24.2342224,8.00712588 C24.2415237,8.00712588 24.2488251,8.00690459 24.2561264,8.00668335 C24.4497223,8.00070952 24.6340256,7.91375732 24.7619095,7.76839448 L25.212822,7.25641631 L25.6962585,7.73985293 C25.7792282,7.82282256 25.8880844,7.86441802 25.9967193,7.86441802 C26.1053543,7.86441802 26.2142105,7.82282256 26.2971802,7.73985293 C26.4631195,7.57391357 26.4631195,7.30509184 26.2971802,7.13915254 L25.7754669,6.61743926 L26.4850235,5.81163789 L26.9899216,6.31653594 C27.0728912,6.39950562 27.1817475,6.44087984 27.2903824,6.44087984 C27.3990173,6.44087984 27.5078735,6.39950562 27.5908432,6.31653594 C27.7567825,6.15059663 27.7567825,5.88155366 27.5908432,5.7156143 L27.0476685,5.17266084 L27.751915,4.37305449 L28.1176453,4.73900606 C28.2006149,4.82197568 28.3094711,4.8633499 28.4181061,4.8633499 C28.526741,4.8633499 28.6355972,4.82197568 28.7185669,4.73900606 C28.8845063,4.5730667 28.8845063,4.30402373 28.7185669,4.13808443 L28.3143387,3.73407744 L28.8241043,3.15528105 C29.0688095,2.87738799 29.0555344,2.45457461 28.7937927,2.19261172 L26.807167,0.205986037 C26.5452041,-0.0559768535 26.1223907,-0.069252 25.8444977,0.175453172 L25.26548,0.685440035 L24.8610306,0.281211867 C24.6950913,0.115493746 24.4260483,0.115493746 24.2603302,0.281433105 C24.0943909,0.447372465 24.0946121,0.716415434 24.2605515,0.882354736 L24.626503,1.24808501 L23.8271179,1.95188907 L23.2790756,1.40406796 C23.1133575,1.23812866 22.8443145,1.23812866 22.6783752,1.40406796 C22.5124359,1.56978609 22.5124359,1.83882905 22.6783752,2.00476836 L23.1883621,2.51453398 L22.3823394,3.22431181 L21.8608475,2.70281982 C21.6951294,2.53688046 21.4260864,2.53688046 21.2601471,2.70281982 C21.0942078,2.86875918 21.0942078,3.13780215 21.2601471,3.30352022 L21.7435837,3.78695679 L21.2313843,4.23786923 C21.0862427,4.36575317 20.9995117,4.55005644 20.9933167,4.74365234 C20.9908829,4.81998442 21.001503,4.89565279 21.0231857,4.96778105 L16.9253692,9.0658188 C14.5371704,7.53121187 12.1321563,7.52214053 10.5884781,9.06604004 C10.1911087,9.46252441 9.88688663,9.84971621 9.65833281,10.2495193 C9.54173282,10.4532929 9.6125336,10.712822 9.81608584,10.8292007 C9.88268281,10.8672562 9.95503232,10.8853989 10.0267182,10.8853989 C10.1740723,10.8853989 10.3174438,10.808403 10.3957672,10.6712265 C10.5864868,10.3380203 10.8455734,10.0096817 11.1889572,9.66696167 C12.8775559,7.9781418 15.1909714,9.00984189 16.3078537,9.68333438 L11.7400971,14.2513123 C11.6595611,14.2453384 11.5785828,14.2413559 11.4969406,14.2413559 C10.6271973,14.2413559 9.809227,14.5800934 9.19414522,15.1953964 C8.57884219,15.8104782 8.24010469,16.6284485 8.24010469,17.4984131 C8.24010469,18.3683777 8.57884219,19.1863479 9.19414522,19.8014297 C9.809227,20.4165115 10.6271973,20.7554703 11.4969406,20.7554703 C12.3669052,20.7554703 13.1848755,20.4165115 13.7999573,19.8014297 C14.4150391,19.1863479 14.7537766,18.3683777 14.7537766,17.4984131 C14.7537766,17.4167709 14.749794,17.3357925 14.7438202,17.2552566 L19.3062668,12.6928101 C19.9726792,13.8156662 20.9780502,16.1478882 19.2113495,17.9145889 C18.9332352,18.193367 18.6155166,18.4314346 18.2672653,18.6221543 C16.3357315,19.6786347 15.0579986,21.4174576 14.6697006,23.5182495 C14.5079651,24.3952942 14.1698914,25.1882629 13.6645508,25.8754731 C13.5256042,26.0646438 13.5660935,26.3305893 13.755043,26.4695358 C13.8309326,26.5252915 13.9189911,26.552063 14.0063858,26.552063 C14.1369248,26.552063 14.2656937,26.4921036 14.3488846,26.3788223 C14.9309998,25.5871811 15.3199615,24.6767273 15.5051499,23.6724624 C15.8460999,21.8278809 16.9718323,20.2990265 18.6750336,19.3673325 C19.0943069,19.1376724 19.4770737,18.8509292 19.8122711,18.5150681 Z M26.303154,0.903594971 L28.0959625,2.69640352 L24.2269211,7.09025577 L21.9097442,4.77263643 L26.303154,0.903594971 Z M13.1990356,19.2005081 C12.7443619,19.6551819 12.1399002,19.9056396 11.4969406,19.9056396 C10.853981,19.9056396 10.2495193,19.6551819 9.79484561,19.2005081 C9.34017183,18.7458344 9.08971406,18.1413727 9.08971406,17.4984131 C9.08971406,16.8552322 9.34017183,16.2507706 9.79484561,15.7960968 C10.2492981,15.341423 10.853981,15.0909653 11.4969406,15.0909653 C12.1399002,15.0909653 12.7443619,15.341423 13.1990356,15.7960968 C13.6534882,16.2507706 13.9039459,16.8552322 13.9039459,17.4984131 C13.9039459,18.1413727 13.6537094,18.7458344 13.1990356,19.2005081 Z" id="Shape"></path>
                        <path d="M3.61393741,18.9642105 C3.04067232,19.5374756 3.04067232,20.4704971 3.61393741,21.0437622 L7.95159151,25.3816376 C8.23833467,25.6681595 8.6149063,25.8115311 8.99125674,25.8115311 C9.36782837,25.8115311 9.7444,25.6681595 10.0311432,25.3814163 C10.6044082,24.8081513 10.6044082,23.875351 10.0311432,23.3018647 L5.69348906,18.9639893 C5.41581729,18.6863174 5.04654692,18.533432 4.65382382,18.533432 C4.26110078,18.533432 3.89183047,18.6865387 3.61393741,18.9642105 Z M9.43022159,23.9027862 C9.67227173,24.1448364 9.67227173,24.5386658 9.43022159,24.7807159 C9.18839263,25.0227661 8.79456328,25.0229874 8.5522919,24.7807159 L4.21485898,20.4430618 C3.97280884,20.2010117 3.97280884,19.806961 4.21485898,19.5649109 C4.33190156,19.4478684 4.48788452,19.3830414 4.65382382,19.3830414 C4.81954195,19.3830414 4.9755249,19.4476471 5.09278867,19.5649109 L9.43022159,23.9027862 Z" id="Shape"></path>
                        <path d="M21.3532944,8.96824649 C21.4619293,8.96824649 21.5707856,8.92687227 21.6537552,8.84390259 C21.8194732,8.67796329 21.8194732,8.40892032 21.6537552,8.2432022 L20.7475052,7.33673096 C20.5815659,7.17101289 20.3125229,7.17101289 20.1465835,7.33673096 C19.9806442,7.50267032 19.9806442,7.77171329 20.1465835,7.93765259 L21.0528335,8.84390259 C21.1358032,8.92687227 21.2446594,8.96824649 21.3532944,8.96824649 Z" id="Shape"></path>
                        <path d="M20.0976868,10.2238541 C20.206543,10.2238541 20.3151779,10.1824799 20.3981476,10.0995102 C20.5640869,9.93357085 20.5640869,9.66452788 20.3981476,9.49880981 L19.4918976,8.59233858 C19.3259583,8.42662051 19.0571365,8.42662051 18.8911972,8.59233858 C18.7252579,8.75827788 18.7252579,9.02732085 18.8911972,9.19326021 L19.7974472,10.0995102 C19.8804169,10.1824799 19.9890518,10.2238541 20.0976868,10.2238541 Z" id="Shape"></path>
                        <path d="M18.8423004,11.4794617 C18.9509353,11.4794617 19.0595703,11.4380874 19.14254,11.3551178 C19.3084793,11.1891785 19.3084793,10.9201355 19.14254,10.7541962 L18.23629,9.8479462 C18.0703506,9.68200684 17.8015289,9.68200684 17.6355896,9.8479462 C17.4696503,10.0138855 17.4696503,10.2829285 17.6355896,10.4486465 L18.5418396,11.3551178 C18.6248093,11.4380874 18.7334442,11.4794617 18.8423004,11.4794617 Z" id="Shape"></path>
                        <path d="M17.5866928,12.7350693 C17.6953277,12.7350693 17.804184,12.6936951 17.8871536,12.6107254 C18.053093,12.4447861 18.053093,12.1757431 17.8871536,12.0098038 L16.9809036,11.1035538 C16.8149643,10.9376145 16.5459213,10.9376145 16.3802032,11.1035538 C16.2142639,11.2694931 16.2142639,11.5385361 16.3802032,11.7042542 L17.2864532,12.6107254 C17.3694229,12.6936951 17.4780579,12.7350693 17.5866928,12.7350693 Z" id="Shape"></path>
                        <path d="M15.1245957,12.3591614 C14.9586563,12.5251007 14.9586563,12.7941436 15.1245957,12.960083 L16.0308457,13.866333 C16.1138153,13.9493027 16.2224502,13.9906769 16.3313064,13.9906769 C16.4399414,13.9906769 16.5485764,13.9493027 16.631546,13.866333 C16.7974854,13.7003936 16.7974854,13.4313507 16.631546,13.2654114 L15.725296,12.3591614 C15.5593567,12.1932221 15.290535,12.1932221 15.1245957,12.3591614 Z" id="Shape"></path>
                        <path d="M23.6543198,4.3354416 C23.4883804,4.16950224 23.2195587,4.16950224 23.0536194,4.3354416 C22.8876801,4.50138091 22.8876801,4.77020264 23.0536194,4.936142 C23.2195587,5.1020813 23.4883804,5.1020813 23.6543198,4.936142 C23.8202591,4.77020264 23.8202591,4.50138091 23.6543198,4.3354416 Z" id="Shape"></path>
                        <path d="M24.6731873,5.34545898 C24.507248,5.17951963 24.238205,5.17951963 24.0722656,5.34545898 C23.9065476,5.51117705 23.9065476,5.78022002 24.0722656,5.94615938 C24.238205,6.11209868 24.507248,6.11209868 24.6731873,5.94615938 C24.8389053,5.78022002 24.8389053,5.51117705 24.6731873,5.34545898 Z" id="Shape"></path>
                        <path d="M24.9291763,3.05859375 C24.763237,2.89265439 24.494194,2.89265439 24.328476,3.05859375 C24.1625366,3.22453311 24.1625366,3.49357608 24.328476,3.65929414 C24.494194,3.82523345 24.763237,3.82523345 24.9291763,3.65929414 C25.0951157,3.49357608 25.0951157,3.22453311 24.9291763,3.05859375 Z" id="Shape"></path>
                        <path d="M25.9487076,4.06971738 C25.7827683,3.90377808 25.5137253,3.90377808 25.3480072,4.06971738 C25.1820679,4.23565674 25.1820679,4.50469971 25.3480072,4.67041777 C25.5137253,4.83635713 25.7827683,4.83635713 25.9487076,4.67041777 C26.1146469,4.50469971 26.1146469,4.23565674 25.9487076,4.06971738 Z" id="Shape"></path>
                        <path d="M26.2046967,1.78307344 C26.0387573,1.61713408 25.7699356,1.61713408 25.6039963,1.78307344 C25.4380569,1.94901274 25.4380569,2.21783447 25.6039963,2.38377383 C25.7699356,2.54971313 26.0387573,2.54971313 26.2046967,2.38377383 C26.370636,2.21783447 26.370636,1.94901274 26.2046967,1.78307344 Z" id="Shape"></path>
                        <path d="M27.2240066,2.79397583 C27.0580673,2.62803653 26.7890244,2.62803653 26.6233062,2.79397583 C26.4573669,2.95969389 26.4573669,3.22873686 26.6233062,3.39467622 C26.7890244,3.56061553 27.0580673,3.56061553 27.2240066,3.39467622 C27.389946,3.22873686 27.389946,2.95969389 27.2240066,2.79397583 Z" id="Shape"></path>
                    </g>
                </g>
            </g>
        </g>
    </g>
</svg>
