<?xml version="1.0" encoding="UTF-8"?>
<svg width="25px" height="25px" viewBox="0 0 25 25" version="1.1" xmlns="http://www.w3.org/2000/svg" xmlns:xlink="http://www.w3.org/1999/xlink">
    <!-- Generator: Sketch 52.2 (67145) - http://www.bohemiancoding.com/sketch -->
    <title>add-photo</title>
    <desc>Created with Sketch.</desc>
    <g id="PROMOTER_Events" stroke="none" stroke-width="1" fill="none" fill-rule="evenodd">
        <g id="PROMOTER-Events-05-Events-external-event" transform="translate(-1009.000000, -618.000000)" fill="#FFFFFF">
            <g id="form-content" transform="translate(355.000000, 134.000000)">
                <g id="add-photo-icon" transform="translate(436.000000, 461.000000)">
                    <g id="add-photo" transform="translate(218.000000, 23.000000)">
                        <path d="M3.99959688,22 L12.9998222,22 C13.552561,22 13.9998472,21.5314236 13.9998472,20.9523752 C13.9998472,20.3733268 13.552561,19.9047504 12.9998222,19.9047504 L3.99959688,19.9047504 C2.89506923,19.9047504 1.99954681,18.9666024 1.99954681,17.8095009 L1.99954681,8.38087779 C1.99954681,7.22377621 2.89506923,6.28562821 3.99959688,6.28562821 L5.99964695,6.28562821 C6.37855643,6.28562821 6.72524011,6.06157532 6.89419434,5.7065798 L8.34150557,2.67422986 L8.3424831,2.67422986 C8.51143233,2.32023745 8.85714598,2.09620289 9.23508044,2.09518145 L12.7644188,2.09518145 C13.1423533,2.09620551 13.4880619,2.3202584 13.6570161,2.67422986 L15.1043274,5.7065798 L15.1053024,5.7065798 C15.2742516,6.06159365 15.6209403,6.28562821 15.9998498,6.28562821 L17.9998999,6.28562821 C18.5301881,6.28562821 19.0389759,6.50661157 19.4139853,6.89948396 C19.7889946,7.29235635 19.9999499,7.82537474 19.9999499,8.38087779 L19.9999499,13.6190017 C19.9999499,14.1980501 20.4472361,14.6666265 20.999975,14.6666265 C21.5527138,14.6666265 22,14.1980501 22,13.6190017 L22,8.38087779 C22,7.26981932 21.5781144,6.20378253 20.8280957,5.41819489 C20.0780769,4.63260726 19.0604764,4.1905096 18.0000249,4.1905096 L16.6171902,4.1905096 L15.447236,1.73616044 C14.9423483,0.670123647 13.9012973,-0.00305384959 12.7646688,1.04529063e-05 L9.23533045,1.04529063e-05 C8.09857699,-0.00305908772 7.05755093,0.670123647 6.55276329,1.73616044 L5.382809,4.1905096 L3.99997439,4.1905096 C2.93939784,4.1905096 1.92179811,4.6324763 1.17190434,5.41819489 C0.422010565,6.20391348 0,7.26995027 0,8.38087779 L0,17.8095009 C0,18.9205593 0.421885562,19.9865961 1.17190434,20.7721838 C1.92192311,21.5577714 2.93952284,21.999869 3.99997439,21.999869 L3.99959688,22 Z" id="Fill-1"></path>
                        <path d="M11.5,7 C10.0412367,7 8.64253215,7.57900092 7.61130277,8.61130277 C6.57900092,9.64253215 6,11.0411267 6,12.5 C6,13.9588733 6.57900092,15.3574679 7.61130277,16.3886972 C8.64253215,17.4209991 10.0411267,18 11.5,18 C12.9588733,18 14.3574679,17.4209991 15.3886972,16.3886972 C16.4209991,15.3574679 17,13.9588733 17,12.5 C17,11.0411267 16.4209991,9.64253215 15.3886972,8.61130277 C14.3574679,7.57900092 12.9588733,7 11.5,7 Z M11.5,15.799824 C10.1647642,15.799824 8.96166327,14.9963176 8.45141097,13.7631597 C7.9400862,12.5299744 8.2226073,11.1099028 9.16683666,10.1667817 C10.1099853,9.22256055 11.5300844,8.9400587 12.7632147,9.45135597 C13.9964001,9.96160827 14.799879,11.1647092 14.799879,12.499945 C14.799879,14.322856 13.322856,15.799879 11.499945,15.799879 L11.5,15.799824 Z" id="Fill-2"></path>
                        <path d="M23.875,19.375 L21.625,19.375 L21.625,17.125 C21.625,16.5031844 21.1218156,16 20.5,16 C19.8781844,16 19.375,16.5031844 19.375,17.125 L19.375,19.375 L17.125,19.375 C16.5031844,19.375 16,19.8781844 16,20.5 C16,21.1218156 16.5031844,21.625 17.125,21.625 L19.375,21.625 L19.375,23.875 C19.375,24.4968156 19.8781844,25 20.5,25 C21.1218156,25 21.625,24.4968156 21.625,23.875 L21.625,21.625 L23.875,21.625 C24.4968156,21.625 25,21.1218156 25,20.5 C25,19.8781844 24.4968156,19.375 23.875,19.375 Z" id="Fill-3"></path>
                    </g>
                </g>
            </g>
        </g>
    </g>
</svg>