<?xml version="1.0" encoding="UTF-8"?>
<svg width="38px" height="36px" viewBox="0 0 38 36" version="1.1" xmlns="http://www.w3.org/2000/svg" xmlns:xlink="http://www.w3.org/1999/xlink">
    <!-- Generator: Sketch 52.3 (67297) - http://www.bohemiancoding.com/sketch -->
    <title>001-money</title>
    <desc>Created with Sketch.</desc>
    <g id="PROMOTER_Box-Office" stroke="none" stroke-width="1" fill="none" fill-rule="evenodd">
        <g id="PROMOTER_Box_Office_Checkout_Cach_Due" transform="translate(-362.000000, -255.000000)" fill="#FFFFFF">
            <g id="Group-7" transform="translate(289.000000, 27.000000)">
                <g id="001-money" transform="translate(73.000000, 228.000000)">
                    <path d="M31.5676552,11.8720086 C31.5672672,11.8720086 31.5668017,11.8720086 31.5664138,11.8720086 L0.531931034,11.8720086 C0.2385,11.8716983 0.000310344828,12.1092672 4.59473234e-16,12.4026983 C4.59473234e-16,12.4030862 4.59473234e-16,12.4035517 4.59473234e-16,12.4039397 L4.59473234e-16,27.3004914 C-0.000310344828,27.5939224 0.237258621,27.8321121 0.530689655,27.8324224 C0.531077586,27.8324224 0.531543103,27.8324224 0.531931034,27.8324224 L21.6353793,27.8324224 C21.9291207,27.8324224 22.1673103,27.5942328 22.1673103,27.3004914 C22.1673103,27.00675 21.9291207,26.7685603 21.6353793,26.7685603 L1.06386207,26.7685603 L1.06386207,12.9358707 L31.0344828,12.9358707 L31.0344828,14.2660086 C31.0341724,14.5594397 31.2717414,14.7976293 31.5651724,14.7979397 C31.5655603,14.7979397 31.5660259,14.7979397 31.5664138,14.7979397 C31.8598448,14.79825 32.0980345,14.560681 32.0983448,14.26725 C32.0983448,14.2668621 32.0983448,14.2663966 32.0983448,14.2660086 L32.0983448,12.4039397 C32.0986552,12.1105086 31.8610862,11.8723966 31.5676552,11.8720086 Z" id="Path"></path>
                    <path d="M27.9589655,9.40228448 L3.13137931,3.81607759 C2.99358621,3.78527586 2.84919828,3.81025862 2.7297931,3.88559483 C2.6105431,3.96155172 2.5262069,4.08157759 2.49517241,4.21952586 L1.2537931,9.80573276 C1.19001724,10.0926466 1.37094828,10.3769224 1.65786207,10.4406983 C1.94477586,10.5044741 2.22905172,10.3235431 2.29282759,10.0366293 L3.41813793,4.97118103 L27.7255862,10.4400776 C27.764069,10.449 27.8034052,10.4534224 27.8428966,10.4531121 C28.1366379,10.452569 28.3743621,10.2139914 28.3738966,9.92025 C28.373431,9.67189655 28.2011897,9.45698276 27.9589655,9.40228448 Z" id="Path"></path>
                    <path d="M24.9442759,6.32428448 L10.0477241,0.117387931 C9.78881897,0.00946551724 9.4905,0.120336207 9.36496552,0.37125 L8.12358621,2.85400862 C7.98338793,3.11330172 8.07990517,3.43722414 8.33927586,3.57742241 C8.59856897,3.71762069 8.92249138,3.62110345 9.06268966,3.36173276 C9.06819828,3.35156897 9.07339655,3.34117241 9.0782069,3.33062069 L9.0782069,3.33186207 L10.0967586,1.29351724 L24.5333793,7.30862069 C24.8052414,7.42205172 25.1176034,7.29372414 25.2310345,7.02186207 C25.3444655,6.75015517 25.2161379,6.4377931 24.9442759,6.32428448 Z" id="Path"></path>
                    <path d="M25.3204138,14.3547672 L20.394,14.3547672 C20.1002586,14.3547672 19.862069,14.5929569 19.862069,14.8866983 C19.862069,15.1804397 20.1002586,15.4186293 20.394,15.4186293 L25.3204138,15.4186293 C25.6141552,15.4186293 25.8523448,15.1804397 25.8523448,14.8866983 C25.8523448,14.5929569 25.6141552,14.3547672 25.3204138,14.3547672 Z" id="Path"></path>
                    <path d="M15.4284828,14.3901466 C12.4118534,14.3901466 9.96641379,16.8355862 9.96641379,19.8522155 C9.96951724,22.8675259 12.4131724,25.311181 15.4284828,25.3142845 C18.4451121,25.3142845 20.8905517,22.8688448 20.8905517,19.8522155 C20.8905517,16.8355862 18.4451121,14.3901466 15.4284828,14.3901466 Z M15.4284828,24.321181 C12.9603103,24.321181 10.9595172,22.3203879 10.9595172,19.8522155 C10.9622328,17.3852069 12.9614741,15.3859655 15.4284828,15.38325 C17.8966552,15.38325 19.8974483,17.3840431 19.8974483,19.8522155 C19.8974483,22.3203879 17.8966552,24.321181 15.4284828,24.321181 Z" id="Shape" fill-rule="nonzero"></path>
                    <path d="M30.3250345,16.1280776 C27.0353793,16.1280776 23.4974483,16.905181 23.4974483,18.6108362 L23.4974483,33.5073879 C23.4974483,35.2130431 27.0353793,35.9901466 30.3250345,35.9901466 C33.6146897,35.9901466 37.1526207,35.2130431 37.1526207,33.5073879 L37.1526207,18.6108362 C37.1526207,16.905181 33.6146897,16.1280776 30.3250345,16.1280776 Z M35.9112414,33.4980776 C35.8175172,33.8425603 33.956069,34.7487672 30.3250345,34.7487672 C26.694,34.7487672 24.8325517,33.8425603 24.7388276,33.5073879 L24.7388276,32.5316638 C26.0596552,33.1970431 28.2413793,33.5073879 30.3250345,33.5073879 C32.4086897,33.5073879 34.5910345,33.1939397 35.9112414,32.5310431 L35.9112414,33.4980776 Z M35.9112414,31.015319 C35.8175172,31.3598017 33.956069,32.2660086 30.3250345,32.2660086 C26.694,32.2660086 24.8325517,31.3598017 24.7388276,31.0246293 L24.7388276,30.0489052 C26.0596552,30.7142845 28.2413793,31.0246293 30.3250345,31.0246293 C32.4086897,31.0246293 34.5910345,30.711181 35.9112414,30.0482845 L35.9112414,31.015319 Z M35.9112414,28.5325603 C35.8175172,28.8770431 33.956069,29.78325 30.3250345,29.78325 C26.694,29.78325 24.8325517,28.8770431 24.7388276,28.5418707 L24.7388276,27.5661466 C26.0596552,28.2315259 28.2413793,28.5418707 30.3250345,28.5418707 C32.4086897,28.5418707 34.5910345,28.2284224 35.9112414,27.5655259 L35.9112414,28.5325603 Z M35.9112414,26.0498017 C35.8175172,26.3942845 33.956069,27.3004914 30.3250345,27.3004914 C26.694,27.3004914 24.8325517,26.3942845 24.7388276,26.0591121 L24.7388276,25.0833879 C26.0596552,25.7487672 28.2413793,26.0591121 30.3250345,26.0591121 C32.4086897,26.0591121 34.5910345,25.7456638 35.9112414,25.0827672 L35.9112414,26.0498017 Z M35.9112414,23.5670431 C35.8175172,23.9115259 33.956069,24.8177328 30.3250345,24.8177328 C26.694,24.8177328 24.8325517,23.9115259 24.7388276,23.5763534 L24.7388276,22.6006293 C26.0596552,23.2629052 28.2413793,23.5763534 30.3250345,23.5763534 C32.4086897,23.5763534 34.5910345,23.2629052 35.9112414,22.6000086 L35.9112414,23.5670431 Z M35.9112414,21.0842845 C35.8175172,21.4287672 33.956069,22.3349741 30.3250345,22.3349741 C26.694,22.3349741 24.8325517,21.4287672 24.7388276,21.0935948 L24.7388276,20.1178707 C26.0596552,20.7801466 28.2413793,21.0935948 30.3250345,21.0935948 C32.4086897,21.0935948 34.5910345,20.7801466 35.9112414,20.11725 L35.9112414,21.0842845 Z M30.3250345,19.8522155 C26.6995862,19.8522155 24.8387586,18.9484914 24.7388276,18.6220086 L24.7388276,18.6182845 C24.8387586,18.2725603 26.6995862,17.3694569 30.3250345,17.3694569 C33.9250345,17.3694569 35.7871034,18.2595259 35.9112414,18.6108362 C35.7871034,18.9621466 33.9250345,19.8522155 30.3250345,19.8522155 Z" id="Shape" fill-rule="nonzero"></path>
                    <path d="M10.4629655,24.285181 L5.77117241,24.285181 L3.54662069,21.8520776 L3.54662069,17.8175948 L6.00331034,15.4186293 L10.4629655,15.4186293 C10.7567069,15.4186293 10.9948966,15.1804397 10.9948966,14.8866983 C10.9948966,14.5929569 10.7567069,14.3547672 10.4629655,14.3547672 L5.78731034,14.3547672 C5.64827586,14.3544569 5.51459483,14.4086121 5.41489655,14.5055948 L2.64227586,17.2099397 C2.53869828,17.3309741 2.48190517,17.4851379 2.48213793,17.6444224 L2.48213793,22.0587672 C2.48213793,22.1915172 2.53171552,22.3194569 2.62117241,22.4175259 L5.14303448,25.1758707 C5.24381897,25.2861983 5.38642241,25.3491207 5.53593103,25.3490431 L10.4629655,25.3490431 C10.7567069,25.3490431 10.9948966,25.1108534 10.9948966,24.8171121 C10.9948966,24.5233707 10.7567845,24.285181 10.4629655,24.285181 Z" id="Path"></path>
                    <path d="M15.7388276,19.2315259 L15.1181379,19.2315259 C14.9251034,19.2315259 14.8077931,19.1235259 14.8077931,19.0763534 C14.8077931,19.029181 14.9251034,18.921181 15.1181379,18.921181 L16.6698621,18.921181 C17.0126379,18.921181 17.2905517,18.6432672 17.2905517,18.3004914 C17.2905517,17.9577155 17.0126379,17.6798017 16.6698621,17.6798017 L16.0491724,17.6798017 C16.0491724,17.3370259 15.7712586,17.0591121 15.4284828,17.0591121 C15.0857069,17.0591121 14.8077931,17.3370259 14.8077931,17.6798017 L14.8077931,17.7077328 C14.1193707,17.8049483 13.5978362,18.3786983 13.5664138,19.07325 C13.6108707,19.8870517 14.3040259,20.512319 15.1181379,20.4729052 L15.7388276,20.4729052 C15.9318621,20.4729052 16.0491724,20.5809052 16.0491724,20.6280776 C16.0491724,20.67525 15.9318621,20.78325 15.7388276,20.78325 L14.1871034,20.78325 C13.8443276,20.78325 13.5664138,21.0611638 13.5664138,21.4039397 C13.5664138,21.7467155 13.8443276,22.0246293 14.1871034,22.0246293 L14.8077931,22.0246293 C14.8077931,22.3674052 15.0857069,22.645319 15.4284828,22.645319 C15.7712586,22.645319 16.0491724,22.3674052 16.0491724,22.0246293 L16.0491724,21.9966983 C16.7375948,21.8994828 17.2591293,21.3257328 17.2905517,20.631181 C17.2460948,19.8173793 16.5529397,19.1921121 15.7388276,19.2315259 Z" id="Path"></path>
                </g>
            </g>
        </g>
    </g>
</svg>