<?xml version="1.0" encoding="UTF-8"?>
<svg width="26px" height="30px" viewBox="0 0 26 30" version="1.1" xmlns="http://www.w3.org/2000/svg" xmlns:xlink="http://www.w3.org/1999/xlink">
    <!-- Generator: Sketch 52.3 (67297) - http://www.bohemiancoding.com/sketch -->
    <title>smartphone</title>
    <desc>Created with Sketch.</desc>
    <g id="PROMOTER_Box-Office" stroke="none" stroke-width="1" fill="none" fill-rule="evenodd">
        <g id="PROMOTER_Box_Office_Checkout_completed" transform="translate(-349.000000, -359.000000)" fill="#9DA3B4">
            <g id="Group-8" transform="translate(242.000000, 85.000000)">
                <g id="smartphone" transform="translate(107.000000, 274.000000)">
                    <path d="M8,24.5 C6.897,24.5 6,25.397 6,26.5 C6,27.603 6.897,28.5 8,28.5 C9.103,28.5 10,27.603 10,26.5 C10,25.397 9.103,24.5 8,24.5 Z M8,27.5 C7.4485,27.5 7,27.0515 7,26.5 C7,25.9485 7.4485,25.5 8,25.5 C8.5515,25.5 9,25.9485 9,26.5 C9,27.0515 8.5515,27.5 8,27.5 Z" id="Shape" fill-rule="nonzero"></path>
                    <path d="M6.5,2.5 L8.5,2.5 C8.776,2.5 9,2.2765 9,2 C9,1.7235 8.776,1.5 8.5,1.5 L6.5,1.5 C6.224,1.5 6,1.7235 6,2 C6,2.2765 6.224,2.5 6.5,2.5 Z" id="Path"></path>
                    <path d="M10,2.5 L10.5,2.5 C10.776,2.5 11,2.2765 11,2 C11,1.7235 10.776,1.5 10.5,1.5 L10,1.5 C9.724,1.5 9.5,1.7235 9.5,2 C9.5,2.2765 9.724,2.5 10,2.5 Z" id="Path"></path>
                    <path d="M26,6 L17,6 L17,2.2025 C17,0.9885 16.012,0 14.7975,0 L2.2025,0 C0.988,0 0,0.9885 0,2.2025 L0,27.797 C0,29.0115 0.988,30 2.2025,30 L14.797,30 C16.012,30 17,29.0115 17,27.7975 L17,16.5 L26,16.5 L26,6 Z M2.2025,1 L14.797,1 C15.4605,1 16,1.5395 16,2.2025 L16,3 L1,3 L1,2.2025 C1,1.5395 1.5395,1 2.2025,1 Z M14.7975,29 L2.2025,29 C1.5395,29 1,28.4605 1,27.7975 L1,24 L16,24 L16,27.7975 C16,28.4605 15.4605,29 14.7975,29 Z M16,23 L1,23 L1,4 L16,4 L16,6 L7,6 L7,16.5 L9,16.5 L9,20 L13.6665,16.5 L16,16.5 L16,23 Z M25,15.5 L17,15.5 L13.3335,15.5 L10,18 L10,15.5 L8,15.5 L8,7 L17,7 L25,7 L25,15.5 Z" id="Shape" fill-rule="nonzero"></path>
                    <path d="M10.5,10.5 L15.5,10.5 C15.776,10.5 16,10.2765 16,10 C16,9.7235 15.776,9.5 15.5,9.5 L10.5,9.5 C10.224,9.5 10,9.7235 10,10 C10,10.2765 10.224,10.5 10.5,10.5 Z" id="Path"></path>
                    <path d="M10,12.5 C10,12.7765 10.224,13 10.5,13 L22.5,13 C22.776,13 23,12.7765 23,12.5 C23,12.2235 22.776,12 22.5,12 L10.5,12 C10.224,12 10,12.2235 10,12.5 Z" id="Path"></path>
                </g>
            </g>
        </g>
    </g>
</svg>