<?xml version="1.0" encoding="UTF-8"?>
<svg width="24px" height="25px" viewBox="0 0 24 25" version="1.1" xmlns="http://www.w3.org/2000/svg" xmlns:xlink="http://www.w3.org/1999/xlink">
    <!-- Generator: Sketch 52.2 (67145) - http://www.bohemiancoding.com/sketch -->
    <title>008-bar-chart</title>
    <desc>Created with Sketch.</desc>
    <g id="FAN_My-account" stroke="none" stroke-width="1" fill="none" fill-rule="evenodd">
        <g id="FAN-My-account-03-Fan-hub-organisation" transform="translate(-30.000000, -498.000000)" fill="#FFFFFF" fill-rule="nonzero">
            <g id="side-menu" transform="translate(-1.000000, 81.000000)">
                <g id="008-bar-chart">
                    <g transform="translate(31.000000, 417.000000)">
                        <path d="M23.4764938,24.0234375 L22.3933827,24.0234375 L22.3933827,8.4734375 C22.3933827,7.7496582 21.7978272,7.16083984 21.0658765,7.16083984 L18.6449383,7.16083984 C17.9129383,7.16083984 17.3174321,7.74970703 17.3174321,8.4734375 L17.3174321,24.0234375 L14.5672099,24.0234375 L14.5672099,15.5187988 C14.5672099,14.7950195 13.9717037,14.2062012 13.2397037,14.2062012 L10.8187654,14.2062012 C10.0867654,14.2062012 9.49125926,14.7950684 9.49125926,15.5187988 L9.49125926,24.0234375 L6.74103704,24.0234375 L6.74103704,19.6189453 C6.74103704,18.895166 6.14548148,18.3063477 5.41353086,18.3063477 L2.99254321,18.3063477 C2.26054321,18.3063477 1.66503704,18.8952148 1.66503704,19.6189453 L1.66503704,24.0234375 L0.523506173,24.0234375 C0.250765432,24.0234375 0.0296790123,24.242041 0.0296790123,24.5117188 C0.0296790123,24.7813965 0.250765432,25 0.523506173,25 L23.4764938,25 C23.7492346,25 23.970321,24.7813965 23.970321,24.5117188 C23.970321,24.242041 23.7492346,24.0234375 23.4764938,24.0234375 Z M5.75328395,24.0234375 L2.65264198,24.0234375 L2.65264198,19.6189453 C2.65264198,19.4336426 2.80508642,19.2829102 2.99249383,19.2829102 L5.4134321,19.2829102 C5.60083951,19.2829102 5.75328395,19.4336426 5.75328395,19.6189453 L5.75328395,24.0234375 Z M13.5795062,24.0234375 L10.4788642,24.0234375 L10.4788642,15.5187988 C10.4788642,15.3334961 10.6313086,15.1827637 10.818716,15.1827637 L13.2396543,15.1827637 C13.4270123,15.1827637 13.5795062,15.3334961 13.5795062,15.5187988 L13.5795062,24.0234375 Z M21.4057284,24.0234375 L18.3050864,24.0234375 L18.3050864,8.4734375 C18.3050864,8.28813477 18.4575309,8.13740234 18.6449383,8.13740234 L21.0658765,8.13740234 C21.253284,8.13740234 21.4057284,8.28813477 21.4057284,8.4734375 L21.4057284,24.0234375 Z" id="Shape"></path>
                        <path d="M22.3921975,0.513476562 C22.3991111,0.380224609 22.3517037,0.244726562 22.2487901,0.14296875 C22.1458765,0.0412109375 22.0088395,-0.00571289062 21.8740741,0.001171875 C21.8661235,0.000830078125 21.8582716,0 21.8501728,0 L18.8625185,0 C18.5897778,0 18.3686914,0.218603516 18.3686914,0.48828125 C18.3686914,0.757958984 18.5897778,0.9765625 18.8625185,0.9765625 L20.7073086,0.9765625 L15.8254815,5.80361328 L13.9844938,3.98330078 C13.8919012,3.89174805 13.7662716,3.8402832 13.6353086,3.8402832 C13.5043457,3.8402832 13.378716,3.89174805 13.2861235,3.98330078 L4.40864198,12.7611328 C4.21580247,12.9518066 4.21580247,13.2609863 4.40864198,13.451709 C4.50508642,13.5469727 4.63145679,13.5946289 4.75782716,13.5946289 C4.88419753,13.5946289 5.01061728,13.5469727 5.10701235,13.4516113 L13.6353086,5.01904297 L15.4762963,6.83935547 C15.6691358,7.0300293 15.9818272,7.0300293 16.174716,6.83935547 L21.4057284,1.66713867 L21.4057284,3.31801758 C21.4057284,3.58769531 21.6268148,3.80629883 21.8995556,3.80629883 C22.1722963,3.80629883 22.3933827,3.58769531 22.3933827,3.31801758 L22.3933827,0.537109375 C22.3933827,0.529150391 22.3925432,0.521386719 22.3921975,0.513476562 Z" id="Shape"></path>
                        <ellipse id="Oval" cx="3.09333333" cy="14.8100586" rx="1" ry="1"></ellipse>
                    </g>
                </g>
            </g>
        </g>
    </g>
</svg>
