<?xml version="1.0" encoding="UTF-8"?>
<svg width="141px" height="141px" viewBox="0 0 141 141" version="1.1" xmlns="http://www.w3.org/2000/svg" xmlns:xlink="http://www.w3.org/1999/xlink">
    <!-- Generator: Sketch 52.3 (67297) - http://www.bohemiancoding.com/sketch -->
    <title>verified</title>
    <desc>Created with Sketch.</desc>
    <defs>
        <linearGradient x1="94.6430556%" y1="-3.46543296%" x2="-2.71388889%" y2="82.3178538%" id="linearGradient-1">
            <stop stop-color="#E53D96" offset="0%"></stop>
            <stop stop-color="#5491CC" offset="100%"></stop>
        </linearGradient>
    </defs>
    <g id="PROMOTER_Box-Office" stroke="none" stroke-width="1" fill="none" fill-rule="evenodd">
        <g id="PROMOTER_Box_Office_Guest_List_Checkin_Success" transform="translate(-443.000000, -306.000000)" fill="url(#linearGradient-1)">
            <g id="Group-4" transform="translate(291.000000, 188.000000)">
                <g id="verified" transform="translate(152.000000, 118.000000)">
                    <path d="M120.350936,20.6487891 C107.035248,7.33337695 89.3312109,0 70.5,0 C51.6685137,0 33.9642012,7.33337695 20.6487891,20.6487891 C7.33310156,33.9644766 0,51.6687891 0,70.5 C0,89.3312109 7.33310156,107.035248 20.6487891,120.350936 C33.9644766,133.666623 51.6685137,141 70.5,141 C89.3312109,141 107.035248,133.666623 120.350936,120.350936 C133.666623,107.035248 141,89.3312109 141,70.5 C141,51.6687891 133.666623,33.964752 120.350936,20.6487891 Z M70.5,132.738281 C36.1816465,132.738281 8.26171875,104.818354 8.26171875,70.5 C8.26171875,36.1816465 36.1816465,8.26171875 70.5,8.26171875 C104.818354,8.26171875 132.738281,36.1816465 132.738281,70.5 C132.738281,104.818354 104.818354,132.738281 70.5,132.738281 Z" id="Shape" fill-rule="nonzero"></path>
                    <path d="M103.786316,48.2181052 C102.168348,46.5939187 99.5445702,46.5939187 97.9266016,48.2183825 L61.3354289,84.9564482 L42.0736746,65.6173689 C40.455706,63.9929051 37.8319284,63.9929051 36.2136836,65.6173689 C34.5954388,67.2418327 34.5954388,69.8761433 36.2136836,71.5008844 L58.4052952,93.7815828 C59.2144176,94.5939534 60.2749232,95 61.3351526,95 C62.395382,95 63.4561638,94.593676 64.26501,93.7815828 L103.786316,54.1016207 C105.404561,52.4771569 105.404561,49.8428463 103.786316,48.2181052 Z" id="Path"></path>
                </g>
            </g>
        </g>
    </g>
</svg>