<?xml version="1.0" encoding="UTF-8"?>
<svg width="18px" height="18px" viewBox="0 0 18 18" version="1.1" xmlns="http://www.w3.org/2000/svg" xmlns:xlink="http://www.w3.org/1999/xlink">
    <!-- Generator: Sketch 52.6 (67491) - http://www.bohemiancoding.com/sketch -->
    <title>Fill 1</title>
    <desc>Created with Sketch.</desc>
    <g id="Mobile_FAN_Checkout" stroke="none" stroke-width="1" fill="none" fill-rule="evenodd">
        <g id="Mobile_Checkout_confirmation_v1" transform="translate(-20.000000, -31.000000)" fill="#FFFFFF">
            <path d="M37.6142857,31.3857143 C37.1,30.8714286 36.3285714,30.8714286 35.8142857,31.3857143 L29,38.2 L22.1857143,31.3857143 C21.6714286,30.8714286 20.9,30.8714286 20.3857143,31.3857143 C19.8714286,31.9 19.8714286,32.6714286 20.3857143,33.1857143 L27.2,40 L20.3857143,46.8142857 C19.8714286,47.3285714 19.8714286,48.1 20.3857143,48.6142857 C20.6428571,48.8714286 20.9,49 21.2857143,49 C21.6714286,49 21.9285714,48.8714286 22.1857143,48.6142857 L29,41.8 L35.8142857,48.6142857 C36.0714286,48.8714286 36.4571429,49 36.7142857,49 C36.9714286,49 37.3571429,48.8714286 37.6142857,48.6142857 C38.1285714,48.1 38.1285714,47.3285714 37.6142857,46.8142857 L30.8,40 L37.6142857,33.1857143 C38.1285714,32.6714286 38.1285714,31.9 37.6142857,31.3857143 Z" id="Fill-1"></path>
        </g>
    </g>
</svg>