<?xml version="1.0" encoding="UTF-8"?>
<svg width="36px" height="33px" viewBox="0 0 36 33" version="1.1" xmlns="http://www.w3.org/2000/svg" xmlns:xlink="http://www.w3.org/1999/xlink">
    <!-- Generator: Sketch 52.5 (67469) - http://www.bohemiancoding.com/sketch -->
    <title>duplicate</title>
    <desc>Created with Sketch.</desc>
    <g id="PROMOTER_Events" stroke="none" stroke-width="1" fill="none" fill-rule="evenodd">
        <g id="PROMOTER-Events-Import-Settings-2" transform="translate(-703.000000, -405.000000)" fill="#FFFFFF" fill-rule="nonzero">
            <g id="modal" transform="translate(451.000000, 385.000000)">
                <g id="duplicate" transform="translate(252.000000, 20.000000)">
                    <path d="M32.5666504,6.14646491 L29.3854167,6.14646491 L29.3854167,3.27547489 C29.3854167,1.46917919 27.9251648,0 26.1298448,0 L3.25557183,0 C1.46025189,0 0,1.46917919 0,3.27547489 L0,22.8183352 C0,24.6243559 1.46025189,26.0935351 3.25557183,26.0935351 L6.43680556,26.0935351 L6.43680556,28.9645251 C6.43680556,30.7708208 7.89705744,32.24 9.69237739,32.24 L24.5132643,32.24 C24.8997132,32.24 25.2129171,31.9248813 25.2129171,31.5360699 C25.2129171,31.1472584 24.8997132,30.8321397 24.5132643,30.8321397 L9.69237739,30.8321397 C8.66886192,30.8321397 7.83611111,29.9942979 7.83611111,28.9648001 L7.83611111,9.42166485 C7.83611111,8.39216703 8.66886192,7.55432517 9.69237739,7.55432517 L32.5666504,7.55432517 C33.5901659,7.55432517 34.4229167,8.39189208 34.4229167,9.42166485 L34.4229167,28.9648001 C34.4229167,29.9942979 33.5901659,30.8321397 32.5666504,30.8321397 L30.6447917,30.8321397 C30.2583428,30.8321397 29.9451389,31.1472584 29.9451389,31.5360699 C29.9451389,31.9248813 30.2583428,32.24 30.6447917,32.24 L32.5666504,32.24 C34.3619703,32.24 35.8222222,30.7708208 35.8222222,28.9648001 L35.8222222,9.42166485 C35.8222222,7.6156441 34.3619703,6.14646491 32.5666504,6.14646491 Z M6.43680556,9.42166485 L6.43680556,24.6856748 L3.25557183,24.6856748 C2.23205636,24.6856748 1.39930556,23.8481079 1.39930556,22.8183352 L1.39930556,3.27547489 C1.39930556,2.24570212 2.23205636,1.40786026 3.25557183,1.40786026 L26.1298448,1.40786026 C27.1533603,1.40786026 27.9861111,2.24570212 27.9861111,3.27547489 L27.9861111,6.14646491 L9.69237739,6.14646491 C7.89705744,6.14646491 6.43680556,7.6156441 6.43680556,9.42166485 Z" id="Shape"></path>
                    <path d="M27.4963542,30.8321397 C27.312422,30.8321397 27.1317694,30.9074822 27.0016778,31.0383693 C26.8715861,31.1692562 26.7967014,31.3510133 26.7967014,31.5360699 C26.7967014,31.7211265 26.8715861,31.9028835 27.0016778,32.0337704 C27.1317694,32.1646575 27.312422,32.24 27.4963542,32.24 C27.6802863,32.24 27.8609389,32.1646575 27.9910305,32.0337704 C28.1211223,31.9028835 28.1960069,31.7211265 28.1960069,31.5360699 C28.1960069,31.3510133 28.1211223,31.1692562 27.9910305,31.0383693 C27.8609389,30.9074822 27.6802863,30.8321397 27.4963542,30.8321397 Z" id="Shape"></path>
                    <path d="M4.05798611,8.48373292 C3.67153724,8.48373292 3.35833333,8.79885168 3.35833333,9.18766306 L3.35833333,16.0509818 C3.35833333,16.4397933 3.67153724,16.754912 4.05798611,16.754912 C4.44443499,16.754912 4.75763889,16.4397933 4.75763889,16.0509818 L4.75763889,9.18766306 C4.75763889,8.79885168 4.44443499,8.48373292 4.05798611,8.48373292 Z" id="Shape"></path>
                    <path d="M4.05798611,5.60119402 C3.87405397,5.60119402 3.69340139,5.67653657 3.56330977,5.80742358 C3.43321801,5.93831059 3.35833333,6.12006753 3.35833333,6.30512415 C3.35833333,6.49100577 3.43321801,6.67193777 3.56330977,6.80337476 C3.69340139,6.93453673 3.87405397,7.00905428 4.05798611,7.00905428 C4.24191825,7.00905428 4.42257084,6.93453673 4.55266245,6.80337476 C4.68275421,6.67193777 4.75763889,6.49018083 4.75763889,6.30512415 C4.75763889,6.12006753 4.68275421,5.93913553 4.55266245,5.80742358 C4.42257084,5.67653657 4.24191825,5.60119402 4.05798611,5.60119402 Z" id="Shape"></path>
                </g>
            </g>
        </g>
    </g>
</svg>