<?xml version="1.0" encoding="UTF-8"?>
<svg width="37px" height="30px" viewBox="0 0 37 30" version="1.1" xmlns="http://www.w3.org/2000/svg" xmlns:xlink="http://www.w3.org/1999/xlink">
    <!-- Generator: Sketch 52.3 (67297) - http://www.bohemiancoding.com/sketch -->
    <title>002-credit-card</title>
    <desc>Created with Sketch.</desc>
    <g id="PROMOTER_Box-Office" stroke="none" stroke-width="1" fill="none" fill-rule="evenodd">
        <g id="PROMOTER_Box_Office_Checkout_Cach_Due" transform="translate(-543.000000, -257.000000)" fill="#9DA3B4">
            <g id="Group-7" transform="translate(289.000000, 27.000000)">
                <g id="002-credit-card" transform="translate(254.000000, 230.000000)">
                    <path d="M19.5513365,20.7742482 L29.326969,20.7742482 C29.6935561,20.7742482 29.9379236,20.5298807 29.9379236,20.1632936 L29.9379236,14.6644869 C29.9379236,14.2978998 29.6935561,14.0535322 29.326969,14.0535322 L19.5513365,14.0535322 C19.1847494,14.0535322 18.9403819,14.2978998 18.9403819,14.6644869 L18.9403819,20.1632936 C18.9403103,20.5298091 19.1847494,20.7742482 19.5513365,20.7742482 Z M20.1622912,15.2754415 L28.7160143,15.2754415 L28.7160143,19.5522673 L20.1622912,19.5522673 L20.1622912,15.2754415 Z" id="Shape" fill-rule="nonzero"></path>
                    <path d="M3.05491647,12.8314797 L7.9427685,12.8314797 C8.30935561,12.8314797 8.55372315,12.5871122 8.55372315,12.2205251 C8.55372315,11.8539379 8.30935561,11.6095704 7.9427685,11.6095704 L3.05491647,11.6095704 C2.68832936,11.6095704 2.44396181,11.8539379 2.44396181,12.2205251 C2.44396181,12.5871122 2.68832936,12.8314797 3.05491647,12.8314797 Z" id="Path"></path>
                    <path d="M10.3866587,12.8314797 L15.2745107,12.8314797 C15.6410979,12.8314797 15.8854654,12.5871122 15.8854654,12.2205251 C15.8854654,11.8539379 15.6410979,11.6095704 15.2745107,11.6095704 L10.3866587,11.6095704 C10.0200716,11.6095704 9.77570406,11.8539379 9.77570406,12.2205251 C9.77570406,12.5871122 10.0200716,12.8314797 10.3866587,12.8314797 Z" id="Path"></path>
                    <path d="M3.05491647,15.2754415 L10.9976134,15.2754415 C11.3642005,15.2754415 11.608568,15.031074 11.608568,14.6644869 C11.608568,14.2978998 11.3642005,14.0535322 10.9976134,14.0535322 L3.05491647,14.0535322 C2.68832936,14.0535322 2.44396181,14.2978998 2.44396181,14.6644869 C2.44396181,15.031074 2.68832936,15.2754415 3.05491647,15.2754415 Z" id="Path"></path>
                    <path d="M15.2744391,14.0534606 L13.4415036,14.0534606 C13.0749165,14.0534606 12.8305489,14.2978282 12.8305489,14.6644153 C12.8305489,15.0310024 13.0749165,15.2753699 13.4415036,15.2753699 L15.2744391,15.2753699 C15.6410263,15.2753699 15.8853938,15.0310024 15.8853938,14.6644153 C15.8853938,14.2978282 15.6410263,14.0534606 15.2744391,14.0534606 Z" id="Path"></path>
                    <path d="M36.1088305,6.47735084 C35.6811695,5.92747017 35.1312888,5.62195704 34.4591885,5.56088305 L32.9928401,5.38317422 L32.9928401,3.66680191 L32.9928401,2.4448926 C32.9928401,1.10076372 31.8930788,0.00100238663 30.5489499,0.00100238663 L2.44389021,0.00100238663 C1.09976134,0.000930787589 0,1.10069212 0,2.4448926 L0,3.66687351 L0,8.55472554 L0,21.9962291 C0,23.0997852 0.741551313,24.0380907 1.75081146,24.3388067 C1.72002387,25.5747494 2.655179,26.6477327 3.91031026,26.7618616 L32.1375179,29.938926 C32.1985919,29.938926 32.3208115,29.938926 32.3818854,29.938926 C33.6038663,29.938926 34.7036277,29.0224582 34.8257757,27.8616229 L36.6587112,8.24921241 C36.7197852,7.63818616 36.5364916,6.96608592 36.1088305,6.47735084 Z M1.22198091,4.27782816 L31.7709308,4.27782816 L31.7709308,5.86639618 L31.7709308,7.94369928 L1.22198091,7.94369928 L1.22198091,4.27782816 Z M2.44389021,1.22291169 L30.5488783,1.22291169 C31.2209785,1.22291169 31.7708592,1.77279236 31.7708592,2.4448926 L31.7708592,3.05584726 L1.22198091,3.05584726 L1.22198091,2.4448926 C1.22198091,1.77279236 1.77186158,1.22291169 2.44389021,1.22291169 Z M1.22198091,21.9961575 L1.22198091,9.16560859 L31.7709308,9.16560859 L31.7709308,21.9961575 C31.7709308,22.6682578 31.2210501,23.2181384 30.5489499,23.2181384 L2.5050358,23.2181384 L2.44396181,23.2181384 C1.77186158,23.2181384 1.22198091,22.6682578 1.22198091,21.9961575 Z M35.4367303,8.00477327 L33.6037947,27.6171838 C33.5427208,28.289284 32.9316945,28.7780191 32.2596659,28.7169451 L4.09353222,25.5398807 C3.48257757,25.4788067 3.05484487,24.99 2.99377088,24.4401193 L30.5488783,24.4401193 C31.8930072,24.4401193 32.9927685,23.340358 32.9927685,21.9962291 L32.9927685,8.55465394 L32.9927685,6.53842482 L34.398043,6.66064439 C34.7035561,6.66064439 35.0089976,6.84393795 35.1922912,7.08830549 C35.3756563,7.33267303 35.4978759,7.69926014 35.4367303,8.00477327 Z" id="Shape" fill-rule="nonzero"></path>
                </g>
            </g>
        </g>
    </g>
</svg>