<?xml version="1.0" encoding="UTF-8"?>
<svg width="22px" height="24px" viewBox="0 0 22 24" version="1.1" xmlns="http://www.w3.org/2000/svg" xmlns:xlink="http://www.w3.org/1999/xlink">
    <!-- Generator: Sketch 52.5 (67469) - http://www.bohemiancoding.com/sketch -->
    <title>017-pdf copy</title>
    <desc>Created with Sketch.</desc>
    <g id="ORG_Reports" stroke="none" stroke-width="1" fill="none" fill-rule="evenodd">
        <g id="PROMOTER-Events-07-Events-List-event-tickets-count-report" transform="translate(-1002.000000, -805.000000)" fill="#FF22B2">
            <g id="Group-2-Copy" transform="translate(1002.000000, 805.000000)">
                <g id="017-pdf-copy">
                    <path d="M21.8399545,6.36166208 L15.9109091,0.138567493 C15.8265,0.0500459137 15.7100455,0 15.5884091,0 L6.75159091,0 C5.76263636,0 4.95804545,0.812396694 4.95804545,1.81092746 L4.95804545,8.13732782 L1.37681818,8.13732782 C0.636909091,8.13732782 0.0349545455,8.74517906 0.0349545455,9.49237833 L0.0349545455,16.2758494 C0.0349545455,17.0230028 0.636909091,17.630854 1.37681818,17.630854 L4.95804545,17.630854 L4.95804545,21.7000459 C4.95804545,22.696832 5.76263636,23.5078053 6.75159091,23.5078053 L20.1715,23.5078053 C21.1604545,23.5078053 21.9650455,22.6972911 21.9650455,21.701056 L21.9650455,6.6751607 C21.9650455,6.55826446 21.9201818,6.44591368 21.8399545,6.36166208 Z M15.6993182,1.22043159 L20.5665455,6.32901745 L15.6993182,6.32901745 L15.6993182,1.22043159 Z M1.37681818,16.7267218 C1.13045455,16.7267218 0.930090909,16.524472 0.930090909,16.2758494 L0.930090909,9.49237833 C0.930090909,9.24375574 1.1305,9.04146006 1.37681818,9.04146006 L13.4623636,9.04146006 C13.7087273,9.04146006 13.9090909,9.24375574 13.9090909,9.49237833 L13.9090909,16.2758494 C13.9090909,16.524472 13.7086818,16.7267218 13.4623636,16.7267218 L1.37681818,16.7267218 Z M21.0699091,21.701056 C21.0699091,22.1987603 20.6668636,22.6036731 20.1714545,22.6036731 L6.75159091,22.6036731 C6.25618182,22.6036731 5.85313636,22.1983471 5.85313636,21.7000918 L5.85313636,17.630854 L13.4623636,17.630854 C14.2022727,17.630854 14.8042273,17.0230028 14.8042273,16.2758494 L14.8042273,9.49237833 C14.8042273,8.74517906 14.2022727,8.13732782 13.4623636,8.13732782 L5.85313636,8.13732782 L5.85313636,1.81092746 C5.85313636,1.31088154 6.25618182,0.904132231 6.75159091,0.904132231 L14.8041818,0.904132231 L14.8041818,6.78108356 C14.8041818,7.03076217 15.0045909,7.23314968 15.2517273,7.23314968 L21.0699091,7.23314968 L21.0699091,21.701056 Z" id="Shape" fill-rule="nonzero"></path>
                    <path d="M2.9,13.11 C2.9,13.83 3.41,14.34 4.01,14.34 C4.52,14.34 4.85,14.01 4.97,13.68 L5.72,13.68 C5.54,14.4 4.91,15.03 4.01,15.03 C3.02,15.03 2.18,14.19 2.18,13.11 C2.18,12.03 3.02,11.19 4.01,11.19 C4.88,11.19 5.51,11.82 5.69,12.54 L4.94,12.54 C4.85,12.21 4.52,11.88 4.01,11.88 C3.41,11.88 2.9,12.39 2.9,13.11 Z M6.11,12.276 C6.11,11.7 6.62,11.19 7.43,11.19 C8.18,11.19 8.69,11.7 8.69,12.39 L8,12.39 C8,12.06 7.79,11.85 7.43,11.85 C7.07,11.85 6.86,12.06 6.86,12.27 C6.86,12.93 8.81,12.57 8.81,13.95 C8.81,14.49 8.27,15.03 7.43,15.03 C6.59,15.03 6.08,14.52 6.08,13.8 L6.8,13.8 C6.8,14.13 7.04,14.37 7.43,14.37 C7.85,14.37 8.06,14.16 8.06,13.92 C8.06,13.23 6.11,13.59 6.11,12.276 Z M11.09,15 L10.37,15 L9.02,11.22 L9.77,11.22 L10.73,13.98 L11.69,11.22 L12.44,11.22 L11.09,15 Z" id="CSV"></path>
                </g>
            </g>
        </g>
    </g>
</svg>