<?xml version="1.0" encoding="UTF-8"?>
<svg width="12px" height="12px" viewBox="0 0 12 12" version="1.1" xmlns="http://www.w3.org/2000/svg" xmlns:xlink="http://www.w3.org/1999/xlink">
    <!-- Generator: Sketch 52.2 (67145) - http://www.bohemiancoding.com/sketch -->
    <title>Combined Shape</title>
    <desc>Created with Sketch.</desc>
    <g id="PROMOTER_Events" stroke="none" stroke-width="1" fill="none" fill-rule="evenodd">
        <g id="PROMOTER-Events-09-Events-List-Hold" transform="translate(-1145.000000, -691.000000)" fill="#FFFFFF" fill-rule="nonzero">
            <g id="list" transform="translate(261.000000, 571.000000)">
                <g id="2" transform="translate(0.000000, 94.000000)">
                    <path d="M891.5,30.5 L896,30.5 C896.552285,30.5 897,30.9477153 897,31.5 L897,32.5 C897,33.0522847 896.552285,33.5 896,33.5 L891.5,33.5 L891.5,38 C891.5,38.5522847 891.052285,39 890.5,39 L889.5,39 C888.947715,39 888.5,38.5522847 888.5,38 L888.5,33.5 L884,33.5 C883.447715,33.5 883,33.0522847 883,32.5 L883,31.5 C883,30.9477153 883.447715,30.5 884,30.5 L888.5,30.5 L888.5,26 C888.5,25.4477153 888.947715,25 889.5,25 L890.5,25 C891.052285,25 891.5,25.4477153 891.5,26 L891.5,30.5 Z" id="Combined-Shape" transform="translate(890.000000, 32.000000) rotate(45.000000) translate(-890.000000, -32.000000) "></path>
                </g>
            </g>
        </g>
    </g>
</svg>
