<?xml version="1.0" encoding="UTF-8"?>
<svg width="16px" height="16px" viewBox="0 0 16 16" version="1.1" xmlns="http://www.w3.org/2000/svg" xmlns:xlink="http://www.w3.org/1999/xlink">
    <!-- Generator: Sketch 52.2 (67145) - http://www.bohemiancoding.com/sketch -->
    <title>002-edit</title>
    <desc>Created with Sketch.</desc>
    <g id="PROMOTER_Events" stroke="none" stroke-width="1" fill="none" fill-rule="evenodd">
        <g id="PROMOTER-Events-09-Events-List-Hold" transform="translate(-1112.000000, -689.000000)" fill="#FFFFFF" fill-rule="nonzero">
            <g id="list" transform="translate(261.000000, 571.000000)">
                <g id="2" transform="translate(0.000000, 94.000000)">
                    <g id="002-edit" transform="translate(851.000000, 24.000000)">
                        <path d="M14.9423319,1.03499574 C13.5670128,-0.34372766 11.330417,-0.34372766 9.95509787,1.03499574 L0.811268085,10.1754213 C0.739778723,10.2469106 0.695523404,10.3388255 0.681906383,10.4375489 L0.00445957447,15.4554213 C-0.0159659574,15.5984 0.0350978723,15.7413787 0.133821277,15.8401021 C0.21892766,15.9252085 0.338076596,15.9762723 0.457225532,15.9762723 C0.477651064,15.9762723 0.498076596,15.9762723 0.518502128,15.9728681 L3.54148085,15.5643574 C3.79339574,15.5303149 3.97041702,15.2988255 3.93637447,15.0469106 C3.90233191,14.7949957 3.67084255,14.6179745 3.41892766,14.652017 L0.995097872,14.9788255 L1.46828936,11.4792511 L5.15169362,15.1626553 C5.2368,15.2477617 5.35594894,15.2988255 5.47509787,15.2988255 C5.59424681,15.2988255 5.71339574,15.251166 5.79850213,15.1626553 L14.9423319,6.02222979 C15.609566,5.35499574 15.9772255,4.46988936 15.9772255,3.52691064 C15.9772255,2.58393191 15.609566,1.69882553 14.9423319,1.03499574 Z M10.1321191,2.1584 L11.6674383,3.69371915 L3.32360851,12.0375489 L1.78828936,10.5022298 L10.1321191,2.1584 Z M5.47850213,14.1890383 L3.97722553,12.6877617 L12.3210553,4.34393191 L13.8223319,5.84520851 L5.47850213,14.1890383 Z M14.4623319,5.18818723 L10.7891404,1.51499574 C11.2555234,1.13031489 11.8376511,0.919251064 12.450417,0.919251064 C13.1482894,0.919251064 13.8019064,1.19159149 14.2955234,1.68180426 C14.7891404,2.17201702 15.0580766,2.8290383 15.0580766,3.52691064 C15.0580766,4.14308085 14.8470128,4.72180426 14.4623319,5.18818723 Z" id="Shape"></path>
                    </g>
                </g>
            </g>
        </g>
    </g>
</svg>
