<?xml version="1.0" encoding="UTF-8"?>
<svg width="20px" height="20px" viewBox="0 0 20 20" version="1.1" xmlns="http://www.w3.org/2000/svg" xmlns:xlink="http://www.w3.org/1999/xlink">
    <!-- Generator: Sketch 52.2 (67145) - http://www.bohemiancoding.com/sketch -->
    <title>Group</title>
    <desc>Created with Sketch.</desc>
    <g id="PROMOTER_Events" stroke="none" stroke-width="1" fill="none" fill-rule="evenodd">
        <g id="PROMOTER-Events-09-Events-List-Hold" transform="translate(-35.000000, -121.000000)" fill="#FFFFFF" fill-rule="nonzero" stroke="#FFFFFF" stroke-width="0.5">
            <g id="side-menu" transform="translate(0.000000, 80.000000)">
                <g id="1" transform="translate(27.000000, 41.000000)">
                    <g id="Group" transform="translate(8.000000, 0.000000)">
                        <path d="M17.9477778,2.05222222 L14.4922222,2.05222222 L14.4922222,0.67 C14.4922222,0.478888889 14.3377778,0.324444444 14.1466667,0.324444444 C13.9555556,0.324444444 13.8011111,0.478888889 13.8011111,0.67 L13.8011111,3.78 C13.8011111,3.97111111 13.9555556,4.12555556 14.1466667,4.12555556 C14.3377778,4.12555556 14.4922222,3.97111111 14.4922222,3.78 L14.4922222,2.74333333 L17.9477778,2.74333333 C18.52,2.74333333 18.9844444,3.20888889 18.9844444,3.78 L18.9844444,6.89 L1.01555556,6.89 L1.01555556,3.78 C1.01555556,3.20777778 1.48111111,2.74333333 2.05222222,2.74333333 L4.81666667,2.74333333 L4.81666667,2.05222222 L2.05222222,2.05222222 C1.1,2.05222222 0.324444444,2.82777778 0.324444444,3.78 L0.324444444,17.9477778 C0.324444444,18.9 1.1,19.6755556 2.05222222,19.6755556 L17.9488889,19.6755556 C18.9011111,19.6755556 19.6766667,18.9 19.6766667,17.9477778 L19.6766667,3.78 C19.6755556,2.82666667 18.9011111,2.05222222 17.9477778,2.05222222 Z M18.9844444,17.9477778 C18.9844444,18.52 18.5188889,18.9844444 17.9477778,18.9844444 L2.05222222,18.9844444 C1.48,18.9844444 1.01555556,18.5188889 1.01555556,17.9477778 L1.01555556,7.58111111 L18.9855556,7.58111111 L18.9855556,17.9477778 L18.9844444,17.9477778 Z" id="Shape"></path>
                        <path d="M5.85333333,4.12555556 C6.04444444,4.12555556 6.19888889,3.97111111 6.19888889,3.78 L6.19888889,2.74333333 L13.11,2.74333333 L13.11,2.05222222 L6.19888889,2.05222222 L6.19888889,0.67 C6.19888889,0.478888889 6.04444444,0.324444444 5.85333333,0.324444444 C5.66222222,0.324444444 5.50777778,0.478888889 5.50777778,0.67 L5.50777778,3.78 C5.50777778,3.97111111 5.66222222,4.12555556 5.85333333,4.12555556 Z" id="Shape"></path>
                    </g>
                </g>
            </g>
        </g>
    </g>
</svg>
