<?xml version="1.0" encoding="UTF-8"?>
<svg width="44px" height="44px" viewBox="0 0 44 44" version="1.1" xmlns="http://www.w3.org/2000/svg" xmlns:xlink="http://www.w3.org/1999/xlink">
    <!-- Generator: Sketch 52.2 (67145) - http://www.bohemiancoding.com/sketch -->
    <title>title-icon</title>
    <desc>Created with Sketch.</desc>
    <defs>
        <linearGradient x1="94.6430556%" y1="-3.46543296%" x2="-2.71388889%" y2="82.3178538%" id="linearGradient-1">
            <stop stop-color="#E53D96" offset="0%"></stop>
            <stop stop-color="#5491CC" offset="100%"></stop>
        </linearGradient>
    </defs>
    <g id="PROMOTER_Events" stroke="none" stroke-width="1" fill="none" fill-rule="evenodd">
        <g id="PROMOTER-Events-12-Events-List-Promo" transform="translate(-165.000000, -139.000000)" fill="url(#linearGradient-1)" fill-rule="nonzero">
            <g id="page-title" transform="translate(166.000000, 140.000000)">
                <g id="title-icon">
                    <path d="M38.2478039,3.75 L30.7482345,3.75 L30.7482345,0.75 C30.7482345,0.335209003 30.4130447,0 29.9982775,0 C29.5835104,0 29.2483206,0.335209003 29.2483206,0.75 L29.2483206,7.5 C29.2483206,7.914791 29.5835104,8.25 29.9982775,8.25 C30.4130447,8.25 30.7482345,7.914791 30.7482345,7.5 L30.7482345,5.25 L38.2478039,5.25 C39.489694,5.25 40.4976747,6.26045016 40.4976747,7.5 L40.4976747,14.25 L1.49991388,14.25 L1.49991388,7.5 C1.49991388,6.25803859 2.51030602,5.25 3.74978469,5.25 L9.7494402,5.25 L9.7494402,3.75 L3.74978469,3.75 C1.6831831,3.75 0,5.43327974 0,7.5 L0,38.25 C0,40.3167203 1.6831831,42 3.74978469,42 C11.4165471,42 17.1666188,42 21,42 C24.8333812,42 30.5834529,42 38.2502153,42 C40.3168169,42 42,40.3167203 42,38.25 C42,30.1388889 42,24.0555556 42,20 C42,17.2222222 42,13.0555556 42,7.5 C41.9975886,5.43086817 40.3168169,3.75 38.2478039,3.75 Z M38.2478039,40.5 C30.5821133,40.5 24.8328453,40.5 21,40.5 C17.1666188,40.5 11.4165471,40.5 3.74978469,40.5 C2.50789459,40.5 1.49991388,39.4895498 1.49991388,38.25 L1.49991388,15.75 L40.5000861,15.75 L40.5000861,20 L40.5000861,38.25 C40.4976747,39.4919614 39.4872825,40.5 38.2478039,40.5 Z M11.7727273,8 C11.3453669,8 11,7.67494885 11,7.27272727 L11,0.727272727 C11,0.325051155 11.3453669,0 11.7727273,0 C12.2000877,0 12.5454545,0.325051155 12.5454545,0.727272727 L12.5454545,3.63636364 L28,3.63636364 L28,5.09090909 L12.5454545,5.09090909 L12.5454545,7.27272727 C12.5454545,7.67494885 12.2000877,8 11.7727273,8 Z" id="Combined-Shape" stroke="url(#linearGradient-1)" stroke-width="0.5"></path>
                    <path d="M9,21 L33,21 L33,23 L9,23 L9,21 Z M9,27 L33,27 L33,29 L9,29 L9,27 Z M17,33 L33,33 L33,35 L17,35 L17,33 Z" id="Combined-Shape"></path>
                </g>
            </g>
        </g>
    </g>
</svg>