<?xml version="1.0" encoding="UTF-8"?>
<svg width="21px" height="24px" viewBox="0 0 21 24" version="1.1" xmlns="http://www.w3.org/2000/svg" xmlns:xlink="http://www.w3.org/1999/xlink">
    <!-- Generator: Sketch 52.6 (67491) - http://www.bohemiancoding.com/sketch -->
    <title>noun_935779_cc</title>
    <desc>Created with Sketch.</desc>
    <g id="Mobile_FAN_Event-detail-page-(EDP)" stroke="none" stroke-width="1" fill="none" fill-rule="evenodd">
        <g id="Mobile_EDP_Onsale-Copy-7" transform="translate(-20.000000, -841.000000)" stroke="#000000">
            <g id="description" transform="translate(20.000000, 832.000000)">
                <g id="noun_935779_cc" transform="translate(0.000000, 9.000000)">
                    <g id="Group" transform="translate(0.000000, 0.500000)">
                        <g id="Group-2" transform="translate(0.340667, 0.340667)">
                            <path d="M18.5045,1.81416667 L14.8761667,1.81416667 L14.8761667,0.362833333 C14.8761667,0.162166667 14.714,-2.84217094e-14 14.5133333,-2.84217094e-14 C14.3126667,-2.84217094e-14 14.1505,0.162166667 14.1505,0.362833333 L14.1505,3.62833333 C14.1505,3.829 14.3126667,3.99116667 14.5133333,3.99116667 C14.714,3.99116667 14.8761667,3.829 14.8761667,3.62833333 L14.8761667,2.53983333 L18.5045,2.53983333 C19.1053333,2.53983333 19.593,3.02866667 19.593,3.62833333 L19.593,6.89383333 L0.725666667,6.89383333 L0.725666667,3.62833333 C0.725666667,3.0275 1.2145,2.53983333 1.81416667,2.53983333 L4.71683333,2.53983333 L4.71683333,1.81416667 L1.81416667,1.81416667 C0.814333333,1.81416667 -1.70530257e-13,2.6285 -1.70530257e-13,3.62833333 L-1.70530257e-13,20.5045 C-1.70530257e-13,21.5043333 0.814333333,22.3186667 1.81416667,22.3186667 L18.5056667,22.3186667 C19.5055,22.3186667 20.3198333,21.5043333 20.3198333,20.5045 L20.3198333,3.62833333 C20.3186667,2.62733333 19.5055,1.81416667 18.5045,1.81416667 Z M18.5045,21.593 L1.81416667,21.593 C1.21333333,21.593 0.725666667,21.1041667 0.725666667,20.5045 L0.725666667,7.6195 L19.5941667,7.6195 L19.5941667,20.5045 C19.593,21.1053333 19.1041667,21.593 18.5045,21.593 Z" id="Shape" stroke-width="0.5" fill="#000000" fill-rule="nonzero"></path>
                            <path d="M5.80533333,3.99116667 C6.006,3.99116667 6.16816667,3.829 6.16816667,3.62833333 L6.16816667,2.53983333 L13.4248333,2.53983333 L13.4248333,1.81416667 L6.16816667,1.81416667 L6.16816667,0.362833333 C6.16816667,0.162166667 6.006,0 5.80533333,0 C5.60466667,0 5.4425,0.162166667 5.4425,0.362833333 L5.4425,3.62833333 C5.4425,3.829 5.60466667,3.99116667 5.80533333,3.99116667 Z" id="Shape" stroke-width="0.5" fill="#000000" fill-rule="nonzero"></path>
                            <path d="M4.65933333,10.6593333 L11.6593333,10.6593333" id="Line-2" stroke-width="1.25" stroke-linecap="round"></path>
                            <path d="M4.65933333,13.6593333 L16.6593333,13.6593333" id="Line-2-Copy" stroke-width="1.25" stroke-linecap="round"></path>
                            <path d="M4.65933333,16.6593333 L16.6593333,16.6593333" id="Line-2-Copy-2" stroke-width="1.25" stroke-linecap="round"></path>
                        </g>
                    </g>
                </g>
            </g>
        </g>
    </g>
</svg>