<?xml version="1.0" encoding="UTF-8"?>
<svg width="29px" height="21px" viewBox="0 0 29 21" version="1.1" xmlns="http://www.w3.org/2000/svg" xmlns:xlink="http://www.w3.org/1999/xlink">
    <!-- Generator: Sketch 52.2 (67145) - http://www.bohemiancoding.com/sketch -->
    <title>006-team</title>
    <desc>Created with Sketch.</desc>
    <g id="FAN_My-account" stroke="none" stroke-width="1" fill="none" fill-rule="evenodd">
        <g id="FAN-My-account-02-Fan-hub-personal" transform="translate(-28.000000, -351.000000)" fill="#FF22B2" fill-rule="nonzero">
            <g id="side-menu" transform="translate(-1.000000, 81.000000)">
                <g id="006-team">
                    <g transform="translate(29.000000, 270.000000)">
                        <path d="M25.5857031,9.45335106 C24.5989102,8.9668883 22.7487441,8.96124734 22.6704668,8.96124734 C22.4358613,8.96124734 22.2456621,9.14879521 22.2456621,9.38013032 C22.2456621,9.61146543 22.4358613,9.7990133 22.6704668,9.7990133 C23.1478906,9.79906915 24.5340566,9.87156383 25.2057578,10.2027048 C25.2667598,10.2328085 25.3315566,10.2469947 25.3953906,10.2469947 C25.551209,10.2469947 25.70125,10.1621011 25.7756758,10.0153803 C25.8806309,9.80845213 25.7955566,9.55684309 25.5857031,9.45335106 Z" id="Shape"></path>
                        <path d="M27.7036094,15.4171835 L25.949166,14.9229016 C25.8734375,14.9015665 25.8205352,14.8324229 25.8205352,14.754734 L25.8205352,14.1772899 C25.9632695,14.0797739 26.0994336,13.970641 26.2267051,13.8488298 C26.8435215,13.2585957 27.1831953,12.4669069 27.1831953,11.6195346 L27.1831953,10.8227074 L27.352834,10.4882154 C27.5390117,10.1209947 27.6373965,9.709875 27.6373965,9.29936968 L27.6373965,7.14072606 C27.6373965,6.90939096 27.4471973,6.72184309 27.2125918,6.72184309 L23.124668,6.72184309 C21.6381914,6.72184309 20.4288008,7.914375 20.4288008,9.38013032 L20.4288008,9.40509574 C20.4288008,9.74645745 20.5106465,10.0883218 20.6654453,10.3936037 L20.883002,10.8226516 L20.883002,11.5068271 C20.883002,12.5911197 21.4248828,13.5639894 22.2456621,14.1494202 L22.2457754,14.7546223 C22.2457754,14.8479495 22.2457754,14.8865984 21.895,14.9854548 L21.0389336,15.2266197 L18.5625488,14.3386995 C18.5714414,14.2234787 18.5320195,14.1063032 18.4467754,14.0180027 L17.6554492,13.1982207 L17.6554492,11.8220505 C17.7391074,11.7540798 17.8215762,11.684266 17.9014961,11.6104309 C18.8997871,10.6877713 19.4723105,9.38510106 19.4723105,8.03646543 L19.4723105,6.93742819 C19.773752,6.29061702 19.9265117,5.60616223 19.9265117,4.90126596 L19.9265117,0.422569149 C19.9265117,0.191234043 19.7363125,0.00368617021 19.501707,0.00368617021 L13.1427207,0.00368617021 C10.9048496,0.00368617021 9.08425,1.79896277 9.08425,4.00558245 L9.08425,4.90137766 C9.08425,5.60627394 9.23700977,6.29072872 9.53845117,6.93753989 L9.53845117,7.88315426 C9.53845117,9.44899468 10.2445332,10.8596809 11.3553125,11.7897128 L11.3553125,13.1982766 L10.5639863,14.0180585 C10.4787422,14.106359 10.4393203,14.2235346 10.4482129,14.3387553 L7.83453125,15.2758803 C7.645125,15.3437952 7.46914258,15.4357819 7.30935938,15.5472048 L6.89894141,15.3448564 C8.12067969,14.8204707 8.50770508,14.0829574 8.5262832,14.0463191 C8.5860957,13.9284176 8.5860957,13.7895718 8.5262832,13.6716702 C8.22002734,13.0676968 8.18292773,11.9606729 8.15313477,11.0711888 C8.14322266,10.7750665 8.13382031,10.4953085 8.11586523,10.2462128 C7.97103516,8.2370266 6.42202734,6.72184309 4.51267188,6.72184309 C2.60331641,6.72184309 1.05425195,8.23697074 0.909478516,10.2462128 C0.891523438,10.4953644 0.882121094,10.7751223 0.872208984,11.0713005 C0.842416016,11.9607287 0.805259766,13.067641 0.499060547,13.6716144 C0.439248047,13.789516 0.439248047,13.9283617 0.499060547,14.0462633 C0.517638672,14.0829016 0.903871094,14.8189069 2.12804492,15.3439069 L0.988039063,15.9059362 C0.378585938,16.2066383 0,16.8106676 0,17.4825 L0,20.5771516 C0,20.8084867 0.190199219,20.9960346 0.424804688,20.9960346 C0.659410156,20.9960346 0.849609375,20.8084867 0.849609375,20.5771516 L0.849609375,17.4825 C0.849609375,17.1299681 1.04824805,16.8130133 1.36798438,16.6553457 L2.78756836,15.9554761 L3.28136133,16.4182021 C3.62664258,16.7417473 4.06957227,16.9034362 4.51267188,16.9034362 C4.9556582,16.9034362 5.39881445,16.7416356 5.74398242,16.4182021 L6.23771875,15.9555319 L6.70058594,16.1837394 C6.48263281,16.5276144 6.35892969,16.930859 6.35892969,17.3532606 L6.35892969,20.5772633 C6.35892969,20.8085984 6.54912891,20.9961463 6.78373438,20.9961463 C7.01833984,20.9961463 7.20853906,20.8085984 7.20853906,20.5772633 L7.20853906,17.3532606 C7.20853906,16.7782181 7.57675977,16.2598085 8.12487109,16.0632686 L10.8805508,15.0752074 L12.0276934,16.7720186 C12.1743359,16.9889441 12.4093379,17.1280691 12.6724336,17.1537606 C12.7017734,17.156609 12.7309434,17.1580053 12.7600566,17.1580053 C12.9921699,17.1580053 13.2144844,17.0679176 13.380668,16.9041064 L14.0805195,16.2140106 L14.0805195,20.5773191 C14.0805195,20.8086543 14.2707188,20.9962021 14.5053242,20.9962021 C14.7399297,20.9962021 14.9301289,20.8086543 14.9301289,20.5773191 L14.9301289,16.2140106 L15.6299805,16.9041064 C15.7961074,17.0679734 16.0184219,17.1580612 16.2505918,17.1580612 C16.2796484,17.1580612 16.308875,17.1566649 16.3381582,17.1538165 C16.6013105,17.128125 16.8363125,16.989 16.9829551,16.7720745 L18.1301543,15.0753191 L20.8857773,16.0633803 C21.433832,16.2599202 21.8021094,16.7783298 21.8021094,17.3533723 L21.8021094,20.577375 C21.8021094,20.8087101 21.9923086,20.996258 22.2269141,20.996258 C22.4615195,20.996258 22.6517188,20.8087101 22.6517188,20.577375 L22.6517188,17.3533723 C22.6517188,16.7709574 22.4170566,16.224734 22.0234043,15.8207633 L22.1283594,15.7912181 C22.2342207,15.7613936 22.3786543,15.7205665 22.5236543,15.6504734 L23.6082656,16.7199654 L23.6082656,20.577375 C23.6082656,20.8087101 23.7984648,20.996258 24.0330703,20.996258 C24.2676758,20.996258 24.457875,20.8087101 24.457875,20.577375 L24.457875,16.7199654 L25.5349531,15.6579016 C25.5922168,15.686609 25.6523691,15.7108484 25.7156934,15.7286649 L27.4701934,16.2229468 C27.8706426,16.335766 28.1503906,16.7014229 28.1503906,17.1121516 L28.1503906,20.577375 C28.1503906,20.8087101 28.3405898,20.996258 28.5751953,20.996258 C28.8098008,20.996258 29,20.8087101 29,20.577375 L29,17.1121516 C29,16.3292314 28.4668984,15.632266 27.7036094,15.4171835 Z M2.72526367,14.6773245 C1.93065234,14.3953883 1.53207227,14.0195106 1.36192383,13.814258 C1.47792383,13.5152314 1.55314258,13.1727527 1.6040625,12.8112287 C1.83832813,13.3651037 2.23067773,13.8379388 2.72526367,14.1752793 L2.72526367,14.6773245 Z M5.15882813,15.8109894 C4.79649805,16.1504521 4.22890234,16.1503963 3.86668555,15.8109335 L3.47161719,15.4407527 C3.5382832,15.3176011 3.57492969,15.1779734 3.57492969,15.0316995 L3.57492969,14.5852261 C3.87127344,14.6765426 4.18630859,14.7258032 4.51278516,14.7258032 C4.83886523,14.7258032 5.15373047,14.6763191 5.45058398,14.5855053 L5.45052734,15.0316436 C5.45052734,15.1779734 5.48711719,15.3176569 5.55383984,15.4408644 L5.15882813,15.8109894 Z M4.51289844,13.8880372 C3.244375,13.8880372 2.21243945,12.8704309 2.21243945,11.6196463 C2.21243945,11.3883112 2.02224023,11.2007633 1.78763477,11.2007633 C1.7638457,11.2007633 1.74062305,11.2031649 1.71791016,11.2069069 C1.71915625,11.170883 1.7203457,11.1348032 1.7215918,11.0991144 C1.73105078,10.8110904 1.74016992,10.5390399 1.75699219,10.3056941 C1.81125391,9.55304521 2.11626367,8.8594867 2.61583398,8.35269415 C3.11987891,7.84132181 3.7935625,7.55972074 4.51278516,7.55972074 C5.23200781,7.55972074 5.90563477,7.84132181 6.40973633,8.35269415 C6.90930664,8.8594867 7.21431641,9.55304521 7.26857813,10.3056941 C7.28534375,10.538984 7.29451953,10.8109787 7.30414844,11.0989468 C7.30499805,11.1236888 7.30584766,11.148766 7.30669727,11.1736755 C6.84450977,10.471516 6.13072461,9.95405585 5.20844531,9.66184309 C4.35640039,9.39191489 3.62358398,9.40861436 3.5926582,9.40939628 C3.48141602,9.41246809 3.37583789,9.45837766 3.29863672,9.53735106 L2.53217578,10.3211649 C2.36933398,10.4877128 2.37420508,10.7528936 2.54310742,10.9134654 C2.71200977,11.0740372 2.98093945,11.0691782 3.14378125,10.9026862 L3.78155469,10.2505133 C4.33079883,10.2769867 6.09781641,10.4796144 6.78503711,11.9717872 C6.61211328,13.071383 5.65364063,13.8880372 4.51289844,13.8880372 Z M6.30008008,14.6787207 L6.30013672,14.179133 C6.79432617,13.8436356 7.18724219,13.3716941 7.42167773,12.8136303 C7.47259766,13.1743165 7.54775977,13.5160133 7.6635332,13.8143697 C7.49434766,14.0176676 7.09389844,14.3968963 6.30008008,14.6787207 Z M10.3880605,7.8830984 L10.3880605,6.84382181 C10.3880605,6.78076596 10.3736172,6.71849202 10.3458066,6.66169149 C10.072459,6.10351596 9.93385938,5.51127128 9.93385938,4.90137766 L9.93385938,4.0056383 C9.93385938,2.26090691 11.3733809,0.841507979 13.1427207,0.841507979 L19.0769023,0.841507979 L19.0769023,4.90143351 C19.0769023,5.51132713 18.9383027,6.10357181 18.6649551,6.66174734 C18.6371445,6.71854787 18.6227012,6.78082181 18.6227012,6.84387766 L18.6227012,8.03657713 C18.6227012,9.17096809 18.1602305,10.2231463 17.3204766,10.9993085 C17.2156348,11.0961543 17.1068281,11.1869681 16.9943398,11.2715824 C16.9918477,11.273258 16.9894688,11.2751011 16.9870332,11.2768324 C16.2003516,11.8657819 15.2367813,12.1520186 14.2305039,12.087734 C12.0758379,11.9501729 10.3880605,10.1032899 10.3880605,7.8830984 Z M12.7799375,16.3116383 C12.7769922,16.3145426 12.7701387,16.3214122 12.7562617,16.3199601 C12.7424414,16.3186197 12.7370039,16.310633 12.7346816,16.3071702 L11.4135391,14.3530532 L11.8386836,13.9125559 L13.8429121,15.2634255 L12.7799375,16.3116383 Z M14.5053809,14.695141 L12.2049219,13.1446037 L12.2049219,12.3626888 C12.8001582,12.6799787 13.4666484,12.8784176 14.1755059,12.9236569 C14.2874844,12.9308059 14.3987832,12.9343245 14.5097422,12.9343245 C15.3220254,12.9343245 16.1037793,12.742867 16.8058398,12.3794441 L16.8058398,13.1446037 L14.5053809,14.695141 Z M16.2760801,16.3072819 C16.2737578,16.3107447 16.2683203,16.3187314 16.2545,16.3200718 C16.240623,16.3218032 16.2338262,16.3145984 16.2308242,16.31175 L15.1678496,15.2635931 L17.1720781,13.9126676 L17.5972793,14.3531649 L16.2760801,16.3072819 Z M24.0330703,15.9538564 L23.0690469,15.0033271 C23.0858691,14.927984 23.0953848,14.845492 23.0953281,14.7545106 L23.0952715,14.577742 C23.3627852,14.6643112 23.6447422,14.7156941 23.936498,14.7242952 C23.9692363,14.7253005 24.0016914,14.7257473 24.0343164,14.7257473 C24.3567148,14.7257473 24.6714102,14.6777154 24.9709258,14.5860638 L24.9709258,14.754734 C24.9709258,14.8382872 24.9815742,14.9201649 25.001625,14.998859 L24.0330703,15.9538564 Z M25.6350371,13.2476489 C25.1848008,13.678484 24.5900176,13.9060213 23.962043,13.8869202 C22.7327148,13.8505612 21.7326113,12.7828564 21.7326113,11.5069388 L21.7326113,10.7238511 C21.7326113,10.6587846 21.7172617,10.5946676 21.687752,10.5365266 L21.4253359,10.0190106 C21.3292168,9.82939628 21.2784102,9.61716223 21.2784102,9.4051516 L21.2784102,9.38018617 C21.2784102,8.37631915 22.106666,7.55966489 23.124668,7.55966489 L26.7877871,7.55966489 L26.7877871,9.29942553 C26.7877871,9.58057979 26.7203848,9.862125 26.5928867,10.1136223 L26.3784453,10.5365266 C26.3489355,10.5947234 26.3335859,10.6587846 26.3335859,10.7238511 L26.3335859,11.6195904 C26.3335859,12.2384202 26.0855,12.8165904 25.6350371,13.2476489 Z" id="Shape"></path>
                        <path d="M26.758334,17.4709947 C26.5237285,17.4709947 26.3335293,17.6585426 26.3335293,17.8898777 L26.3335293,20.5771516 C26.3335293,20.8084867 26.5237285,20.9960346 26.758334,20.9960346 C26.9929395,20.9960346 27.1831387,20.8084867 27.1831387,20.5771516 L27.1831387,17.8898777 C27.1831387,17.6585984 26.9929395,17.4709947 26.758334,17.4709947 Z" id="Shape"></path>
                        <path d="M2.24166602,18.0247021 C2.00706055,18.0247021 1.81686133,18.21225 1.81686133,18.4435851 L1.81686133,20.5771516 C1.81686133,20.8084867 2.00706055,20.9960346 2.24166602,20.9960346 C2.47627148,20.9960346 2.6664707,20.8084867 2.6664707,20.5771516 L2.6664707,18.4435851 C2.6664707,18.2123059 2.47627148,18.0247021 2.24166602,18.0247021 Z" id="Shape"></path>
                        <path d="M17.9852109,5.053125 C16.378543,3.46885372 13.0169785,3.77173404 11.6461621,3.97547872 C11.2143906,4.0396516 10.9010547,4.39994681 10.9010547,4.83217819 L10.9010547,5.79717287 C10.9010547,6.02850798 11.0912539,6.21605585 11.3258594,6.21605585 C11.5604648,6.21605585 11.7506641,6.02850798 11.7506641,5.79717287 L11.7506641,4.83212234 C11.7506641,4.81788032 11.7601797,4.80570479 11.7728672,4.80380585 C12.3204121,4.72243085 13.4069492,4.59687766 14.5326816,4.67088032 C15.8573926,4.75784043 16.8168848,5.08574202 17.3844805,5.64548138 C17.5503809,5.80906915 17.8193672,5.80906915 17.9852109,5.64548138 C18.1511113,5.48189362 18.1511113,5.21665691 17.9852109,5.053125 Z" id="Shape"></path>
                        <path d="M9.50905469,18.3667899 C9.27444922,18.3667899 9.08425,18.5543378 9.08425,18.7856729 L9.08425,20.5772074 C9.08425,20.8085426 9.27444922,20.9960904 9.50905469,20.9960904 C9.74366016,20.9960904 9.93385937,20.8085426 9.93385937,20.5772074 L9.93385937,18.7856729 C9.93385937,18.5543936 9.74366016,18.3667899 9.50905469,18.3667899 Z" id="Shape"></path>
                        <path d="M19.501707,18.3667899 C19.2671016,18.3667899 19.0769023,18.5543378 19.0769023,18.7856729 L19.0769023,20.5772074 C19.0769023,20.8085426 19.2671016,20.9960904 19.501707,20.9960904 C19.7363125,20.9960904 19.9265117,20.8085426 19.9265117,20.5772074 L19.9265117,18.7856729 C19.9265117,18.5543936 19.7363125,18.3667899 19.501707,18.3667899 Z" id="Shape"></path>
                    </g>
                </g>
            </g>
        </g>
    </g>
</svg>