<?xml version="1.0" encoding="UTF-8"?>
<svg width="20px" height="25px" viewBox="0 0 20 25" version="1.1" xmlns="http://www.w3.org/2000/svg" xmlns:xlink="http://www.w3.org/1999/xlink">
    <!-- Generator: Sketch 52.3 (67297) - http://www.bohemiancoding.com/sketch -->
    <title>001-apple</title>
    <desc>Created with Sketch.</desc>
    <g id="Mobile_FAN_Checkout" stroke="none" stroke-width="1" fill="none" fill-rule="evenodd">
        <g id="Mobile_Checkout_confirmation" transform="translate(-59.000000, -1117.000000)" fill="#3C383F" fill-rule="nonzero">
            <g id="apple-cta" transform="translate(15.000000, 1102.000000)">
                <g id="001-apple" transform="translate(44.000000, 15.000000)">
                    <path d="M1.03212539,9.24987537 C-1.03687756,12.9036273 0.278425772,18.4483969 2.56640522,21.8103877 C3.70846918,23.4912197 4.86473571,25 6.44844372,25 C6.47829321,25 6.50822295,24.9994284 6.53887484,24.9982035 C7.28294559,24.9679904 7.82063762,24.734859 8.34051623,24.5095668 C8.9241861,24.2564294 9.52783586,23.9947181 10.4746745,23.9947181 C11.3754551,23.9947181 11.9502985,24.2479371 12.5062051,24.4927454 C13.0540877,24.7339608 13.6184196,24.9835052 14.4522795,24.9675821 C16.2361878,24.933776 17.3314715,23.3056945 18.2978086,21.8694258 C19.3061918,20.3697911 19.8120283,18.9137614 19.9826999,18.3573491 L19.9896006,18.33522 C20.0220981,18.2363332 19.9762005,18.1283823 19.8830412,18.084859 C19.8804735,18.0836342 19.8710051,18.079633 19.8683571,18.0784898 C19.5542153,17.9477566 16.7985939,16.703709 16.769627,13.3129749 C16.7427464,10.5581872 18.8368647,9.09938112 19.2568438,8.83497507 L19.2764225,8.82256318 C19.3219189,8.79275829 19.3536139,8.74547877 19.3643662,8.6914217 C19.3751184,8.63744628 19.3638847,8.58126612 19.3333933,8.53586471 C17.8879398,6.38321729 15.6724978,6.05879319 14.7805437,6.01976105 C14.6511157,6.00661423 14.5175151,6 14.3833529,6 C13.3357321,6 12.3321633,6.40265171 11.5259062,6.72617758 C10.9693576,6.94951006 10.4886364,7.14238439 10.1570824,7.14238439 C9.78452543,7.14238439 9.30107603,6.947142 8.74123761,6.72111484 C7.99259314,6.41873818 7.14404918,6.07610452 6.24575606,6.07610452 C6.22433183,6.07610452 6.20322856,6.07634949 6.18244625,6.07675778 C4.09378437,6.10803249 2.12018745,7.32407169 1.03212539,9.24987537 Z" id="XMLID_229_"></path>
                    <path d="M14.7789837,0.000155259271 C13.5811775,0.0520313074 12.1443116,0.836070707 11.2854899,1.90575159 C10.5556207,2.80485562 9.84262094,4.30392796 10.0304644,5.81495927 C10.0422426,5.90949973 10.1145837,5.98246557 10.2040221,5.98981872 C10.2848738,5.99652544 10.3673973,5.9999192 10.4496168,6 C11.620827,6 12.8842873,5.31098588 13.7471363,4.20154953 C14.6552745,3.03005584 15.1144728,1.5266201 14.9755659,0.179943744 C14.9646235,0.0744139636 14.8773128,-0.0039657352 14.7789837,0.000155259271 Z" id="XMLID_230_"></path>
                </g>
            </g>
        </g>
    </g>
</svg>