<?xml version="1.0" encoding="UTF-8"?>
<svg width="16px" height="16px" viewBox="0 0 16 16" version="1.1" xmlns="http://www.w3.org/2000/svg" xmlns:xlink="http://www.w3.org/1999/xlink">
    <!-- Generator: Sketch 52.2 (67145) - http://www.bohemiancoding.com/sketch -->
    <title>unlink</title>
    <desc>Created with Sketch.</desc>
    <g id="PROMOTER_Events" stroke="none" stroke-width="1" fill="none" fill-rule="evenodd">
        <g id="PROMOTER-Events-09-Events-List-Hold" transform="translate(-1078.000000, -825.000000)" fill="#FFFFFF" fill-rule="nonzero">
            <g id="list" transform="translate(261.000000, 571.000000)">
                <g id="4" transform="translate(0.000000, 230.000000)">
                    <g id="unlink" transform="translate(817.000000, 24.000000)">
                        <path d="M14.8866909,1.10574545 C13.4123636,-0.368581818 11.0132364,-0.368 9.53861818,1.10574545 L6.86458182,3.77978182 C6.63738182,4.00698182 6.63738182,4.37527273 6.86458182,4.60247273 C7.09178182,4.82967273 7.46007273,4.82967273 7.68727273,4.60247273 L10.3613091,1.92843636 C10.8532364,1.4368 11.5106909,1.16567273 12.2123636,1.16567273 C12.9143273,1.16567273 13.5717818,1.4368 14.0637091,1.92872727 C14.5556364,2.42065455 14.8267636,3.07810909 14.8267636,3.78007273 C14.8267636,4.48174545 14.5556364,5.1392 14.0637091,5.63112727 L10.5672727,9.12843636 C9.54618182,10.1489455 7.88538182,10.1489455 6.86429091,9.12843636 C6.63709091,8.90123636 6.2688,8.90123636 6.0416,9.12843636 C5.8144,9.35563636 5.8144,9.72421818 6.0416,9.95112727 C6.77876364,10.6882909 7.7472,11.0568727 8.71563636,11.0568727 C9.68407273,11.0568727 10.6525091,10.6882909 11.3896727,9.95112727 L14.8866909,6.45410909 C15.5985455,5.74254545 15.9906909,4.79272727 15.9906909,3.78007273 C15.9906909,2.76712727 15.5985455,1.8176 14.8866909,1.10574545 Z" id="Shape"></path>
                        <path d="M7.89294545,11.8021818 L5.63025455,14.0648727 C5.13832727,14.5568 4.48087273,14.8279273 3.77890909,14.8279273 C3.07723636,14.8279273 2.41949091,14.5568 1.92756364,14.0648727 C0.906763636,13.0440727 0.906763636,11.3829818 1.92756364,10.3621818 L5.21890909,7.07083636 C5.71083636,6.5792 6.36829091,6.30807273 7.07025455,6.30807273 C7.77192727,6.30807273 8.42938182,6.5792 8.92130909,7.07083636 C9.14850909,7.29803636 9.5168,7.29803636 9.744,7.07083636 C9.9712,6.84363636 9.9712,6.47534545 9.744,6.24814545 C8.26996364,4.77410909 5.87083636,4.77381818 4.39592727,6.24814545 L1.10458182,9.53978182 C0.393018182,10.2513455 0.000872727273,11.2011636 0.000872727273,12.2138182 C0.000872727273,13.2261818 0.393018182,14.176 1.10487273,14.8875636 C1.81643636,15.5994182 2.76625455,15.9915636 3.77861818,15.9915636 C4.79127273,15.9915636 5.74109091,15.5994182 6.45265455,14.8875636 L8.71534545,12.6248727 C8.94254545,12.3976727 8.94254545,12.0293818 8.71534545,11.8021818 C8.48814545,11.5749818 8.12014545,11.5749818 7.89294545,11.8021818 Z" id="Shape"></path>
                    </g>
                </g>
            </g>
        </g>
    </g>
</svg>
