<?xml version="1.0" encoding="UTF-8"?>
<svg width="23px" height="30px" viewBox="0 0 23 30" version="1.1" xmlns="http://www.w3.org/2000/svg" xmlns:xlink="http://www.w3.org/1999/xlink">
    <!-- Generator: Sketch 52.3 (67297) - http://www.bohemiancoding.com/sketch -->
    <title>noun_138335_cc</title>
    <desc>Created with Sketch.</desc>
    <g id="FAN_Event-detail-page-(EDP)" stroke="none" stroke-width="1" fill="none" fill-rule="evenodd">
        <g id="EDP_Onsale" transform="translate(-881.000000, -817.000000)" fill="#000000" fill-rule="nonzero">
            <g id="side-element" transform="translate(831.000000, 525.000000)">
                <g id="noun_138335_cc" transform="translate(50.000000, 292.000000)">
                    <path d="M21.0037736,17.1126761 L21.0471698,17.1126761 L11.5,29.7887324 L1.95283019,17.1126761 L1.99622642,17.1126761 C0.867924528,15.4225352 0.216981132,13.3943662 0.216981132,11.1971831 C0.216981132,5.11267606 5.2509434,0.211267606 11.5,0.211267606 C17.7490566,0.211267606 22.7830189,5.11267606 22.7830189,11.1971831 C22.7830189,13.3943662 22.1320755,15.4225352 21.0037736,17.1126761 Z M11.5,1.47887324 C5.98867925,1.47887324 1.51886792,5.91549296 1.51886792,11.3661972 C1.51886792,13.3098592 2.08301887,15.1690141 3.08113208,16.6901408 L3.03773585,16.6901408 L11.5,28.0985915 L19.9622642,16.6901408 L19.9188679,16.6901408 C20.9169811,15.1690141 21.4811321,13.3098592 21.4811321,11.3661972 C21.4811321,5.91549296 17.0113208,1.47887324 11.5,1.47887324 Z M11.5,15.4225352 C9.11320755,15.4225352 7.16037736,13.5211268 7.16037736,11.1971831 C7.16037736,8.87323944 9.11320755,6.97183099 11.5,6.97183099 C13.8867925,6.97183099 15.8396226,8.87323944 15.8396226,11.1971831 C15.8396226,13.5211268 13.8867925,15.4225352 11.5,15.4225352 Z M11.5,8.23943662 C9.80754717,8.23943662 8.46226415,9.54929577 8.46226415,11.1971831 C8.46226415,12.8450704 9.80754717,14.1549296 11.5,14.1549296 C13.1924528,14.1549296 14.5377358,12.8450704 14.5377358,11.1971831 C14.5377358,9.54929577 13.1924528,8.23943662 11.5,8.23943662 Z" id="Shape"></path>
                </g>
            </g>
        </g>
    </g>
</svg>