<?xml version="1.0" encoding="UTF-8"?>
<svg width="13px" height="17px" viewBox="0 0 13 17" version="1.1" xmlns="http://www.w3.org/2000/svg" xmlns:xlink="http://www.w3.org/1999/xlink">
    <!-- Generator: Sketch 52.3 (67297) - http://www.bohemiancoding.com/sketch -->
    <title>noun_138335_cc</title>
    <desc>Created with Sketch.</desc>
    <defs>
        <linearGradient x1="94.6430556%" y1="-3.46543296%" x2="-2.71388889%" y2="82.3178538%" id="linearGradient-1">
            <stop stop-color="#E53D96" offset="0%"></stop>
            <stop stop-color="#5491CC" offset="100%"></stop>
        </linearGradient>
    </defs>
    <g id="FAN_Venue-detail-page-(VDP)" stroke="none" stroke-width="1" fill="none" fill-rule="evenodd">
        <g id="EDP_Onsale-2" transform="translate(-1175.000000, -555.000000)" fill="url(#linearGradient-1)" fill-rule="nonzero">
            <g id="noun_138335_cc" transform="translate(1175.000000, 555.000000)">
                <path d="M11.975,9.71428571 L12,9.71428571 L6.5,17 L1,9.71428571 L1.025,9.71428571 C0.375,8.74285714 0,7.57714286 0,6.31428571 C0,2.81714286 2.9,0 6.5,0 C10.1,0 13,2.81714286 13,6.31428571 C13,7.57714286 12.625,8.74285714 11.975,9.71428571 Z M6.5,0.728571429 C3.325,0.728571429 0.75,3.27857143 0.75,6.41142857 C0.75,7.52857143 1.075,8.59714286 1.65,9.47142857 L1.625,9.47142857 L6.5,16.0285714 L11.375,9.47142857 L11.35,9.47142857 C11.925,8.59714286 12.25,7.52857143 12.25,6.41142857 C12.25,3.27857143 9.675,0.728571429 6.5,0.728571429 Z M6.5,8.74285714 C5.125,8.74285714 4,7.65 4,6.31428571 C4,4.97857143 5.125,3.88571429 6.5,3.88571429 C7.875,3.88571429 9,4.97857143 9,6.31428571 C9,7.65 7.875,8.74285714 6.5,8.74285714 Z M6.5,4.61428571 C5.525,4.61428571 4.75,5.36714286 4.75,6.31428571 C4.75,7.26142857 5.525,8.01428571 6.5,8.01428571 C7.475,8.01428571 8.25,7.26142857 8.25,6.31428571 C8.25,5.36714286 7.475,4.61428571 6.5,4.61428571 Z" id="Shape"></path>
            </g>
        </g>
    </g>
</svg>