<?xml version="1.0" encoding="UTF-8"?>
<svg width="25px" height="21px" viewBox="0 0 25 21" version="1.1" xmlns="http://www.w3.org/2000/svg" xmlns:xlink="http://www.w3.org/1999/xlink">
    <!-- Generator: Sketch 52.4 (67378) - http://www.bohemiancoding.com/sketch -->
    <title>009-megaphone</title>
    <desc>Created with Sketch.</desc>
    <g id="PROMOTER_Marketing" stroke="none" stroke-width="1" fill="none" fill-rule="evenodd">
        <g id="PROMOTER-Marketing-05-API" transform="translate(-32.000000, -482.000000)" fill="#FF22B2" fill-rule="nonzero">
            <g id="side-menu" transform="translate(0.000000, 80.000000)">
                <g id="6" transform="translate(19.000000, 402.000000)">
                    <g id="009-megaphone" transform="translate(13.000000, 0.000000)">
                        <path d="M22.5046875,9.61142578 C22.5046875,8.35537109 21.5576172,7.31699219 20.3401855,7.17114258 L20.3401855,0.866943359 C20.3401855,0.480957031 20.0897949,0.154101563 19.7170898,0.0536621094 C19.3444824,-0.0466796875 18.9637695,0.109960938 18.7698242,0.443603516 C17.4381348,2.7347168 15.3406738,4.30073242 12.5356934,5.09824219 C10.4146484,5.70126953 8.66435547,5.61386719 8.64746094,5.6128418 C8.62177734,5.61137695 8.59624023,5.61259766 8.57094727,5.61513672 L4.08603516,5.61513672 C1.83300781,5.61513672 0,7.44814453 0,9.70117188 C0,11.823291 1.62631836,13.5721191 3.69794922,13.7682617 L5.05068359,19.3308594 C5.22978516,20.0673828 5.88427734,20.5817871 6.64228516,20.5817871 L7.58115234,20.5817871 C8.08696289,20.5817871 8.55634766,20.3537109 8.86894531,19.9560059 C9.18154297,19.5583008 9.29223633,19.048291 9.17275391,18.5567871 L8.0128418,13.7871582 L8.57011719,13.7871582 C8.59550781,13.7897461 8.62114258,13.7909668 8.64702148,13.789502 C8.6644043,13.7885254 10.4146484,13.7010254 12.5356934,14.3041016 C15.340625,15.1016113 17.4380859,16.667627 18.7698242,18.9586914 C18.9246582,19.2251465 19.1985352,19.3787109 19.4922852,19.3787109 C19.5665039,19.3787109 19.6419434,19.3688965 19.7170898,19.3486816 C20.0897949,19.2482422 20.3401855,18.9214355 20.3401855,18.5354492 L20.3401855,12.2311523 C21.5576172,12.0853516 22.5046875,11.0469727 22.5046875,9.79091797 L22.5046875,9.61142578 Z M8.06953125,18.1531738 L8.2237793,18.7875488 C8.27207031,18.9860352 8.22739258,19.1919922 8.10112305,19.3525879 C7.97495117,19.5131836 7.78540039,19.6052734 7.58115234,19.6052734 L6.64228516,19.6052734 C6.33618164,19.6052734 6.07192383,19.3975586 5.99960938,19.1001465 L4.70756836,13.787207 L7.0078125,13.787207 L7.35268555,15.2054199 L7.11928711,15.2054199 C6.84960938,15.2054199 6.63100586,15.4240234 6.63100586,15.6937012 C6.63100586,15.9633789 6.84960938,16.1819824 7.11928711,16.1819824 L7.59013672,16.1819824 L7.83203125,17.1766113 L7.67900391,17.1766113 C7.40932617,17.1766113 7.19072266,17.3952148 7.19072266,17.6648926 C7.19072266,17.9345703 7.40932617,18.1531738 7.67900391,18.1531738 L8.06953125,18.1531738 Z M8.13149414,10.7385742 L5.09702148,10.7385742 C4.82734375,10.7385742 4.60874023,10.9571777 4.60874023,11.2268555 C4.60874023,11.4965332 4.82734375,11.7151367 5.09702148,11.7151367 L8.13149414,11.7151367 L8.13149414,12.8106445 L7.41816406,12.8106445 C7.40922852,12.8101562 7.4003418,12.8095215 7.39125977,12.8095215 L4.08603516,12.8095215 C4.08139648,12.8095215 4.07680664,12.8102051 4.07216797,12.8103027 C2.36401367,12.8027344 0.9765625,11.411084 0.9765625,9.70117188 C0.9765625,7.98662109 2.37148437,6.59169922 4.08603516,6.59169922 L8.13149414,6.59169922 L8.13149414,10.7385742 Z M19.3635254,7.64125977 L19.3635254,11.761084 L19.3635254,18.0583984 C17.9002441,15.7827148 15.6304688,14.1612793 12.7697754,13.3554688 C11.1858398,12.9092773 9.81772461,12.820166 9.10805664,12.8085937 L9.10805664,11.2268555 L9.10805664,6.59375 C9.81782227,6.58217773 11.1859863,6.49301758 12.7697754,6.046875 C15.6304199,5.24101563 17.9002441,3.61962891 19.3635254,1.34394531 L19.3635254,7.64125977 Z M21.5280273,9.79091797 C21.5280273,10.5074219 21.0169434,11.1067871 20.3400879,11.2435059 L20.3400879,8.15883789 C21.0168945,8.29555664 21.5280273,8.89492188 21.5280273,9.61142578 L21.5280273,9.79091797 Z" id="Shape"></path>
                        <path d="M22.6508301,6.85239258 C22.7681641,6.85239258 22.8858887,6.81035156 22.9794434,6.72514648 L24.387793,5.4425293 C24.5871582,5.2609375 24.6016113,4.95214844 24.4200195,4.75273438 C24.2384277,4.55336914 23.9296387,4.53896484 23.7302246,4.72050781 L22.3219238,6.00307617 C22.1225586,6.18466797 22.1081055,6.49345703 22.2896973,6.69287109 C22.386084,6.79868164 22.5182129,6.85239258 22.6508301,6.85239258 Z" id="Shape"></path>
                        <path d="M22.9794922,12.6772461 C22.7800781,12.4957031 22.4712891,12.5101074 22.2896973,12.7094727 C22.1081055,12.9088379 22.1225586,13.2176758 22.3219238,13.3992676 L23.7302246,14.6818359 C23.823877,14.7670898 23.9415527,14.8091309 24.0588867,14.8091309 C24.1915039,14.8091309 24.3236816,14.7554199 24.4200195,14.6496094 C24.6016113,14.4502441 24.5871582,14.1414062 24.387793,13.9598145 L22.9794922,12.6772461 Z" id="Shape"></path>
                        <path d="M24.5117187,9.21289062 L23.4303223,9.21289062 C23.1606445,9.21289062 22.942041,9.43149414 22.942041,9.70117188 C22.942041,9.97084961 23.1606445,10.1894531 23.4303223,10.1894531 L24.5117187,10.1894531 C24.7813965,10.1894531 25,9.97084961 25,9.70117188 C25,9.43149414 24.7813965,9.21289062 24.5117187,9.21289062 Z" id="Shape"></path>
                        <path d="M3.53613281,11.0402344 C3.52392578,11.0104492 3.50878906,10.9821289 3.49121094,10.9557617 C3.47314453,10.9289062 3.453125,10.9040039 3.43066406,10.881543 C3.40771484,10.859082 3.3828125,10.8385742 3.35595703,10.8209961 C3.32958984,10.803418 3.30126953,10.7882813 3.27197266,10.7760742 C3.2421875,10.7638672 3.21142578,10.7545898 3.18066406,10.7482422 C3.11767578,10.7355469 3.05273437,10.7355469 2.98974609,10.7482422 C2.95849609,10.7545898 2.92773437,10.7638672 2.8984375,10.7760742 C2.86914062,10.7882813 2.84033203,10.803418 2.81396484,10.8209961 C2.78710938,10.8385742 2.76220703,10.859082 2.73974609,10.881543 C2.71728516,10.9040039 2.69677734,10.9289063 2.67919922,10.9557617 C2.66162109,10.9821289 2.64648438,11.0104492 2.63427734,11.0402344 C2.62207031,11.0695313 2.61279297,11.100293 2.60644531,11.131543 C2.60009766,11.162793 2.59667969,11.1950195 2.59667969,11.2267578 C2.59667969,11.2584961 2.60009766,11.2907227 2.60644531,11.3224609 C2.61279297,11.3532227 2.62207031,11.3839844 2.63427734,11.4137695 C2.64648438,11.4430664 2.66162109,11.4713867 2.67919922,11.4977539 C2.69677734,11.5246094 2.71728516,11.5495117 2.73974609,11.5719727 C2.76220703,11.5944336 2.78710938,11.6149414 2.81396484,11.6330078 C2.84033203,11.6505859 2.86914063,11.6657227 2.8984375,11.6779297 C2.92773438,11.6901367 2.95849609,11.6994141 2.98974609,11.7057617 C3.02148437,11.7121094 3.05322266,11.7150391 3.08496094,11.7150391 C3.1171875,11.7150391 3.14892578,11.7121094 3.18066406,11.7057617 C3.21191406,11.6994141 3.2421875,11.6901367 3.27197266,11.6779297 C3.30126953,11.6657227 3.32958984,11.6505859 3.35595703,11.6330078 C3.3828125,11.6149414 3.40771484,11.5944336 3.43066406,11.5719727 C3.453125,11.5495117 3.47314453,11.5246094 3.49121094,11.4977539 C3.50878906,11.4713867 3.52392578,11.4430664 3.53613281,11.4137695 C3.54833984,11.3839844 3.55761719,11.3532227 3.56396484,11.3224609 C3.5703125,11.2907227 3.57324219,11.2584961 3.57324219,11.2267578 C3.57324219,11.1950195 3.5703125,11.162793 3.56396484,11.131543 C3.55761719,11.100293 3.54833984,11.0695313 3.53613281,11.0402344 Z" id="Shape"></path>
                    </g>
                </g>
            </g>
        </g>
    </g>
</svg>