<?xml version="1.0" encoding="UTF-8"?>
<svg width="50px" height="35px" viewBox="0 0 50 35" version="1.1" xmlns="http://www.w3.org/2000/svg" xmlns:xlink="http://www.w3.org/1999/xlink">
    <!-- Generator: Sketch 52.3 (67297) - http://www.bohemiancoding.com/sketch -->
    <title>006-team</title>
    <desc>Created with Sketch.</desc>
    <defs>
        <linearGradient x1="94.6430556%" y1="-3.46543296%" x2="-2.71388889%" y2="82.3178538%" id="linearGradient-1">
            <stop stop-color="#E53D96" offset="0%"></stop>
            <stop stop-color="#5491CC" offset="100%"></stop>
        </linearGradient>
    </defs>
    <g id="FAN_My_Account" stroke="none" stroke-width="1" fill="none" fill-rule="evenodd">
        <g id="FAN-My-account-04-Fan-hub-organisation" transform="translate(-450.000000, -506.000000)" fill="url(#linearGradient-1)" fill-rule="nonzero">
            <g id="page-title" transform="translate(450.000000, 506.000000)">
                <g id="006-team">
                    <path d="M43.1405341,15.8592331 C41.5738876,15.1434354 38.636538,15.1351351 38.5122638,15.1351351 C38.1398008,15.1351351 37.8378378,15.4110994 37.8378378,15.7514936 C37.8378378,16.0918879 38.1398008,16.3678521 38.5122638,16.3678521 C39.2702286,16.3679343 41.4709253,16.4746054 42.5373275,16.9618574 C42.6341751,17.006153 42.7370475,17.027027 42.8383913,17.027027 C43.0857707,17.027027 43.3239779,16.9021117 43.4421373,16.6862219 C43.6087655,16.3817408 43.4737005,16.0115148 43.1405341,15.8592331 Z" id="Shape"></path>
                    <path d="M46.9902787,25.6982523 L44.0144288,24.8741576 C43.8859797,24.8385865 43.7962479,24.7233064 43.7962479,24.5937792 L43.7962479,23.6310317 C44.0383509,23.4684476 44.2693095,23.286495 44.4851848,23.0834045 C45.5314158,22.099333 46.1075633,20.7793847 46.1075633,19.3665978 L46.1075633,18.0380826 L46.3953009,17.4803987 C46.7110916,16.8681475 46.8779698,16.1827056 46.8779698,15.498288 L46.8779698,11.8992755 C46.8779698,11.5135806 46.5553579,11.2008902 46.157425,11.2008902 L39.2235747,11.2008902 C36.7022445,11.2008902 34.6509016,13.1891467 34.6509016,15.6329367 L34.6509016,15.6745604 C34.6509016,16.2436979 34.7897266,16.8136735 35.0522931,17.3226567 L35.4213081,18.0379895 L35.4213081,19.1786855 C35.4213081,20.9864793 36.340435,22.6085025 37.7326235,23.5845658 L37.7328157,24.5935929 C37.7328157,24.7491932 37.7328157,24.8136309 37.1378378,24.9784498 L35.685796,25.3805335 L31.4854043,23.9001429 C31.5004878,23.7080403 31.4336212,23.5126787 31.2890319,23.3654591 L29.9468011,21.9986724 L29.9468011,19.7042438 C30.0887004,19.5909191 30.2285821,19.4745216 30.3641406,19.3514195 C32.0574208,17.8131094 33.028523,15.6412242 33.028523,13.3927027 L33.028523,11.5603259 C33.5398216,10.4819258 33.7989295,9.34076415 33.7989295,8.16552131 L33.7989295,0.698385333 C33.7989295,0.312690393 33.4763176,0 33.0783847,0 L22.292406,0 C18.4965762,0 15.4085135,2.99318642 15.4085135,6.67218724 L15.4085135,8.16570755 C15.4085135,9.34095039 15.6676214,10.482112 16.17892,11.5605121 L16.17892,13.1370937 C16.17892,15.7477512 17.3765614,18.0997268 19.2606419,19.6503284 L19.2606419,21.9987655 L17.9184111,23.3655522 C17.7738218,23.5127718 17.7069552,23.7081335 17.7220386,23.900236 L13.2887669,25.4626637 C12.9675,25.5758952 12.6690023,25.7292606 12.3979814,25.9150311 L11.7018391,25.5776644 C13.7741258,24.7033791 14.4305902,23.4737553 14.462102,23.4126699 C14.5635547,23.2160977 14.5635547,22.9846063 14.462102,22.7880341 C13.9426372,21.7810555 13.8797097,19.9353628 13.8291755,18.4523648 C13.8123628,17.9586529 13.7964147,17.4922246 13.7659597,17.0769182 C13.5203019,13.7270896 10.8929075,11.2008902 7.65429899,11.2008902 C4.41569046,11.2008902 1.78819996,13.7269965 1.5426383,17.0769182 C1.51218328,17.4923178 1.49623522,17.958746 1.47942251,18.452551 C1.4288883,19.9354559 1.36586465,21.7809624 0.846495988,22.7879409 C0.745043285,22.9845131 0.745043285,23.2160046 0.846495988,23.4125768 C0.878007813,23.4736622 1.53312711,24.7007718 3.60954497,25.5760814 L1.67589105,26.5131283 C0.642149493,27.0144759 0,28.0215475 0,29.1416645 L0,34.3012422 C0,34.6869371 0.322611909,34.9996275 0.720544764,34.9996275 C1.11847762,34.9996275 1.44108953,34.6869371 1.44108953,34.3012422 L1.44108953,29.1416645 C1.44108953,28.5539034 1.77801626,28.0254585 2.32034628,27.7625862 L4.72821474,26.595724 L5.56577597,27.367207 C6.15143476,27.9066398 6.90272276,28.1762166 7.65429899,28.1762166 C8.40568307,28.1762166 9.15735536,27.9064536 9.742822,27.367207 L10.5802872,26.5958171 L11.3653927,26.9762975 C10.9957052,27.5496253 10.7858826,28.2219375 10.7858826,28.9261893 L10.7858826,34.3014284 C10.7858826,34.6871234 11.1084945,34.9998138 11.5064274,34.9998138 C11.9043602,34.9998138 12.2269721,34.6871234 12.2269721,34.3014284 L12.2269721,28.9261893 C12.2269721,27.9674459 12.8515403,27.1031242 13.7812352,26.7754418 L18.4553611,25.1280905 L20.4011201,27.9571098 C20.6498522,28.3187803 21.0484576,28.5507374 21.4947149,28.5935717 C21.5444806,28.5983207 21.593958,28.6006486 21.6433393,28.6006486 C22.037045,28.6006486 22.4141301,28.4504492 22.6960072,28.177334 L23.8830807,27.0267674 L23.8830807,34.3015215 C23.8830807,34.6872165 24.2056926,34.9999069 24.6036254,34.9999069 C25.0015583,34.9999069 25.3241702,34.6872165 25.3241702,34.3015215 L25.3241702,27.0267674 L26.5112437,28.177334 C26.7930247,28.4505423 27.1701098,28.6007418 27.5639115,28.6007418 C27.6131968,28.6007418 27.6627703,28.5984138 27.7124398,28.5936648 C28.1587933,28.5508305 28.5573986,28.3188734 28.8061307,27.9572029 L30.7519859,25.1282768 L35.4260156,26.7756281 C36.3556144,27.1033105 36.9802787,27.9676322 36.9802787,28.9263756 L36.9802787,34.3016147 C36.9802787,34.6873096 37.3028906,35 37.7008235,35 C38.0987563,35 38.4213682,34.6873096 38.4213682,34.3016147 L38.4213682,28.9263756 C38.4213682,27.9553406 38.0233393,27.0446461 37.3556345,26.3711233 L37.5336571,26.3218639 C37.7132168,26.2721388 37.9582021,26.2040695 38.204148,26.0872064 L40.0438429,27.8703238 L40.0438429,34.3016147 C40.0438429,34.6873096 40.3664548,35 40.7643877,35 C41.1623205,35 41.4849324,34.6873096 41.4849324,34.3016147 L41.4849324,27.8703238 L43.3118497,26.0995911 C43.4089791,26.1474538 43.5110082,26.187867 43.6184174,26.2175716 L46.5943634,27.0416663 C47.2735969,27.2297648 47.7480997,27.8394086 47.7480997,28.5241987 L47.7480997,34.3016147 C47.7480997,34.6873096 48.0707116,35 48.4686444,35 C48.8665773,35 49.1891892,34.6873096 49.1891892,34.3016147 L49.1891892,28.5241987 C49.1891892,27.21887 48.2849535,26.0568499 46.9902787,25.6982523 Z M4.62253484,24.4647176 C3.27473184,23.9946577 2.59866871,23.3679732 2.31006651,23.0257644 C2.50682327,22.5272104 2.63440773,21.9562106 2.72077703,21.3534575 C3.11813345,22.2769091 3.78362859,23.0652465 4.62253484,23.6276795 L4.62253484,24.4647176 Z M8.75029561,26.3548276 C8.13571896,26.9207991 7.17297508,26.920706 6.55859058,26.3547345 L5.88848395,25.7375481 C6.00156144,25.5322228 6.06372044,25.2994277 6.06372044,25.0555516 L6.06372044,24.3111659 C6.56637247,24.4634139 7.10072846,24.545544 7.65449113,24.545544 C8.20758129,24.545544 8.74164907,24.4630414 9.24516575,24.3116315 L9.24506968,25.0554584 C9.24506968,25.2994277 9.3071326,25.532316 9.42030617,25.7377344 L8.75029561,26.3548276 Z M7.65468328,23.1487734 C5.50304054,23.1487734 3.7526932,21.4521626 3.7526932,19.366784 C3.7526932,18.9810891 3.43008129,18.6683987 3.03214844,18.6683987 C2.99179793,18.6683987 2.95240815,18.6724027 2.91388302,18.6786416 C2.91599662,18.6185805 2.91801415,18.5584263 2.92012774,18.4989238 C2.93617187,18.0187141 2.95163957,17.5651361 2.98017314,17.1760889 C3.07221073,15.9212301 3.58956187,14.7648902 4.43692251,13.9199371 C5.29187289,13.0673483 6.43456081,12.5978471 7.65449113,12.5978471 C8.87442145,12.5978471 10.0170133,13.0673483 10.8720598,13.9199371 C11.7194204,14.7648902 12.2367715,15.9212301 12.3288091,17.1760889 C12.3572466,17.565043 12.3728104,18.0185278 12.3891427,18.4986445 C12.3905838,18.5398958 12.3920249,18.5817058 12.393466,18.6232364 C11.6095133,17.4525564 10.398806,16.5898177 8.83445524,16.1026241 C7.38923459,15.6525846 6.14624683,15.6804269 6.09379117,15.6817305 C5.90510452,15.686852 5.72602513,15.763395 5.59507812,15.8950639 L4.29502323,17.2018826 C4.0188144,17.4795606 4.02707665,17.9216851 4.31356524,18.1893994 C4.60005384,18.4571138 5.05620671,18.4490125 5.33241554,18.1714277 L6.41419341,17.0840883 C7.34580976,17.1282262 10.3429878,17.4660585 11.508637,19.9538933 C11.2153273,21.7872013 9.58958615,23.1487734 7.65468328,23.1487734 Z M10.6860631,24.4670455 L10.6861592,23.6341046 C11.5243929,23.0747445 12.1908488,22.287897 12.5884935,21.3574615 C12.6748628,21.9588179 12.8023511,22.5285141 12.9987236,23.0259507 C12.7117546,23.3649004 12.0325211,23.9971719 10.6860631,24.4670455 Z M17.6200095,13.1370006 L17.6200095,11.40426 C17.6200095,11.2991297 17.595511,11.1953031 17.5483393,11.1006021 C17.0846928,10.1699803 16.849603,9.1825566 16.849603,8.16570755 L16.849603,6.67228035 C16.849603,3.76336577 19.2912891,1.39686378 22.292406,1.39686378 L32.3578399,1.39686378 L32.3578399,8.16580067 C32.3578399,9.18264971 32.1227502,10.1700735 31.6591037,11.1006952 C31.611932,11.1953962 31.5874335,11.2992229 31.5874335,11.4043531 L31.5874335,13.392889 C31.5874335,15.2842096 30.8030004,17.0384604 29.3786275,18.3325219 C29.2007971,18.4939886 29.0162416,18.6453985 28.8254413,18.7864723 C28.8212141,18.7892659 28.8171791,18.7923388 28.8130479,18.7952254 C27.4786951,19.7771552 25.8443074,20.2543852 24.137481,20.1472063 C20.4827819,19.9178566 17.6200095,16.8386291 17.6200095,13.1370006 Z M21.6770608,27.1895378 C21.672065,27.1943799 21.6604402,27.2058334 21.6369024,27.2034124 C21.6134607,27.2011775 21.6042378,27.1878617 21.6002988,27.1820883 L19.3594046,23.9240742 L20.0805258,23.1896522 L23.480056,25.4418983 L21.6770608,27.1895378 Z M24.6037215,24.4944222 L20.7017314,21.9092791 L20.7017314,20.6056265 C21.7113587,21.1346301 22.8418454,21.4654785 24.0441945,21.5409041 C24.2341301,21.5528232 24.4229128,21.5586896 24.6111191,21.5586896 C25.9888967,21.5586896 27.3148913,21.239481 28.5057116,20.6335619 L28.5057116,21.9092791 L24.6037215,24.4944222 Z M27.6071442,27.1822746 C27.6032052,27.1880479 27.5939823,27.2013638 27.5705405,27.2035986 C27.5470027,27.2064853 27.535474,27.194473 27.5303822,27.189724 L25.727387,25.4421777 L29.1269172,23.1898384 L29.8481345,23.9242604 L27.6071442,27.1822746 Z M40.7643877,26.5930236 L39.1292314,25.0082476 C39.157765,24.8826314 39.1739052,24.745096 39.1738091,24.5934067 L39.173713,24.2986881 C39.6274641,24.4430211 40.1057137,24.5286897 40.6005838,24.5430298 C40.6561138,24.544706 40.7111634,24.5454509 40.7665013,24.5454509 C41.3133467,24.5454509 41.8471263,24.4653694 42.3551584,24.3125627 L42.3551584,24.5937792 C42.3551584,24.7330838 42.37322,24.8695948 42.4072297,25.0007982 L40.7643877,26.5930236 Z M43.48161,22.0810819 C42.7179286,22.7993945 41.7090699,23.1787574 40.6439126,23.146911 C38.5587521,23.0862912 36.8623976,21.3061535 36.8623976,19.1788718 L36.8623976,17.8732637 C36.8623976,17.7647812 36.8363619,17.6578816 36.7863081,17.5609458 L36.3412035,16.698114 C36.1781683,16.3819782 36.0919911,16.0281296 36.0919911,15.6746535 L36.0919911,15.6330298 C36.0919911,13.959326 37.4968613,12.597754 39.2235747,12.597754 L45.4368803,12.597754 L45.4368803,15.4983811 C45.4368803,15.9671373 45.3225538,16.4365454 45.1062943,16.8558559 L44.7425633,17.5609458 C44.6925095,17.6579748 44.6664738,17.7647812 44.6664738,17.8732637 L44.6664738,19.3666909 C44.6664738,20.3984388 44.2456757,21.3623968 43.48161,22.0810819 Z" id="Shape"></path>
                    <path d="M44.9324324,29.3243243 C44.6712252,29.3243243 44.4594595,29.6262956 44.4594595,29.9987689 L44.4594595,34.3255555 C44.4594595,34.6980287 44.6712252,35 44.9324324,35 C45.1936396,35 45.4054054,34.6980287 45.4054054,34.3255555 L45.4054054,29.9987689 C45.4054054,29.6263856 45.1936396,29.3243243 44.9324324,29.3243243 Z" id="Shape"></path>
                    <path d="M3.31081081,30.2702703 C3.0496036,30.2702703 2.83783784,30.5688066 2.83783784,30.9370429 L2.83783784,34.3332273 C2.83783784,34.7014636 3.0496036,35 3.31081081,35 C3.57201802,35 3.78378378,34.7014636 3.78378378,34.3332273 L3.78378378,30.9370429 C3.78378378,30.5688955 3.57201802,30.2702703 3.31081081,30.2702703 Z" id="Shape"></path>
                    <path d="M30.0580101,7.63124233 C27.3171555,5.14064551 21.5825797,5.61679676 19.2440701,5.93709914 C18.5075005,6.03798385 17.972973,6.60439576 17.972973,7.28389688 L17.972973,8.80094306 C17.972973,9.16461972 18.2974385,9.45945946 18.6976578,9.45945946 C19.097877,9.45945946 19.4223426,9.16461972 19.4223426,8.80094306 L19.4223426,7.28380908 C19.4223426,7.26141952 19.4385755,7.24227864 19.4602194,7.23929337 C20.3942899,7.11136558 22.2478403,6.91398627 24.1682551,7.03032417 C26.4281122,7.16703217 28.0649336,7.68251881 29.0332091,8.56247232 C29.3162227,8.81964493 29.7750931,8.81964493 30.0580101,8.56247232 C30.3410237,8.30529972 30.3410237,7.88832713 30.0580101,7.63124233 Z" id="Shape"></path>
                    <path d="M15.6081081,31.2162162 C15.3469009,31.2162162 15.1351351,31.4861133 15.1351351,31.8190239 L15.1351351,34.3971923 C15.1351351,34.7301029 15.3469009,35 15.6081081,35 C15.8693153,35 16.0810811,34.7301029 16.0810811,34.3971923 L16.0810811,31.8190239 C16.0810811,31.4861937 15.8693153,31.2162162 15.6081081,31.2162162 Z" id="Shape"></path>
                    <path d="M32.6351351,31.2162162 C32.3739279,31.2162162 32.1621622,31.4861133 32.1621622,31.8190239 L32.1621622,34.3971923 C32.1621622,34.7301029 32.3739279,35 32.6351351,35 C32.8963423,35 33.1081081,34.7301029 33.1081081,34.3971923 L33.1081081,31.8190239 C33.1081081,31.4861937 32.8963423,31.2162162 32.6351351,31.2162162 Z" id="Shape"></path>
                </g>
            </g>
        </g>
    </g>
</svg>