<?xml version="1.0" encoding="UTF-8"?>
<svg width="37px" height="39px" viewBox="0 0 37 39" version="1.1" xmlns="http://www.w3.org/2000/svg" xmlns:xlink="http://www.w3.org/1999/xlink">
    <!-- Generator: Sketch 52.2 (67145) - http://www.bohemiancoding.com/sketch -->
    <title>008-bar-chart</title>
    <desc>Created with Sketch.</desc>
    <defs>
        <linearGradient x1="94.6430556%" y1="-3.46543296%" x2="-2.71388889%" y2="82.3178538%" id="linearGradient-1">
            <stop stop-color="#E53D96" offset="0%"></stop>
            <stop stop-color="#5491CC" offset="100%"></stop>
        </linearGradient>
    </defs>
    <g id="FAN_My-account" stroke="none" stroke-width="1" fill="none" fill-rule="evenodd">
        <g id="FAN-My-account-05-orders" transform="translate(-450.000000, -145.000000)" fill="url(#linearGradient-1)" fill-rule="nonzero">
            <g id="page-title" transform="translate(450.000000, 145.000000)">
                <g id="008-bar-chart">
                    <path d="M36.2367955,37.4672064 L34.5628592,37.4672064 L34.5628592,13.0602278 C34.5628592,11.9241979 33.6424346,11 32.5112129,11 L28.7696793,11 C27.6383813,11 26.7180331,11.9242745 26.7180331,13.0602278 L26.7180331,37.4672064 L22.4675948,37.4672064 L22.4675948,24.1184904 C22.4675948,22.9824605 21.5472465,22.0582626 20.4159485,22.0582626 L16.6744149,22.0582626 C15.5431169,22.0582626 14.6227687,22.9825371 14.6227687,24.1184904 L14.6227687,37.4672064 L10.3723303,37.4672064 L10.3723303,30.5540009 C10.3723303,29.4179709 9.45190574,28.493773 8.32068408,28.493773 L4.57907417,28.493773 C3.44777619,28.493773 2.52742792,29.4180475 2.52742792,30.5540009 L2.52742792,37.4672064 L0.763204469,37.4672064 C0.341686641,37.4672064 0,37.8103223 0,38.2336032 C0,38.6568842 0.341686641,39 0.763204469,39 L36.2367955,39 C36.6583134,39 37,38.6568842 37,38.2336032 C37,37.8103223 36.6583134,37.4672064 36.2367955,37.4672064 Z M8.84576875,37.4672064 L4.05376054,37.4672064 L4.05376054,30.5540009 C4.05376054,30.2631533 4.28936175,30.0265666 4.57899785,30.0265666 L8.32053144,30.0265666 C8.61016753,30.0265666 8.84576875,30.2631533 8.84576875,30.5540009 L8.84576875,37.4672064 Z M20.9411095,37.4672064 L16.1491013,37.4672064 L16.1491013,24.1184904 C16.1491013,23.8276428 16.3847025,23.5910561 16.6743386,23.5910561 L20.4158722,23.5910561 C20.705432,23.5910561 20.9411095,23.8276428 20.9411095,24.1184904 L20.9411095,37.4672064 Z M33.0364502,37.4672064 L28.244442,37.4672064 L28.244442,13.0602278 C28.244442,12.7693803 28.4800432,12.5327936 28.7696793,12.5327936 L32.5112129,12.5327936 C32.800849,12.5327936 33.0364502,12.7693803 33.0364502,13.0602278 L33.0364502,37.4672064 Z" id="Shape"></path>
                    <path d="M34.9981695,0.793181475 C35.0088472,0.587343491 34.9356286,0.378035903 34.7766832,0.22084779 C34.6177378,0.0636596772 34.4060902,-0.00882486046 34.1979511,0.00181022779 C34.1856717,0.00128224468 34.1735449,0 34.1610367,0 L29.5467385,0 C29.1255026,0 28.7840446,0.337682908 28.7840446,0.754261578 C28.7840446,1.17084025 29.1255026,1.50852316 29.5467385,1.50852316 L32.3959342,1.50852316 L24.8561709,8.96500226 L22.012848,6.1531151 C21.8698429,6.01169105 21.6758135,5.93219188 21.4735471,5.93219188 C21.2712807,5.93219188 21.0772514,6.01169105 20.9342463,6.1531151 L7.22337398,19.7124755 C6.92554201,20.0070146 6.92554201,20.4846131 7.22337398,20.7792276 C7.3723281,20.9263841 7.56750148,21 7.76267485,21 C7.95784822,21 8.15309787,20.9263841 8.30197572,20.7790768 L21.4735471,7.75305476 L24.31687,10.5649419 C24.614702,10.8594811 25.0976398,10.8594811 25.395548,10.5649419 L33.4746122,2.57527531 L33.4746122,5.1254337 C33.4746122,5.54201237 33.8160702,5.87969528 34.2373061,5.87969528 C34.6585419,5.87969528 35,5.54201237 35,5.1254337 L35,0.829687736 C35,0.817393272 34.9987034,0.805400513 34.9981695,0.793181475 Z" id="Shape"></path>
                    <circle id="Oval" cx="5" cy="23" r="1"></circle>
                </g>
            </g>
        </g>
    </g>
</svg>