<?xml version="1.0" encoding="UTF-8"?>
<svg width="22px" height="24px" viewBox="0 0 22 24" version="1.1" xmlns="http://www.w3.org/2000/svg" xmlns:xlink="http://www.w3.org/1999/xlink">
    <!-- Generator: Sketch 52.5 (67469) - http://www.bohemiancoding.com/sketch -->
    <title>017-pdf</title>
    <desc>Created with Sketch.</desc>
    <g id="ORG_Reports" stroke="none" stroke-width="1" fill="none" fill-rule="evenodd">
        <g id="PROMOTER-Events-07-Events-List-event-tickets-count-report" transform="translate(-1126.000000, -805.000000)" fill="#FF22B2" fill-rule="nonzero">
            <g id="Group-2-Copy" transform="translate(1002.000000, 805.000000)">
                <g id="017-pdf" transform="translate(124.000000, 0.000000)">
                    <path d="M21.8399545,6.36166208 L15.9109091,0.138567493 C15.8265,0.0500459137 15.7100455,0 15.5884091,0 L6.75159091,0 C5.76263636,0 4.95804545,0.812396694 4.95804545,1.81092746 L4.95804545,8.13732782 L1.37681818,8.13732782 C0.636909091,8.13732782 0.0349545455,8.74517906 0.0349545455,9.49237833 L0.0349545455,16.2758494 C0.0349545455,17.0230028 0.636909091,17.630854 1.37681818,17.630854 L4.95804545,17.630854 L4.95804545,21.7000459 C4.95804545,22.696832 5.76263636,23.5078053 6.75159091,23.5078053 L20.1715,23.5078053 C21.1604545,23.5078053 21.9650455,22.6972911 21.9650455,21.701056 L21.9650455,6.6751607 C21.9650455,6.55826446 21.9201818,6.44591368 21.8399545,6.36166208 Z M15.6993182,1.22043159 L20.5665455,6.32901745 L15.6993182,6.32901745 L15.6993182,1.22043159 Z M1.37681818,16.7267218 C1.13045455,16.7267218 0.930090909,16.524472 0.930090909,16.2758494 L0.930090909,9.49237833 C0.930090909,9.24375574 1.1305,9.04146006 1.37681818,9.04146006 L13.4623636,9.04146006 C13.7087273,9.04146006 13.9090909,9.24375574 13.9090909,9.49237833 L13.9090909,16.2758494 C13.9090909,16.524472 13.7086818,16.7267218 13.4623636,16.7267218 L1.37681818,16.7267218 Z M21.0699091,21.701056 C21.0699091,22.1987603 20.6668636,22.6036731 20.1714545,22.6036731 L6.75159091,22.6036731 C6.25618182,22.6036731 5.85313636,22.1983471 5.85313636,21.7000918 L5.85313636,17.630854 L13.4623636,17.630854 C14.2022727,17.630854 14.8042273,17.0230028 14.8042273,16.2758494 L14.8042273,9.49237833 C14.8042273,8.74517906 14.2022727,8.13732782 13.4623636,8.13732782 L5.85313636,8.13732782 L5.85313636,1.81092746 C5.85313636,1.31088154 6.25618182,0.904132231 6.75159091,0.904132231 L14.8041818,0.904132231 L14.8041818,6.78108356 C14.8041818,7.03076217 15.0045909,7.23314968 15.2517273,7.23314968 L21.0699091,7.23314968 L21.0699091,21.701056 Z" id="Shape"></path>
                    <path d="M5.3855,11.4735537 C5.23690909,11.2784206 5.05245455,11.1516988 4.83218182,11.0934343 C4.68881818,11.0545914 4.38113636,11.0351699 3.90909091,11.0351699 L2.66345455,11.0351699 L2.66345455,14.9184114 L3.43968182,14.9184114 L3.43968182,13.4535813 L3.94581818,13.4535813 C4.29722727,13.4535813 4.56559091,13.4350321 4.75090909,13.3979339 C4.88727273,13.3679063 5.02145455,13.3065657 5.15345455,13.21382 C5.28545455,13.1211203 5.39427273,12.9935262 5.47995455,12.8310836 C5.56563636,12.668641 5.60845455,12.4681818 5.60845455,12.229798 C5.60840909,11.920753 5.53409091,11.6686869 5.3855,11.4735537 Z M4.72072727,12.5423783 C4.66218182,12.6289256 4.58131818,12.6924702 4.47813636,12.7331038 C4.37495455,12.7737374 4.17045455,12.7940312 3.8645,12.7940312 L3.43968182,12.7940312 L3.43968182,11.6921028 L3.81468182,11.6921028 C4.09440909,11.6921028 4.28059091,11.7009183 4.37322727,11.718595 C4.49909091,11.7415519 4.60313636,11.798944 4.68527273,11.8907713 C4.76745455,11.9825987 4.80854545,12.0991736 4.80854545,12.240404 C4.80859091,12.3551882 4.77927273,12.455831 4.72072727,12.5423783 Z" id="Shape"></path>
                    <path d="M9.34004545,12.0960514 C9.25613636,11.8479339 9.13372727,11.6382461 8.97290909,11.4669421 C8.81209091,11.2956382 8.61886364,11.1764463 8.39336364,11.1093205 C8.22554545,11.0598714 7.98163636,11.0351699 7.66172727,11.0351699 L6.243,11.0351699 L6.243,14.9184114 L7.70368182,14.9184114 C7.99040909,14.9184114 8.21940909,14.8910468 8.39072727,14.8362718 C8.61977273,14.7621212 8.80159091,14.6588154 8.93618182,14.5263545 C9.1145,14.3515152 9.25172727,14.122865 9.34790909,13.8403122 C9.42659091,13.6089532 9.46590909,13.3334711 9.46590909,13.0138659 C9.46590909,12.6500918 9.42395455,12.344169 9.34004545,12.0960514 Z M8.58477273,13.6906795 C8.53231818,13.8646465 8.46459091,13.9895776 8.38154545,14.0654729 C8.2985,14.1414141 8.19404545,14.1952709 8.06818182,14.2270432 C7.97204545,14.2517906 7.81554545,14.2641414 7.59877273,14.2641414 L7.01922727,14.2641414 L7.01922727,11.6921028 L7.368,11.6921028 C7.68440909,11.6921028 7.89686364,11.7044536 8.00522727,11.7292011 C8.15031818,11.7609734 8.27009091,11.8219008 8.3645,11.9119835 C8.45890909,12.0020661 8.53231818,12.1274105 8.58477273,12.2881084 C8.63722727,12.4488062 8.66345455,12.679247 8.66345455,12.9794766 C8.66345455,13.2796602 8.63722727,13.5167126 8.58477273,13.6906795 Z" id="Shape"></path>
                    <polygon id="Shape" points="12.7648636 11.6921028 12.7648636 11.0351699 10.1293636 11.0351699 10.1293636 14.9184114 10.9055909 14.9184114 10.9055909 13.2681818 12.5105 13.2681818 12.5105 12.6112489 10.9055909 12.6112489 10.9055909 11.6921028"></polygon>
                </g>
            </g>
        </g>
    </g>
</svg>