<?xml version="1.0" encoding="UTF-8"?>
<svg width="19px" height="32px" viewBox="0 0 19 32" version="1.1" xmlns="http://www.w3.org/2000/svg" xmlns:xlink="http://www.w3.org/1999/xlink">
    <!-- Generator: Sketch 52.2 (67145) - http://www.bohemiancoding.com/sketch -->
    <title>002-smartphone copy</title>
    <desc>Created with Sketch.</desc>
    <g id="FAN_My-account" stroke="none" stroke-width="1" fill="none" fill-rule="evenodd">
        <g id="FAN-My-account-02-Fan-hub-personal" transform="translate(-94.000000, -845.000000)" fill="#FFFFFF" fill-rule="nonzero">
            <g id="side-menu" transform="translate(-1.000000, 81.000000)">
                <g id="app-cta" transform="translate(29.000000, 750.000000)">
                    <g id="002-smartphone-copy" transform="translate(66.000000, 14.000000)">
                        <path d="M16.3173333,0 L2.88266667,0 C1.58773333,0 0.533333333,1.0544 0.533333333,2.34933333 L0.533333333,29.6501333 C0.533333333,30.9456 1.58773333,32 2.88266667,32 L16.3168,32 C17.6122667,32 18.6666667,30.9456 18.6666667,29.6506667 L18.6666667,2.34933333 C18.6666667,1.0544 17.6122667,0 16.3173333,0 Z M1.6,4.26666667 L17.6,4.26666667 L17.6,24.5333333 L1.6,24.5333333 L1.6,4.26666667 Z M2.88266667,1.06666667 L16.3168,1.06666667 C17.0245333,1.06666667 17.6,1.64213333 17.6,2.34933333 L17.6,3.2 L1.6,3.2 L1.6,2.34933333 C1.6,1.64213333 2.17546667,1.06666667 2.88266667,1.06666667 Z M16.3173333,30.9333333 L2.88266667,30.9333333 C2.17546667,30.9333333 1.6,30.3578667 1.6,29.6506667 L1.6,25.6 L17.6,25.6 L17.6,29.6506667 C17.6,30.3578667 17.0245333,30.9333333 16.3173333,30.9333333 Z" id="Shape"></path>
                        <path d="M7.46666667,2.69375 L9.6,2.69375 C9.89493333,2.69375 10.1333333,2.44929688 10.1333333,2.146875 C10.1333333,1.84445313 9.89493333,1.6 9.6,1.6 L7.46666667,1.6 C7.17173333,1.6 6.93333333,1.84445313 6.93333333,2.146875 C6.93333333,2.44929688 7.17173333,2.69375 7.46666667,2.69375 Z" id="Shape"></path>
                        <path d="M11.2135417,2.69375 L11.7604167,2.69375 C12.0628385,2.69375 12.3072917,2.44929688 12.3072917,2.146875 C12.3072917,1.84445313 12.0628385,1.6 11.7604167,1.6 L11.2135417,1.6 C10.9111198,1.6 10.6666667,1.84445313 10.6666667,2.146875 C10.6666667,2.44929688 10.9111198,2.69375 11.2135417,2.69375 Z" id="Shape"></path>
                        <path d="M9.6,26.1333333 C8.42346667,26.1333333 7.46666667,27.0901333 7.46666667,28.2666667 C7.46666667,29.4432 8.42346667,30.4 9.6,30.4 C10.7765333,30.4 11.7333333,29.4432 11.7333333,28.2666667 C11.7333333,27.0901333 10.7765333,26.1333333 9.6,26.1333333 Z M9.6,29.3333333 C9.01173333,29.3333333 8.53333333,28.8549333 8.53333333,28.2666667 C8.53333333,27.6784 9.01173333,27.2 9.6,27.2 C10.1882667,27.2 10.6666667,27.6784 10.6666667,28.2666667 C10.6666667,28.8549333 10.1882667,29.3333333 9.6,29.3333333 Z" id="Shape"></path>
                    </g>
                </g>
            </g>
        </g>
    </g>
</svg>