<?xml version="1.0" encoding="UTF-8"?>
<svg width="25px" height="25px" viewBox="0 0 25 25" version="1.1" xmlns="http://www.w3.org/2000/svg" xmlns:xlink="http://www.w3.org/1999/xlink">
    <!-- Generator: Sketch 52.3 (67297) - http://www.bohemiancoding.com/sketch -->
    <title>004-hand</title>
    <desc>Created with Sketch.</desc>
    <g id="PROMOTER_Box-Office" stroke="none" stroke-width="1" fill="none" fill-rule="evenodd">
        <g id="PROMOTER_Box_Office_Guest_List_Expanded_Checkin_Complete" transform="translate(-19.000000, -84.000000)" fill="#9DA3B4" fill-rule="nonzero">
            <g id="2" transform="translate(19.000000, 84.000000)">
                <g id="004-hand">
                    <path d="M11.4908854,16.9563293 C11.6810581,16.7654038 11.6810581,16.4564133 11.4908854,16.2654877 C11.3005224,16.0751343 10.9921342,16.0751343 10.8015808,16.2654877 C10.6115984,16.4564133 10.6115984,16.7654038 10.8015808,16.9563293 C10.9921342,17.1466827 11.3005224,17.1466827 11.4908854,16.9563293 Z" id="Shape"></path>
                    <path d="M9.18368514,5.36956787 C9.18368514,8.33034517 11.5877802,10.7393265 14.542786,10.7393265 C17.4977918,10.7393265 19.9018869,8.33034517 19.9018869,5.36956787 C19.9018869,2.40879058 17.4977918,0 14.542786,0 C11.5877802,0 9.18368514,2.40879058 9.18368514,5.36956787 Z M18.9276087,5.36956787 C18.9276087,7.79209136 16.9605872,9.76295469 14.542786,9.76295469 C12.1249848,9.76295469 10.1579633,7.79209136 10.1579633,5.36956787 C10.1579633,2.94723511 12.1249848,0.976371777 14.542786,0.976371777 C16.9605872,0.976371777 18.9276087,2.94723511 18.9276087,5.36956787 Z" id="Shape"></path>
                    <path d="M5.63607914,24.8556137 C5.8249193,25.0463486 6.13235565,25.0484467 6.32367052,24.8596191 L8.68569537,22.5280762 C9.0869807,22.1260071 9.20900341,21.5307236 9.03253684,21.0132599 L9.54061589,20.5223083 C9.81416759,20.2575684 10.1743345,20.1116562 10.5550606,20.1116562 L17.031783,20.1116562 C18.1808144,20.1116562 19.2668357,19.6695328 20.0901559,18.8667297 C20.1240405,18.8337326 19.8329754,19.1772461 24.508673,13.5780334 C25.2021656,12.7559662 25.0984177,11.5215302 24.2771915,10.8259201 C23.461105,10.136795 22.2385935,10.2357864 21.5431972,11.0437393 L18.6683343,14.0043259 C18.3053119,13.5566711 17.7517361,13.277626 17.1536154,13.277626 L11.720844,13.277626 C10.9477796,12.9535675 10.1275052,12.7895355 9.28115102,12.7895355 C6.93511667,12.7895355 4.88661979,13.8751983 3.7872731,15.9107208 C3.32411979,15.822792 2.83564815,15.9631729 2.48423791,16.3152695 L0.16656769,18.6443329 C-0.0226532164,18.8344956 -0.0230339181,19.1421509 0.165806238,19.3328857 L5.63607914,24.8556137 Z M9.28096062,13.7657166 C10.0271838,13.7657166 10.7486598,13.9162063 11.4257812,14.2129898 C11.4874589,14.2400742 11.5538956,14.2539978 11.6210938,14.2539978 L17.1536154,14.2539978 C17.6818729,14.2539978 18.1280839,14.6856308 18.1280839,15.2301788 C18.1280839,15.7686233 17.6910103,16.2065506 17.1536154,16.2065506 L13.1786443,16.2065506 C12.9096613,16.2065506 12.6915053,16.4251328 12.6915053,16.6946411 C12.6915053,16.9643402 12.9096613,17.1827316 13.1786443,17.1827316 L17.1536154,17.1827316 C18.2282149,17.1827316 19.102362,16.3068771 19.102362,15.2301788 C19.102362,15.1443481 19.0962704,15.0592804 19.0852293,14.9749756 C21.8662433,12.1107102 22.2583912,11.7082596 22.2751432,11.6882324 C22.6223654,11.2775803 23.238761,11.2255097 23.648803,11.5718842 C24.0592257,11.9195938 24.1111949,12.5368118 23.7630209,12.9497528 L19.3932368,18.1838989 C18.7551398,18.7976837 17.9173519,19.1354751 17.031783,19.1354751 L10.5550606,19.1354751 C9.92039016,19.1354751 9.31960434,19.3786621 8.86387519,19.8198318 L8.44983553,20.2201843 L4.63305614,16.3961411 C5.52509747,14.7193909 7.19895984,13.7657166 9.28096062,13.7657166 Z M3.17373294,17.0051575 C3.33439937,16.8441772 3.58110989,16.8151855 3.77699347,16.9364929 C3.86132432,16.9879913 3.6191825,16.7671204 7.99677144,21.1471558 C8.19151287,21.3422775 8.18104288,21.6531753 7.99943655,21.8351364 L5.98577607,23.8227844 L1.19871618,18.9897537 L3.17373294,17.0051575 Z" id="Shape"></path>
                    <path d="M13.958181,2.44083403 L13.958181,3.0128479 C13.3910895,3.21426392 12.9837125,3.75690459 12.9837125,4.39338682 C12.9837125,5.20076753 13.6393229,5.85784912 14.4453201,5.85784912 C14.7139224,5.85784912 14.9324592,6.07681274 14.9324592,6.34593965 C14.9324592,6.6150665 14.7139224,6.83403018 14.4453201,6.83403018 C14.2372533,6.83403018 14.0124345,6.70299531 13.8127437,6.46476748 C13.6395133,6.25839233 13.3322673,6.23188018 13.1262944,6.4052582 C12.9203216,6.5788269 12.8936708,6.88667295 13.0669012,7.0930481 C13.3273178,7.40337373 13.633612,7.61966704 13.958181,7.72876738 L13.958181,8.29849243 C13.958181,8.5681915 14.1763371,8.78658296 14.4453201,8.78658296 C14.7143031,8.78658296 14.9324592,8.5681915 14.9324592,8.29849243 L14.9324592,7.72647856 C15.4995507,7.52487183 15.9069277,6.98223115 15.9069277,6.34593965 C15.9069277,5.53836821 15.2513173,4.88147734 14.4453201,4.88147734 C14.1767178,4.88147734 13.958181,4.66251372 13.958181,4.39338682 C13.958181,4.12425996 14.1767178,3.90510557 14.4453201,3.90510557 C14.6179794,3.90510557 14.8001569,3.99341582 14.9722451,4.16030884 C15.1656539,4.34780122 15.4740421,4.34265137 15.661169,4.14905547 C15.8482959,3.95526885 15.843156,3.64627837 15.6499376,3.45878604 C15.4026559,3.21903228 15.155184,3.08341982 14.9324592,3.00941465 L14.9324592,2.44083403 C14.9324592,2.17113496 14.7143031,1.95255278 14.4453201,1.95255278 C14.1763371,1.95255278 13.958181,2.17113496 13.958181,2.44083403 Z" id="Shape"></path>
                </g>
            </g>
        </g>
    </g>
</svg>