<?xml version="1.0" encoding="UTF-8"?>
<svg width="25px" height="25px" viewBox="0 0 25 25" version="1.1" xmlns="http://www.w3.org/2000/svg" xmlns:xlink="http://www.w3.org/1999/xlink">
    <!-- Generator: Sketch 52.6 (67491) - http://www.bohemiancoding.com/sketch -->
    <title>hand icon</title>
    <desc>Created with Sketch.</desc>
    <defs>
        <linearGradient x1="94.6430556%" y1="-3.46543296%" x2="-2.71388889%" y2="82.3178538%" id="linearGradient-1">
            <stop stop-color="#E53D96" offset="0%"></stop>
            <stop stop-color="#5491CC" offset="100%"></stop>
        </linearGradient>
    </defs>
    <g id="PROMOTER_Box_Office_Mobile" stroke="none" stroke-width="1" fill="none" fill-rule="evenodd">
        <g id="Mobile_PROMOTER_Box_Office_Empty_Cart_v1" transform="translate(-16.000000, -176.000000)" fill="url(#linearGradient-1)" fill-rule="nonzero">
            <g id="page-title" transform="translate(15.000000, 175.000000)">
                <g id="hand-icon">
                    <path d="M12.4908854,17.9563293 C12.6810581,17.7654038 12.6810581,17.4564133 12.4908854,17.2654877 C12.3005224,17.0751343 11.9921342,17.0751343 11.8015808,17.2654877 C11.6115984,17.4564133 11.6115984,17.7654038 11.8015808,17.9563293 C11.9921342,18.1466827 12.3005224,18.1466827 12.4908854,17.9563293 Z" id="Shape"></path>
                    <path d="M10.1836851,6.36956787 C10.1836851,9.33034517 12.5877802,11.7393265 15.542786,11.7393265 C18.4977918,11.7393265 20.9018869,9.33034517 20.9018869,6.36956787 C20.9018869,3.40879058 18.4977918,1 15.542786,1 C12.5877802,1 10.1836851,3.40879058 10.1836851,6.36956787 Z M19.9276087,6.36956787 C19.9276087,8.79209136 17.9605872,10.7629547 15.542786,10.7629547 C13.1249848,10.7629547 11.1579633,8.79209136 11.1579633,6.36956787 C11.1579633,3.94723511 13.1249848,1.97637178 15.542786,1.97637178 C17.9605872,1.97637178 19.9276087,3.94723511 19.9276087,6.36956787 Z" id="Shape"></path>
                    <path d="M6.63607914,25.8556137 C6.8249193,26.0463486 7.13235565,26.0484467 7.32367052,25.8596191 L9.68569537,23.5280762 C10.0869807,23.1260071 10.2090034,22.5307236 10.0325368,22.0132599 L10.5406159,21.5223083 C10.8141676,21.2575684 11.1743345,21.1116562 11.5550606,21.1116562 L18.031783,21.1116562 C19.1808144,21.1116562 20.2668357,20.6695328 21.0901559,19.8667297 C21.1240405,19.8337326 20.8329754,20.1772461 25.508673,14.5780334 C26.2021656,13.7559662 26.0984177,12.5215302 25.2771915,11.8259201 C24.461105,11.136795 23.2385935,11.2357864 22.5431972,12.0437393 L19.6683343,15.0043259 C19.3053119,14.5566711 18.7517361,14.277626 18.1536154,14.277626 L12.720844,14.277626 C11.9477796,13.9535675 11.1275052,13.7895355 10.281151,13.7895355 C7.93511667,13.7895355 5.88661979,14.8751983 4.7872731,16.9107208 C4.32411979,16.822792 3.83564815,16.9631729 3.48423791,17.3152695 L1.16656769,19.6443329 C0.977346784,19.8344956 0.976966082,20.1421509 1.16580624,20.3328857 L6.63607914,25.8556137 Z M10.2809606,14.7657166 C11.0271838,14.7657166 11.7486598,14.9162063 12.4257812,15.2129898 C12.4874589,15.2400742 12.5538956,15.2539978 12.6210938,15.2539978 L18.1536154,15.2539978 C18.6818729,15.2539978 19.1280839,15.6856308 19.1280839,16.2301788 C19.1280839,16.7686233 18.6910103,17.2065506 18.1536154,17.2065506 L14.1786443,17.2065506 C13.9096613,17.2065506 13.6915053,17.4251328 13.6915053,17.6946411 C13.6915053,17.9643402 13.9096613,18.1827316 14.1786443,18.1827316 L18.1536154,18.1827316 C19.2282149,18.1827316 20.102362,17.3068771 20.102362,16.2301788 C20.102362,16.1443481 20.0962704,16.0592804 20.0852293,15.9749756 C22.8662433,13.1107102 23.2583912,12.7082596 23.2751432,12.6882324 C23.6223654,12.2775803 24.238761,12.2255097 24.648803,12.5718842 C25.0592257,12.9195938 25.1111949,13.5368118 24.7630209,13.9497528 L20.3932368,19.1838989 C19.7551398,19.7976837 18.9173519,20.1354751 18.031783,20.1354751 L11.5550606,20.1354751 C10.9203902,20.1354751 10.3196043,20.3786621 9.86387519,20.8198318 L9.44983553,21.2201843 L5.63305614,17.3961411 C6.52509747,15.7193909 8.19895984,14.7657166 10.2809606,14.7657166 Z M4.17373294,18.0051575 C4.33439937,17.8441772 4.58110989,17.8151855 4.77699347,17.9364929 C4.86132432,17.9879913 4.6191825,17.7671204 8.99677144,22.1471558 C9.19151287,22.3422775 9.18104288,22.6531753 8.99943655,22.8351364 L6.98577607,24.8227844 L2.19871618,19.9897537 L4.17373294,18.0051575 Z" id="Shape"></path>
                    <path d="M14.958181,3.44083403 L14.958181,4.0128479 C14.3910895,4.21426392 13.9837125,4.75690459 13.9837125,5.39338682 C13.9837125,6.20076753 14.6393229,6.85784912 15.4453201,6.85784912 C15.7139224,6.85784912 15.9324592,7.07681274 15.9324592,7.34593965 C15.9324592,7.6150665 15.7139224,7.83403018 15.4453201,7.83403018 C15.2372533,7.83403018 15.0124345,7.70299531 14.8127437,7.46476748 C14.6395133,7.25839233 14.3322673,7.23188018 14.1262944,7.4052582 C13.9203216,7.5788269 13.8936708,7.88667295 14.0669012,8.0930481 C14.3273178,8.40337373 14.633612,8.61966704 14.958181,8.72876738 L14.958181,9.29849243 C14.958181,9.5681915 15.1763371,9.78658296 15.4453201,9.78658296 C15.7143031,9.78658296 15.9324592,9.5681915 15.9324592,9.29849243 L15.9324592,8.72647856 C16.4995507,8.52487183 16.9069277,7.98223115 16.9069277,7.34593965 C16.9069277,6.53836821 16.2513173,5.88147734 15.4453201,5.88147734 C15.1767178,5.88147734 14.958181,5.66251372 14.958181,5.39338682 C14.958181,5.12425996 15.1767178,4.90510557 15.4453201,4.90510557 C15.6179794,4.90510557 15.8001569,4.99341582 15.9722451,5.16030884 C16.1656539,5.34780122 16.4740421,5.34265137 16.661169,5.14905547 C16.8482959,4.95526885 16.843156,4.64627837 16.6499376,4.45878604 C16.4026559,4.21903228 16.155184,4.08341982 15.9324592,4.00941465 L15.9324592,3.44083403 C15.9324592,3.17113496 15.7143031,2.95255278 15.4453201,2.95255278 C15.1763371,2.95255278 14.958181,3.17113496 14.958181,3.44083403 Z" id="Shape"></path>
                </g>
            </g>
        </g>
    </g>
</svg>