<?xml version="1.0" encoding="UTF-8"?>
<svg width="22px" height="22px" viewBox="0 0 22 22" version="1.1" xmlns="http://www.w3.org/2000/svg" xmlns:xlink="http://www.w3.org/1999/xlink">
    <!-- Generator: Sketch 52.6 (67491) - http://www.bohemiancoding.com/sketch -->
    <title>Shape</title>
    <desc>Created with Sketch.</desc>
    <g id="Mobile_FAN_Checkout" stroke="none" stroke-width="1" fill="none" fill-rule="evenodd">
        <g id="Mobile_Checkout_confirmation_v1" transform="translate(-327.000000, -28.000000)" fill="#FFFFFF" fill-rule="nonzero">
            <path d="M339.1,31.6689233 L339.1,41.9528267 C339.1,42.544635 338.611749,43.0243902 338,43.0243902 C337.392487,43.0243902 336.9,42.5441577 336.9,41.9528267 L336.9,31.6654463 L335.657593,32.8775511 C335.231977,33.2927854 334.541702,33.2925741 334.109131,32.870553 C333.679554,32.4514538 333.68209,31.7694858 334.101958,31.3598585 L337.227574,28.3104771 C337.439205,28.1040075 337.716272,28.0002544 337.994556,28 L338.002951,28.0032038 C338.282311,28.0037852 338.560094,28.1068005 338.768862,28.3104771 L341.894478,31.3598585 C342.320094,31.7750928 342.319877,32.4485319 341.887305,32.870553 C341.457729,33.2896523 340.758712,33.2871784 340.338843,32.8775511 L339.1,31.6689233 Z M329.2,47.8536585 L346.8,47.8536585 L346.8,40.3365242 C346.8,39.7465562 347.288251,39.2682927 347.9,39.2682927 C348.507513,39.2682927 349,39.7502603 349,40.3365242 L349,48.9317685 C349,49.2265131 348.878135,49.4933768 348.679889,49.6866514 C348.478673,49.8805476 348.204727,50 347.90149,50 L328.09851,50 C327.796002,50 327.522053,49.8815704 327.323393,49.6888262 C327.122921,49.4915217 327,49.2246608 327,48.9317685 L327,40.3365242 C327,39.7465562 327.488251,39.2682927 328.1,39.2682927 C328.707513,39.2682927 329.2,39.7502603 329.2,40.3365242 L329.2,47.8536585 Z" id="Shape"></path>
        </g>
    </g>
</svg>