<?xml version="1.0" encoding="UTF-8"?>
<svg width="19px" height="18px" viewBox="0 0 19 18" version="1.1" xmlns="http://www.w3.org/2000/svg" xmlns:xlink="http://www.w3.org/1999/xlink">
    <!-- Generator: Sketch 52.2 (67145) - http://www.bohemiancoding.com/sketch -->
    <title>001-split-1</title>
    <desc>Created with Sketch.</desc>
    <g id="PROMOTER_Events" stroke="none" stroke-width="1" fill="none" fill-rule="evenodd">
        <g id="PROMOTER-Events-09-Events-List-Hold" transform="translate(-1043.000000, -622.000000)" fill="#FFFFFF" fill-rule="nonzero">
            <g id="list" transform="translate(261.000000, 571.000000)">
                <g id="1" transform="translate(0.000000, 26.000000)">
                    <g id="001-split-1" transform="translate(782.720472, 25.000000)">
                        <rect id="Rectangle-path" x="8.17285039" y="16.8417638" width="1.13385827" height="1.13385827"></rect>
                        <rect id="Rectangle-path" x="8.17285039" y="14.5740472" width="1.13385827" height="1.13385827"></rect>
                        <path d="M14.8098898,0 L14.008252,0.801637795 L15.3082205,2.1016063 L14.4090709,2.1016063 C11.9673071,2.10529134 9.7520315,3.5328189 8.73977953,5.75489764 C7.72752756,3.5328189 5.51225197,2.10529134 3.07048819,2.1016063 L2.17133858,2.1016063 L3.47130709,0.801637795 L2.66966929,0 L0.00113385827,2.66853543 L2.66966929,5.33707087 L3.47130709,4.53543307 L2.17133858,3.23546457 L3.07048819,3.23546457 C5.88713386,3.23858268 8.16973228,5.5211811 8.17285039,8.33782677 L8.17285039,13.440189 L9.30670866,13.440189 L9.30670866,8.33782677 C9.30982677,5.5211811 11.5924252,3.23858268 14.4090709,3.23546457 L15.3082205,3.23546457 L14.008252,4.53543307 L14.8098898,5.33707087 L17.4784252,2.66853543 L14.8098898,0 Z" id="Shape"></path>
                    </g>
                </g>
            </g>
        </g>
    </g>
</svg>
