<?xml version="1.0" encoding="UTF-8"?>
<svg width="40px" height="40px" viewBox="0 0 40 40" version="1.1" xmlns="http://www.w3.org/2000/svg" xmlns:xlink="http://www.w3.org/1999/xlink">
    <!-- Generator: Sketch 52.2 (67145) - http://www.bohemiancoding.com/sketch -->
    <title>hold-icon</title>
    <desc>Created with Sketch.</desc>
    <g id="PROMOTER_Events" stroke="none" stroke-width="1" fill="none" fill-rule="evenodd">
        <g id="PROMOTER-Events-10-Events-List-Hold-create" transform="translate(-700.000000, -307.000000)" fill="#FFFFFF" fill-rule="nonzero">
            <g id="Group-4" transform="translate(450.000000, 290.000000)">
                <g id="Group-2" transform="translate(234.000000, 0.000000)">
                    <g id="hold-icon" transform="translate(16.000000, 17.000000)">
                        <path d="M29.5681665,7.73658694 L27.353479,6.20330569 C27.0573071,5.99838382 26.6510571,6.07221194 26.445979,6.36830569 C26.2409008,6.66447757 26.3148852,7.07072757 26.610979,7.27580569 L28.8256665,8.80908694 C29.1189477,9.01213382 29.5301977,8.93705569 29.7330883,8.64416507 C29.9380883,8.34783694 29.8642602,7.94158694 29.5681665,7.73658694 Z" id="Shape"></path>
                        <path d="M33.9976196,10.8029932 L31.7829321,9.26979007 C31.4867602,9.06471194 31.0805883,9.13861819 30.8754321,9.43471194 C30.6702758,9.73088382 30.744104,10.1371338 31.0402758,10.3422119 C31.0402758,10.3422119 33.2505883,11.8723682 33.2549633,11.8754151 C33.5370727,12.0707276 33.9563696,12.0081494 34.1624633,11.7104932 C34.3675415,11.4143994 34.2937133,11.0080713 33.9976196,10.8029932 Z" id="Shape"></path>
                        <path d="M13.0471508,10.1025244 L10.4248071,9.48713382 C10.0742602,9.40494632 9.72324458,9.62236819 9.6408227,9.97307132 C9.55855708,10.3237744 9.7761352,10.6747119 10.1267602,10.7570557 L12.749104,11.3724463 C12.7992602,11.3841651 12.8492602,11.3898682 12.8987915,11.3898682 C13.1946508,11.3898682 13.4625415,11.1869776 13.5331665,10.8865088 C13.615354,10.5357276 13.3977758,10.1847119 13.0471508,10.1025244 Z" id="Shape"></path>
                        <path d="M18.2919946,11.3333057 L15.6696508,10.7179151 C15.3190258,10.6357276 14.9680883,10.8531494 14.8856665,11.2038526 C14.8034008,11.5545557 15.020979,11.9054932 15.371604,11.9877588 L17.9939477,12.6031494 C18.044104,12.6148682 18.094104,12.6205713 18.1436352,12.6205713 C18.4394946,12.6205713 18.7073852,12.4177588 18.7780102,12.1172901 C18.8601977,11.7665088 18.6426196,11.4155713 18.2919946,11.3333057 Z" id="Shape"></path>
                        <path d="M19.3148071,14.4233057 L13.3730102,13.0290088 C13.0224633,12.9468213 12.6714477,13.1642432 12.5890258,13.5149463 C12.5067602,13.8656494 12.7243383,14.2165869 13.0749633,14.2988526 L18.3818383,15.5441651 L14.1002758,33.7904932 L4.1895727,31.4648682 L8.47105708,13.2185401 L10.4885571,13.6918994 C10.8392602,13.7741651 11.1901196,13.5565869 11.2724633,13.2059619 C11.3548071,12.8553369 11.1371508,12.5043213 10.7864477,12.4220557 L8.13410395,11.7997119 C7.7842602,11.7175244 7.43261958,11.9349463 7.3501977,12.2856494 L2.77066645,31.8018213 C2.68840083,32.1525244 2.90597895,32.5034619 3.25660395,32.5857276 L14.4370727,35.2093213 C14.4862915,35.2208838 14.5363696,35.2265088 14.5861352,35.2265088 C14.706604,35.2265088 14.8256665,35.1931494 14.929729,35.1286963 C15.0767602,35.0375244 15.1815258,34.8917432 15.2211352,34.7233838 L19.8007446,15.2072119 C19.8829321,14.8565088 19.665354,14.5055713 19.3148071,14.4233057 Z" id="Shape"></path>
                        <path d="M39.719104,9.56275882 C39.1632446,9.17799319 38.9751196,8.43439944 39.2812915,7.83307132 C39.4294165,7.54229007 39.3396508,7.18674319 39.0713696,7.00096194 L35.7356665,4.69166507 C35.467229,4.50596194 35.1030883,4.54705569 34.8827758,4.78799319 C34.627229,5.06791507 34.261604,5.22846194 33.8799633,5.22846194 C33.604104,5.22846194 33.337854,5.14510257 33.1098071,4.98705569 C32.5539477,4.60229007 32.3658227,3.85869632 32.6719946,3.25736819 C32.8201196,2.96658694 32.730354,2.61104007 32.4620727,2.42525882 L29.126604,0.115961944 C28.8581665,-0.0697411813 28.4938696,-0.0286474313 28.2737915,0.212290069 C28.0181665,0.492211944 27.6524633,0.652602569 27.2709008,0.652758819 C26.9950415,0.652758819 26.7287915,0.569399444 26.5006665,0.411352569 C26.204729,0.206430694 25.7983227,0.280180694 25.5932446,0.576274444 L21.8225415,6.02268069 C21.7617602,5.98369632 21.6938696,5.95393069 21.6201196,5.93658694 L17.670354,5.00986819 C17.3526977,4.93525882 17.0287133,5.10713382 16.9121508,5.41197757 C16.6737915,6.03549319 15.9836352,6.39885257 15.3352758,6.24666507 C14.6773071,6.09221194 14.229729,5.46932132 14.2943383,4.79760257 C14.3255883,4.47275882 14.1118383,4.17479007 13.794104,4.10018069 L9.84441645,3.17338382 C9.52683833,3.09877444 9.20285395,3.27064944 9.08621333,3.57549319 C8.84793208,4.19830569 8.15715083,4.56229007 7.50933833,4.41025882 C7.15910395,4.32799319 6.80785395,4.54557132 6.72543208,4.89619632 C6.72543208,4.89619632 5.74886958,9.05775882 5.7480102,9.06150882 L0.0173852041,33.4833057 C-0.0648804209,33.8340088 0.152697704,34.1849463 0.503322704,34.2672119 C1.1614477,34.4216651 1.6089477,35.0446338 1.54433833,35.7162744 C1.51308833,36.0411182 1.72683833,36.3390869 2.04449458,36.4136963 L5.99410395,37.3404932 C6.3123852,37.4151026 6.63574458,37.2433057 6.75230708,36.9384619 C7.3014477,35.5021338 9.51691645,36.0274463 9.37027583,37.5527588 C9.33902583,37.8776026 9.55277583,38.1755713 9.8705102,38.2501807 L13.8201196,39.1769776 C14.1339477,39.2503369 14.4630883,39.0762744 14.5783227,38.7747901 C14.7774633,38.2538526 15.2859008,37.9037744 15.8435571,37.9037744 C16.1312133,37.9037744 16.3783227,38.0265869 16.647854,37.8596338 C16.7948071,37.7684619 16.8996508,37.6226807 16.9392602,37.4542432 L17.7969165,33.7993994 C17.7969165,33.7993994 19.6359008,35.0725244 19.6365258,35.0729932 C19.8958227,35.2525244 20.2698852,35.2168213 20.4894165,34.9766651 C20.7449633,34.6967432 21.1105883,34.5363526 21.4921508,34.5363526 C21.7680102,34.5363526 22.0343383,34.6198682 22.2624633,34.7777588 C22.5586352,34.9826807 22.9648071,34.9087744 23.1698852,34.6126807 L39.8839477,10.4702588 C40.0890258,10.1741651 40.0151977,9.76775882 39.719104,9.56275882 Z M17.7283227,28.3803369 C17.7283227,28.3803369 16.7454321,32.5690088 16.745354,32.5693213 L15.7995727,36.5998682 C14.9186352,36.6146338 14.1048852,37.0735401 13.6266821,37.7918994 L10.6599633,37.0957276 C10.5237133,36.0143994 9.72465083,35.0915088 8.6270727,34.8340088 C7.55496333,34.5824463 6.41074458,35.0393994 5.80074458,35.9555713 L2.83410395,35.2593994 C2.7248852,34.3930713 2.19027583,33.6283057 1.41746333,33.2261182 L6.86933833,9.99275882 L7.50433833,10.1417432 C7.55441645,10.1534619 7.60441645,10.1591651 7.65386958,10.1591651 C7.94972895,10.1591651 8.21761958,9.95627444 8.28824458,9.65580569 C8.3705102,9.30510257 8.15293208,8.95416507 7.80222895,8.87189944 L7.1673852,8.72291507 L7.86480708,5.75080569 C8.74574458,5.73604007 9.55941645,5.27713382 10.0376977,4.55877444 L13.0044165,5.25494632 C13.1406665,6.33627444 13.9396508,7.25916507 15.037229,7.51682132 C16.1091821,7.76830569 17.2537915,7.31135257 17.8635571,6.39533694 L20.8302758,7.09143069 C20.8387133,7.09354007 20.8575415,7.26252444 20.8612915,7.28119632 C20.9000415,7.47330569 20.9623852,7.66682132 21.044104,7.84760257 C21.2893383,8.39080569 21.7170727,8.85010257 22.2468383,9.12502444 L21.5492602,12.0978369 L20.9142602,11.9488526 C20.5643383,11.8666651 20.2127758,12.0840869 20.130354,12.4347901 C20.0480883,12.7854932 20.2656665,13.1364307 20.6163696,13.2186963 L21.2512133,13.3676807 L20.2140258,17.7878369 C20.2140258,17.7878369 20.1007446,18.2706494 20.1006665,18.2709619 L19.339104,21.5162744 C19.3390258,21.5160401 17.7283227,28.3801026 17.7283227,28.3803369 Z M36.7485571,12.7077588 L36.2123071,12.3364307 C35.9162915,12.1313526 35.5098852,12.2053369 35.3048852,12.5013526 C35.0998071,12.7975244 35.1736352,13.2037744 35.4698852,13.4088526 L36.0060571,13.7801026 L22.4225415,33.4000244 C22.1269165,33.2890869 21.8126977,33.2317432 21.4918383,33.2317432 C20.9412915,33.2317432 20.4073071,33.4029932 19.9635571,33.7129932 L18.1169165,32.4345557 L18.7796508,29.6103369 L21.6640258,31.6072119 C21.9569946,31.8098682 22.3686352,31.7351807 22.5714477,31.4422119 L30.9584008,19.3280713 C31.163479,19.0318994 31.0896508,18.6256494 30.7935571,18.4205713 C30.4973852,18.2154932 30.0911352,18.2893994 29.8860571,18.5854932 L21.8701977,30.1635401 L19.0998071,28.2454932 L20.3714477,22.8263526 L22.6621508,22.0239307 L24.1461352,23.9715869 C24.2719946,24.1367432 24.4654321,24.2285401 24.6650415,24.2285401 C24.7370727,24.2285401 24.8098852,24.2166651 24.8805883,24.1918213 C25.147229,24.0984619 25.323479,23.8440088 25.3169946,23.5614307 L25.2611352,21.1135401 L27.5720727,20.3040869 C27.8387133,20.2107276 28.0149633,19.9562744 28.008479,19.6737744 C28.0020727,19.3913526 27.8144946,19.1451026 27.5437915,19.0639307 L25.1984008,18.3604151 L25.1425415,15.9123682 C25.1361352,15.6298682 24.9485571,15.3836963 24.677854,15.3025244 C24.4071508,15.2213526 24.1151196,15.3237744 23.9542602,15.5560401 L22.5606665,17.5691651 L21.6676977,17.3013526 L23.3466821,10.1464307 L24.168479,8.95939944 L32.5382446,14.7540088 L31.4034008,16.3933838 C31.1983227,16.6895557 31.2721508,17.0958057 31.5682446,17.3008838 C31.8644165,17.5059619 32.2705883,17.4319776 32.4757446,17.1359619 C32.4757446,17.1359619 33.9767602,14.9678369 33.9818383,14.9605713 C34.1835571,14.6691651 34.1070727,14.2540088 33.8169946,14.0530713 C33.8169946,14.0530713 24.3916821,7.52775882 24.374729,7.51596194 C24.081604,7.31299319 23.6698071,7.38822757 23.467229,7.68088382 L23.1841821,8.08979007 C22.8394165,8.00736819 22.5539477,7.81369632 22.3637915,7.54385257 C22.362854,7.54255049 22.8615519,6.81827965 23.8598852,5.37104007 C23.8598852,5.37104007 24.395979,5.74213382 24.395979,5.74229007 C24.6808227,5.93947757 25.0983227,5.87354007 25.303479,5.57729007 C25.5085571,5.28119632 25.434729,4.87486819 25.1386352,4.66979007 L24.6024633,4.29854007 L26.3400415,1.78877444 C26.6356665,1.89971194 26.9499633,1.95705569 27.2708227,1.95705569 C27.8213696,1.95705569 28.3552758,1.78580569 28.7990258,1.47572757 L31.304104,3.21010257 C31.0348852,4.26619632 31.4401196,5.41760257 32.3671508,6.05939944 C33.273479,6.68697757 34.5049633,6.68236819 35.4083227,6.05143069 L37.9134008,7.78580569 C37.6977758,8.63189944 37.9150415,9.53939944 38.4866821,10.1967432 L36.7485571,12.7077588 Z M23.9673852,21.5847119 C23.9673852,21.5847119 23.412854,20.8570557 23.4126196,20.8565869 C23.2435571,20.6347901 22.9412133,20.5440869 22.6782446,20.6363526 L21.8144946,20.9388526 C22.0987915,20.5281494 22.7151977,19.9413526 22.3180102,19.4198682 L21.7633227,18.6917432 C21.7633227,18.6917432 22.6391821,18.9544776 22.6401196,18.9547119 C23.2513696,19.1379932 23.6038696,18.3541651 23.8845727,17.9487744 C23.8845727,17.9487744 23.9054321,18.8629151 23.9054321,18.8637744 C23.9199633,19.5000244 24.7775415,19.5958057 25.2467602,19.7365869 L24.3829321,20.0390869 C24.1162915,20.1324463 23.9400415,20.3869776 23.9465258,20.6695557 L23.9673852,21.5847119 Z" id="Shape"></path>
                    </g>
                </g>
            </g>
        </g>
    </g>
</svg>