<?xml version="1.0" encoding="UTF-8"?>
<svg width="21px" height="30px" viewBox="0 0 21 30" version="1.1" xmlns="http://www.w3.org/2000/svg" xmlns:xlink="http://www.w3.org/1999/xlink">
    <!-- Generator: Sketch 52.6 (67491) - http://www.bohemiancoding.com/sketch -->
    <title>Group 11</title>
    <desc>Created with Sketch.</desc>
    <g id="Mobile_FAN_Event-detail-page-(EDP)" stroke="none" stroke-width="1" fill="none" fill-rule="evenodd">
        <g id="Mobile_EDP_Onsale-Copy-7" transform="translate(-20.000000, -616.000000)" fill="#000000" fill-rule="nonzero">
            <g id="Group-13" transform="translate(20.000000, 616.000000)">
                <g id="Group-12" transform="translate(0.000000, 0.000000)">
                    <g id="Group-11" transform="translate(0.000000, 0.000000)">
                        <path d="M10.4325,3.76875 C8.60399301,3.77764762 7.04650017,2.44219735 6.77625,0.63375 L6.6825,1.42108547e-14 L8.8817842e-15,1.42108547e-14 L8.8817842e-15,29.895 L20.865,29.895 L20.865,1.42108547e-14 L14.1825,1.42108547e-14 L14.085,0.63375 C13.8149529,2.4407829 12.2595862,3.7757794 10.4325,3.76875 Z M1.5,28.395 L1.5,10.395 L19.365,10.395 L19.365,28.395 L1.5,28.395 Z M15.43125,1.5 L19.365,1.5 L19.365,8.91 L1.5,8.91 L1.5,1.5 L5.43375,1.5 C6.07454137,3.72877112 8.11344108,5.26406525 10.4325,5.26406525 C12.7515589,5.26406525 14.7904586,3.72877112 15.43125,1.5 Z" id="Shape"></path>
                        <rect id="Rectangle" x="6.84" y="16.01625" width="6.795" height="1.5"></rect>
                        <rect id="Rectangle" x="4.905" y="20.6475" width="11.05125" height="1.5"></rect>
                    </g>
                </g>
            </g>
        </g>
    </g>
</svg>