<?xml version="1.0" encoding="UTF-8"?>
<svg width="33px" height="33px" viewBox="0 0 33 33" version="1.1" xmlns="http://www.w3.org/2000/svg" xmlns:xlink="http://www.w3.org/1999/xlink">
    <!-- Generator: Sketch 52.3 (67297) - http://www.bohemiancoding.com/sketch -->
    <title>Combined Shape</title>
    <desc>Created with Sketch.</desc>
    <g id="PROMOTER_Events" stroke="none" stroke-width="1" fill="none" fill-rule="evenodd">
        <g id="PROMOTER-Events-07-Events-List-Chart" transform="translate(-525.000000, -806.000000)" fill="#FF22B2" fill-rule="nonzero">
            <g id="tickets-sold" transform="translate(495.000000, 758.000000)">
                <path d="M51.4423001,71.6622796 L51.4423001,69.6226663 C51.4423001,69.3410563 51.6713545,69.1127664 51.9539073,69.1127664 L52.4655146,69.1127664 C52.7480674,69.1127664 52.9771218,69.3410563 52.9771218,69.6226663 L52.9771218,71.6622796 L59.1164095,71.6622796 L59.1164085,68.2866674 C57.7337269,67.7092916 57.0699794,66.3400444 57.0699794,64.5236668 C57.0699794,62.7072897 57.7337269,61.3380428 59.1164064,60.7606669 L59.1164095,57.3850544 L52.9771218,57.3850544 L52.9771218,59.4246673 C52.9771218,59.7062772 52.7480674,59.9345672 52.4655146,59.9345672 L51.9539073,59.9345672 C51.6713545,59.9345672 51.4423001,59.7062772 51.4423001,59.4246673 L51.4423001,57.3850544 L41.210156,57.3850544 L41.210156,59.4246673 C41.210156,59.7062772 40.9811017,59.9345672 40.6985488,59.9345672 L40.1869416,59.9345672 C39.9043887,59.9345672 39.6753344,59.7062772 39.6753344,59.4246673 L39.6753344,57.3850544 L33.5360425,57.3850544 L33.5360466,60.7606657 C34.9187289,61.3380414 35.5824767,62.7072888 35.5824767,64.5236668 C35.5824767,66.3400446 34.9187287,67.7092918 33.5360482,68.2866673 L33.5360425,71.6622796 L39.6753344,71.6622796 L39.6753344,69.6226663 C39.6753344,69.3410563 39.9043887,69.1127664 40.1869416,69.1127664 L40.6985488,69.1127664 C40.9811017,69.1127664 41.210156,69.3410563 41.210156,69.6226663 L41.210156,71.6622796 L51.4423001,71.6622796 Z M32.0012254,61.1202741 L32.0012203,56.8751555 C32.0012197,56.3119355 32.459328,55.8553551 33.0244337,55.8553546 L59.6280169,55.8553553 C60.1931226,55.8553553 60.6512313,56.3119353 60.6512313,56.8751552 L60.6512277,61.1202725 C60.6512276,61.5728125 60.3519993,61.9712245 59.9163437,62.0987445 C59.0419819,62.3546774 58.604801,63.1629849 58.604801,64.5236668 C58.604801,65.8843452 59.0419797,66.6926519 59.9163369,66.9485871 C60.3519995,67.0760994 60.65123,67.4745157 60.6512301,67.9270603 L60.6512313,72.1721786 C60.6512314,72.7353985 60.1931228,73.1919786 59.6280171,73.1919787 L33.0244347,73.1919795 C32.459329,73.1919795 32.0012203,72.7353995 32.0012203,72.1721796 L32.0012272,67.9270612 C32.0012276,67.4745211 32.3004562,67.0761092 32.7361119,66.9485893 C33.610474,66.6926565 34.0476551,65.884349 34.0476551,64.5236668 C34.0476551,63.1629884 33.6104765,62.3546816 32.7361192,62.0987465 C32.3004565,61.9712348 32.0012259,61.5728187 32.0012254,61.1202741 Z M40.6985488,66.5632666 L40.1869416,66.5632666 C39.9043887,66.5632666 39.6753344,66.3349766 39.6753344,66.0533667 L39.6753344,62.9939669 C39.6753344,62.712357 39.9043887,62.484067 40.1869416,62.484067 L40.6985488,62.484067 C40.9811017,62.484067 41.210156,62.712357 41.210156,62.9939669 L41.210156,66.0533667 C41.210156,66.3349766 40.9811017,66.5632666 40.6985488,66.5632666 Z M52.4655146,66.5632666 L51.9539073,66.5632666 C51.6713545,66.5632666 51.4423001,66.3349766 51.4423001,66.0533667 L51.4423001,62.9939669 C51.4423001,62.712357 51.6713545,62.484067 51.9539073,62.484067 L52.4655146,62.484067 C52.7480674,62.484067 52.9771218,62.712357 52.9771218,62.9939669 L52.9771218,66.0533667 C52.9771218,66.3349766 52.7480674,66.5632666 52.4655146,66.5632666 Z" id="Combined-Shape" transform="translate(46.326226, 64.523667) rotate(-45.000000) translate(-46.326226, -64.523667) "></path>
            </g>
        </g>
    </g>
</svg>