<?xml version="1.0" encoding="UTF-8"?>
<svg width="33px" height="29px" viewBox="0 0 33 29" version="1.1" xmlns="http://www.w3.org/2000/svg" xmlns:xlink="http://www.w3.org/1999/xlink">
    <!-- Generator: Sketch 52.3 (67297) - http://www.bohemiancoding.com/sketch -->
    <title>tickets</title>
    <desc>Created with Sketch.</desc>
    <defs>
        <linearGradient x1="94.6430556%" y1="-3.46543296%" x2="-2.71388889%" y2="82.3178538%" id="linearGradient-1">
            <stop stop-color="#E53D96" offset="0%"></stop>
            <stop stop-color="#5491CC" offset="100%"></stop>
        </linearGradient>
    </defs>
    <g id="PROMOTER_Fans" stroke="none" stroke-width="1" fill="none" fill-rule="evenodd">
        <g id="PROMOTER-Fans-Fan-List" transform="translate(-1113.000000, -24.000000)" fill="url(#linearGradient-1)" fill-rule="nonzero">
            <g id="top-menu-bar">
                <g id="box-office" transform="translate(1113.000000, 24.000000)">
                    <g id="tickets">
                        <path d="M32.08125,19.150875 C32.3815359,19.150875 32.625,18.9058797 32.625,18.6037052 L32.625,14.2263467 C32.625,13.9241722 32.3815359,13.6791769 32.08125,13.6791769 L25.2376125,13.6791769 L28.6594313,10.2358373 C28.8716977,10.0221675 28.8716977,9.67580896 28.6594313,9.46213915 L25.6883813,6.4724033 C25.4760469,6.25880189 25.1318531,6.25880189 24.9195188,6.4724033 C24.0699773,7.32728774 22.6925227,7.32728774 21.8429813,6.4724033 C20.9934398,5.61751887 20.9934398,4.23140094 21.8429813,3.37651651 C22.0552477,3.1628467 22.0552477,2.81648821 21.8429813,2.6028184 L19.4156813,0.160252358 C19.2033469,-0.0533490566 18.8591531,-0.0533490566 18.6468188,0.160252358 L5.2123875,13.6791769 L0.54375,13.6791769 C0.243464063,13.6791769 0,13.9241722 0,14.2263467 L0,18.6037052 C0,18.9058797 0.243464063,19.150875 0.54375,19.150875 C1.74496172,19.150875 2.71875,20.1307877 2.71875,21.3395542 C2.71875,22.5483208 1.74496172,23.5282335 0.54375,23.5282335 C0.243464063,23.5282335 0,23.7732288 0,24.0754033 L0,28.4527618 C0,28.7549363 0.243464063,28.9999316 0.54375,28.9999316 L32.08125,28.9999316 C32.3815359,28.9999316 32.625,28.7549363 32.625,28.4527618 L32.625,24.0754033 C32.625,23.7732288 32.3815359,23.5282335 32.08125,23.5282335 C30.8800383,23.5282335 29.90625,22.5483208 29.90625,21.3395542 C29.90625,20.1307877 30.8800383,19.150875 32.08125,19.150875 Z M19.03125,1.32079953 L20.721225,3.0214033 C19.6737586,4.49670991 20.0131266,6.54716038 21.4792125,7.60121462 C22.6136789,8.41690802 24.1379461,8.41690802 25.2724125,7.60121462 L27.5061375,9.84898821 L23.6998875,13.6791769 L21.9751125,13.6791769 L23.2219313,12.4245165 C23.4341977,12.2108467 23.4341977,11.8644882 23.2219313,11.6508184 L17.2406813,5.63195047 C17.0283469,5.41834906 16.6841531,5.41834906 16.4718188,5.63195047 L8.4748875,13.6791769 L6.7501125,13.6791769 L19.03125,1.32079953 Z M20.4373875,13.6791769 L10.0126125,13.6791769 L16.85625,6.79249764 L22.0686375,12.0376675 L20.4373875,13.6791769 Z M28.8608906,21.8837146 C29.0914406,23.2638137 30.1660266,24.345158 31.5375,24.577158 L31.5375,27.905592 L27.1875,27.905592 L27.1875,25.7169127 L26.1,25.7169127 L26.1,27.905592 L6.525,27.905592 L6.525,27.3584222 L5.4375,27.3584222 L5.4375,27.905592 L1.0875,27.905592 L1.0875,24.577158 C2.86440703,24.276625 4.06276406,22.5834764 3.76410938,20.7953939 C3.53355938,19.4152948 2.45904141,18.3339505 1.0875,18.1019505 L1.0875,14.7735165 L5.4375,14.7735165 L5.4375,16.4150259 L6.525,16.4150259 L6.525,14.7735165 L31.5375,14.7735165 L31.5375,18.1019505 C29.760593,18.4024835 28.5622359,20.0957005 28.8608906,21.8837146 Z" id="Shape"></path>
                        <rect id="Rectangle-path" x="26.1" y="15.8678561" width="1.0875" height="2.18867925"></rect>
                        <rect id="Rectangle-path" x="26.1" y="19.150875" width="1.0875" height="2.18867925"></rect>
                        <rect id="Rectangle-path" x="26.1" y="22.4338939" width="1.0875" height="2.18867925"></rect>
                        <polygon id="Rectangle-path" points="5.4375 17.5093656 6.525 17.5093656 6.525 19.6980448 5.4375 19.6980448"></polygon>
                        <polygon id="Rectangle-path" points="5.4375 20.7923844 6.525 20.7923844 6.525 22.9810637 5.4375 22.9810637"></polygon>
                        <polygon id="Rectangle-path" points="5.4375 24.0754033 6.525 24.0754033 6.525 26.2640825 5.4375 26.2640825"></polygon>
                        <path d="M23.925,17.5093656 C23.3243602,17.5093656 22.8375,17.0194434 22.8375,16.4150259 C22.8375,16.1128514 22.5940359,15.8678561 22.29375,15.8678561 L10.33125,15.8678561 C10.0309641,15.8678561 9.7875,16.1128514 9.7875,16.4150259 C9.7875,17.0194434 9.30063984,17.5093656 8.7,17.5093656 C8.39971406,17.5093656 8.15625,17.7543608 8.15625,18.0565354 L8.15625,24.6225731 C8.15625,24.9247476 8.39971406,25.1697429 8.7,25.1697429 C9.30063984,25.1697429 9.7875,25.6596651 9.7875,26.2640825 C9.7875,26.5662571 10.0309641,26.8112524 10.33125,26.8112524 L22.29375,26.8112524 C22.5940359,26.8112524 22.8375,26.5662571 22.8375,26.2640825 C22.8375,25.6596651 23.3243602,25.1697429 23.925,25.1697429 C24.2252859,25.1697429 24.46875,24.9247476 24.46875,24.6225731 L24.46875,18.0565354 C24.46875,17.7543608 24.2252859,17.5093656 23.925,17.5093656 Z M23.38125,24.1443467 C22.615718,24.3450212 22.0179328,24.946566 21.8185125,25.7169127 L10.8064875,25.7169127 C10.6070672,24.946566 10.009282,24.3450212 9.24375,24.1443467 L9.24375,18.5347618 C10.009282,18.3340873 10.6070672,17.7325425 10.8064875,16.9621958 L21.8185125,16.9621958 C22.0179328,17.7325425 22.615718,18.3340873 23.38125,18.5347618 L23.38125,24.1443467 Z" id="Shape"></path>
                    </g>
                </g>
            </g>
        </g>
    </g>
</svg>