<?xml version="1.0" encoding="UTF-8"?>
<svg width="28px" height="28px" viewBox="0 0 28 28" version="1.1" xmlns="http://www.w3.org/2000/svg" xmlns:xlink="http://www.w3.org/1999/xlink">
    <!-- Generator: Sketch 52.2 (67145) - http://www.bohemiancoding.com/sketch -->
    <title>Shape</title>
    <desc>Created with Sketch.</desc>
    <g id="FAN_My-account" stroke="none" stroke-width="1" fill="none" fill-rule="evenodd">
        <g id="FAN-My-account-00-login" transform="translate(-706.000000, -263.000000)" fill="#FFFFFF" fill-rule="nonzero">
            <g id="Group-3" transform="translate(450.000000, 243.000000)">
                <g id="Group-2" transform="translate(234.000000, 0.000000)">
                    <g id="user" transform="translate(22.000000, 20.000000)">
                        <path d="M23.8995312,18.1004687 C22.3746797,16.5756719 20.5597109,15.4468672 18.5794766,14.7635469 C20.7003672,13.3027891 22.09375,10.8580937 22.09375,8.09375 C22.09375,3.63086719 18.4628828,0 14,0 C9.53711719,0 5.90625,3.63086719 5.90625,8.09375 C5.90625,10.8580937 7.29963281,13.3027891 9.42057812,14.7635469 C7.44034375,15.4468672 5.625375,16.5756719 4.10052344,18.1004687 C1.45627344,20.7447734 0,24.2604687 0,28 L2.1875,28 C2.1875,21.4865547 7.48655469,16.1875 14,16.1875 C20.5134453,16.1875 25.8125,21.4865547 25.8125,28 L28,28 C28,24.2604687 26.5437266,20.7447734 23.8995312,18.1004687 Z M14,14 C10.7433047,14 8.09375,11.3505 8.09375,8.09375 C8.09375,4.837 10.7433047,2.1875 14,2.1875 C17.2566953,2.1875 19.90625,4.837 19.90625,8.09375 C19.90625,11.3505 17.2566953,14 14,14 Z" id="Shape"></path>
                    </g>
                </g>
            </g>
        </g>
    </g>
</svg>