<?xml version="1.0" encoding="UTF-8"?>
<svg width="29px" height="29px" viewBox="0 0 29 29" version="1.1" xmlns="http://www.w3.org/2000/svg" xmlns:xlink="http://www.w3.org/1999/xlink">
    <!-- Generator: Sketch 52.2 (67145) - http://www.bohemiancoding.com/sketch -->
    <title>book</title>
    <desc>Created with Sketch.</desc>
    <g id="FAN_My-account" stroke="none" stroke-width="1" fill="none" fill-rule="evenodd">
        <g id="FAN-My-account-03-Fan-hub-organisation" transform="translate(-51.000000, -891.000000)" fill="#FF22B2" fill-rule="nonzero">
            <g id="side-menu" transform="translate(-1.000000, 81.000000)">
                <g id="orders-copy" transform="translate(30.000000, 770.000000)">
                    <g id="book" transform="translate(22.000000, 40.000000)">
                        <path d="M15.95,6.76668555 C15.6832227,6.76668555 15.4666855,6.98322266 15.4666855,7.25 L15.4666855,10.15 C15.4666855,10.4167773 15.6832227,10.6333145 15.95,10.6333145 L17.8833145,10.6333145 C18.1500918,10.6333145 18.3666289,10.4167773 18.3666289,10.15 L18.3666289,7.25 C18.3666289,6.98322266 18.1500918,6.76668555 17.8833145,6.76668555 L15.95,6.76668555 Z M17.4,9.66668555 L16.4333145,9.66668555 L16.4333145,7.73337109 L17.4,7.73337109 L17.4,9.66668555 Z" id="Shape"></path>
                        <path d="M3.38331445,12.5666855 C3.6500918,12.5666855 3.86662891,12.3501484 3.86662891,12.0833711 L3.86662891,4.83337109 L25.1333145,4.83337109 L25.1333145,12.0833711 C25.1333145,12.3501484 25.3498516,12.5666855 25.6166289,12.5666855 C25.8834063,12.5666855 26.0999434,12.3501484 26.0999434,12.0833711 L26.0999434,4.35 C26.0999434,4.08322266 25.8834063,3.86668555 25.6166289,3.86668555 L14.5,3.86668555 L14.5,0.966685547 L16.9166855,0.966685547 L16.9166855,1.93337109 L15.4666855,1.93337109 C15.1999082,1.93337109 14.9833711,2.1499082 14.9833711,2.41668555 C14.9833711,2.68346289 15.1999082,2.9 15.4666855,2.9 L17.4,2.9 C17.6667773,2.9 17.8833145,2.68346289 17.8833145,2.41668555 L17.8833145,0.483314453 C17.8833145,0.216537109 17.6667773,0 17.4,0 L14.0166855,0 C13.7499082,0 13.5333711,0.216537109 13.5333711,0.483314453 L13.5333711,3.86662891 L3.38337109,3.86662891 C3.11659375,3.86662891 2.90005664,4.08316602 2.90005664,4.34994336 L2.90005664,12.0832578 C2.9,12.3501484 3.11653711,12.5666855 3.38331445,12.5666855 Z" id="Shape"></path>
                        <path d="M20.7833145,6.76668555 C20.5165371,6.76668555 20.3,6.98322266 20.3,7.25 L20.3,10.15 C20.3,10.4167773 20.5165371,10.6333145 20.7833145,10.6333145 L22.7166289,10.6333145 C22.9834063,10.6333145 23.1999434,10.4167773 23.1999434,10.15 L23.1999434,7.25 C23.1999434,6.98322266 22.9834063,6.76668555 22.7166289,6.76668555 L20.7833145,6.76668555 Z M22.2333145,9.66668555 L21.2666289,9.66668555 L21.2666289,7.73337109 L22.2333145,7.73337109 L22.2333145,9.66668555 Z" id="Shape"></path>
                        <path d="M28.5166855,28.0333145 L0.483314453,28.0333145 C0.216537109,28.0333145 0,28.2498516 0,28.5166289 C0,28.7834063 0.216537109,29 0.483314453,29 L28.5166289,29 C28.7834063,29 28.9999434,28.7834629 28.9999434,28.5166855 C28.9999434,28.2499082 28.7834629,28.0333145 28.5166855,28.0333145 Z" id="Shape"></path>
                        <path d="M17.8833145,25.1333145 C18.1500918,25.1333145 18.3666289,24.9167773 18.3666289,24.65 L18.3666289,17.8833145 C18.3666289,17.75525 18.3158789,17.632 18.2250273,17.5416016 C18.1796016,17.4961758 17.0867773,16.4333145 14.5,16.4333145 C11.9132227,16.4333145 10.8203984,17.4961758 10.7749727,17.5416016 C10.6841211,17.632 10.6333711,17.75525 10.6333711,17.8833145 L10.6333711,24.65 C10.6333711,24.9167773 10.8499082,25.1333145 11.1166855,25.1333145 C11.3834629,25.1333145 11.6,24.9167773 11.6,24.65 L11.6,18.1172402 C11.8957773,17.9142402 12.6618984,17.5009902 14.0166855,17.4178418 L14.0166855,22.2333145 C13.7499082,22.2333145 13.5333711,22.4498516 13.5333711,22.7166289 C13.5333711,22.9834063 13.7499082,23.1999434 14.0166855,23.1999434 L14.0166855,24.6499434 C14.0166855,24.9167207 14.2332227,25.1332578 14.5,25.1332578 C14.7667773,25.1332578 14.9833145,24.9167207 14.9833145,24.6499434 L14.9833145,23.1999434 C15.2500918,23.1999434 15.4666289,22.9834063 15.4666289,22.7166289 C15.4666289,22.4498516 15.2500918,22.2333145 14.9833145,22.2333145 L14.9833145,17.4178418 C16.3409902,17.5014434 17.1070547,17.9156563 17.4,18.1167305 L17.4,24.65 C17.4,24.9167773 17.6165371,25.1333145 17.8833145,25.1333145 Z" id="Shape"></path>
                        <path d="M8.7,26.5833145 C8.7,26.8500918 8.91653711,27.0666289 9.18331445,27.0666289 L19.8166289,27.0666289 C20.0834063,27.0666289 20.2999434,26.8500918 20.2999434,26.5833145 C20.2999434,26.3165371 20.0834063,26.1 19.8166289,26.1 L9.18331445,26.1 C8.91653711,26.1 8.7,26.3165371 8.7,26.5833145 Z" id="Shape"></path>
                        <path d="M2.41668555,26.1 C2.1499082,26.1 1.93337109,26.3165371 1.93337109,26.5833145 C1.93337109,26.8500918 2.1499082,27.0666289 2.41668555,27.0666289 L7.25,27.0666289 C7.51677734,27.0666289 7.73331445,26.8500918 7.73331445,26.5833145 C7.73331445,26.3165371 7.51677734,26.1 7.25,26.1 L6.76668555,26.1 L6.76668555,14.5 L22.2333711,14.5 L22.2333711,26.1 L21.75,26.1 C21.4832227,26.1 21.2666855,26.3165371 21.2666855,26.5833145 C21.2666855,26.8500918 21.4832227,27.0666289 21.75,27.0666289 L26.5833145,27.0666289 C26.8500918,27.0666289 27.0666289,26.8500918 27.0666289,26.5833145 C27.0666289,26.3165371 26.8500918,26.1 26.5833145,26.1 L26.1,26.1 L26.1,14.5 L26.5833145,14.5 C26.8500918,14.5 27.0666289,14.2834629 27.0666289,14.0166855 C27.0666289,13.7499082 26.8500918,13.5333711 26.5833145,13.5333711 L2.41668555,13.5333711 C2.1499082,13.5333711 1.93337109,13.7499082 1.93337109,14.0166855 C1.93337109,14.2834629 2.14985156,14.5 2.41668555,14.5 L2.9,14.5 L2.9,26.1 L2.41668555,26.1 Z M23.2,14.5 L25.1333145,14.5 L25.1333145,26.1 L23.2,26.1 L23.2,14.5 Z M3.86668555,14.5 L5.8,14.5 L5.8,26.1 L3.86668555,26.1 L3.86668555,14.5 Z" id="Shape"></path>
                        <path d="M6.28331445,6.76668555 C6.01653711,6.76668555 5.8,6.98322266 5.8,7.25 L5.8,10.15 C5.8,10.4167773 6.01653711,10.6333145 6.28331445,10.6333145 L8.21662891,10.6333145 C8.48340625,10.6333145 8.69994336,10.4167773 8.69994336,10.15 L8.69994336,7.25 C8.69994336,6.98322266 8.48340625,6.76668555 8.21662891,6.76668555 L6.28331445,6.76668555 Z M7.73331445,9.66668555 L6.76662891,9.66668555 L6.76662891,7.73337109 L7.73331445,7.73337109 L7.73331445,9.66668555 Z" id="Shape"></path>
                        <path d="M11.1166855,6.76668555 C10.8499082,6.76668555 10.6333711,6.98322266 10.6333711,7.25 L10.6333711,10.15 C10.6333711,10.4167773 10.8499082,10.6333145 11.1166855,10.6333145 L13.05,10.6333145 C13.3167773,10.6333145 13.5333145,10.4167773 13.5333145,10.15 L13.5333145,7.25 C13.5333145,6.98322266 13.3167773,6.76668555 13.05,6.76668555 L11.1166855,6.76668555 Z M12.5666855,9.66668555 L11.6,9.66668555 L11.6,7.73337109 L12.5666855,7.73337109 L12.5666855,9.66668555 Z" id="Shape"></path>
                    </g>
                </g>
            </g>
        </g>
    </g>
</svg>